<?xml version="1.0" encoding="utf-8"?>
<!-- Generator: Adobe Illustrator 20.0.0, SVG Export Plug-In . SVG Version: 6.00 Build 0)  -->
<svg version="1.1" id="Layer_1" xmlns="http://www.w3.org/2000/svg" xmlns:xlink="http://www.w3.org/1999/xlink" x="0px" y="0px"
	 viewBox="0 0 40 30" style="enable-background:new 0 0 40 30;" xml:space="preserve">
<style type="text/css">
	.st0{fill:#FFFFFF;}
	.st1{fill:#D11D23;}
	.st2{fill:#00305C;}
</style>
<rect class="st0" width="40" height="30"/>
<polyline class="st1" points="40,12 22,12 22,0 18,0 18,12 0,12 0,18 18,18 18,30 22,30 22,18 40,18 "/>
<path class="st1" d="M26.7,20h3L40,27.8V30 M13.3,10h-3L0,2.2V0L13.3,10z M13.3,20h3L3,30H0L13.3,20z M26.7,10h-3L37,0h3L26.7,10z"
	/>
<path class="st2" d="M0,20v6.6L8.9,20 M40,20v6.6L31.1,20H40z M0,10V3.4L8.9,10H0z M40,10V3.4L31.1,10H40z M16.7,30v-9.1L4.5,30
	H16.7z M23.3,30v-9.1L35.5,30H23.3z M16.7,0v9.1L4.5,0H16.7z M23.3,0v9.1L35.5,0H23.3z"/>
</svg>
