<?xml version="1.0" encoding="utf-8"?>
<!-- Generator: Adobe Illustrator 20.0.0, SVG Export Plug-In . SVG Version: 6.00 Build 0)  -->
<svg version="1.1" id="Layer_1" xmlns="http://www.w3.org/2000/svg" xmlns:xlink="http://www.w3.org/1999/xlink" x="0px" y="0px"
	 viewBox="0 0 393.4 112.9" style="enable-background:new 0 0 393.4 112.9;" xml:space="preserve">
<style type="text/css">
	.st0{fill:#FFFFFF;}
	.st1{fill:#D5A655;}
	.st2{fill:#FFFFFF;stroke:#D5A655;stroke-width:1.293;}
	.st3{fill:#221F1E;}
	.st4{font-family:'PTSerif-Regular';}
	.st5{font-size:50px;}
</style>
<g>
	<rect x="28.5" y="29.2" class="st0" width="54" height="54"/>
	<path class="st1" d="M83.2,84H27.8V28.6h55.4V84z M29.1,82.7h52.8V29.9H29.1V82.7z"/>
</g>
<g>
	<g>
		<path class="st0" d="M82.9,77.6c-8.8,0-13.7-8.6-13.9-8.9l-0.1-0.1V44.3l0.1-0.1c0.2-0.4,5.2-8.9,14-8.9c2.6,0,5.2,0.7,7.8,2.2
			l1.5,0.8l-1.7,0.4c-0.1,0-2.9,0.7-4.6,4.5c0.1,0,0.2,0,0.3,0c1.8,0,4.9,0.8,9.2,4.3c2.4,2,4.1,3.7,5.4,5c2.1,2.1,3.2,3.2,5.2,3.6
			l3.4,0.6l-3.4,0.6c-2.2,0.4-3.3,1.5-5.7,3.7c-1.2,1.1-2.7,2.6-4.8,4.3c-4.4,3.6-7.4,4.4-9.2,4.4c-0.1,0-0.2,0-0.3,0
			c1.7,3.8,4.5,4.5,4.6,4.5l1.6,0.4l-1.4,0.8C88.1,76.9,85.5,77.6,82.9,77.6L82.9,77.6z"/>
		<path class="st1" d="M82.9,35.9c2.3,0,4.8,0.6,7.5,2.1c0,0-3.7,0.8-5.5,5.9c0,0,0.4-0.2,1.3-0.2c1.6,0,4.5,0.6,8.8,4.2
			c6.3,5.2,7.3,8,10.8,8.7c-3.5,0.7-4.6,3-10.8,8.2c-4.3,3.6-7.3,4.2-8.8,4.2c-0.9,0-1.3-0.2-1.3-0.2c1.8,5.1,5.5,6,5.5,6
			c-2.7,1.5-5.3,2.1-7.5,2.1c-8.5,0-13.4-8.6-13.4-8.6v0v-12v0V44.4C69.5,44.4,74.4,35.9,82.9,35.9 M82.9,34.6
			c-9.1,0-14.3,8.8-14.5,9.2l-0.2,0.3v0.3v11.9v12v0.3l0.2,0.3c0.2,0.4,5.4,9.2,14.5,9.2c2.7,0,5.4-0.8,8.2-2.3l3-1.7l-3.3-0.7
			c-0.1,0-2.1-0.6-3.7-3.3c2-0.2,4.9-1.2,8.9-4.5c2.1-1.8,3.6-3.2,4.9-4.3c2.4-2.2,3.4-3.2,5.4-3.6l6.7-1.3l-6.7-1.3
			c-1.8-0.3-2.8-1.4-4.8-3.4c-1.3-1.3-3-3-5.4-5C92,43.7,89,42.7,87,42.5c1.6-2.7,3.7-3.2,3.7-3.2l3.3-0.7l-3-1.7
			C88.3,35.4,85.6,34.6,82.9,34.6L82.9,34.6z"/>
	</g>
	<g>
		<path class="st0" d="M78.6,64.2c-4.5,0-7.9-2.5-10.3-7.6c2.3-5.1,5.8-7.7,10.3-7.7c6.8,0,14.1,6,16.1,7.7
			C92.7,58.4,85.5,64.2,78.6,64.2C78.6,64.2,78.6,64.2,78.6,64.2z"/>
		<path class="st1" d="M78.6,49.5c6.1,0,12.6,5,15.1,7.1c-2.5,2.1-9,6.9-15,6.9c-4.2,0-7.3-2.3-9.6-6.9
			C71.3,51.9,74.5,49.5,78.6,49.5 M78.6,48.2c-4.1,0-8.2,2.1-11,8.4c2.8,6.2,6.8,8.2,11,8.2c8.3,0,17-8.2,17-8.2
			S86.9,48.2,78.6,48.2L78.6,48.2z"/>
	</g>
</g>
<g>
	<g>
		<path class="st0" d="M30,77.6c-2.6,0-5.2-0.7-7.8-2.2l-1.5-0.8l1.7-0.4c0.1,0,2.9-0.7,4.6-4.5c-0.1,0-0.2,0-0.3,0
			c-1.8,0-4.9-0.8-9.2-4.3c-2.4-2-4.1-3.7-5.4-5c-2.1-2.1-3.2-3.2-5.2-3.6l-3.4-0.6l3.4-0.6c2.2-0.4,3.3-1.5,5.7-3.7
			c1.2-1.1,2.7-2.6,4.8-4.3c4.4-3.6,7.4-4.4,9.2-4.4c0.1,0,0.2,0,0.3,0c-1.7-3.8-4.6-4.5-4.6-4.5l-1.7-0.4l1.5-0.8
			c2.6-1.5,5.3-2.2,7.8-2.2c8.8,0,13.7,8.6,13.9,8.9l0.1,0.1v24.3l-0.1,0.1C43.7,69.1,38.8,77.6,30,77.6C30,77.6,30,77.6,30,77.6z"
			/>
		<path class="st1" d="M30,35.9c8.5,0,13.4,8.6,13.4,8.6v0v12v0v11.9c0,0-4.9,8.5-13.4,8.5c-2.3,0-4.8-0.6-7.5-2.1
			c0,0,3.7-0.8,5.5-5.9c0,0-0.4,0.2-1.3,0.2c-1.6,0-4.5-0.6-8.8-4.2c-6.3-5.2-7.3-8-10.8-8.7c3.5-0.7,4.6-3,10.8-8.2
			c4.3-3.6,7.3-4.2,8.8-4.2c0.9,0,1.3,0.2,1.3,0.2c-1.8-5.1-5.5-6-5.5-6C25.2,36.5,27.7,35.9,30,35.9 M30,34.6
			c-2.7,0-5.4,0.8-8.2,2.3l-3,1.7l3.3,0.7c0.1,0,2.1,0.6,3.7,3.3c-2,0.2-4.9,1.2-8.9,4.5c-2.1,1.8-3.6,3.2-4.9,4.3
			c-2.4,2.2-3.4,3.2-5.4,3.6L0,56.2l6.7,1.3c1.8,0.3,2.8,1.4,4.8,3.4c1.3,1.3,3,3,5.4,5c4,3.3,6.9,4.3,8.9,4.5
			c-1.5,2.6-3.6,3.2-3.7,3.2l-3.3,0.7l3,1.7c2.7,1.5,5.5,2.3,8.2,2.3c9.1,0,14.3-8.8,14.5-9.2l0.2-0.3v-0.3V56.5v-12v-0.3l-0.2-0.3
			C44.3,43.5,39.1,34.6,30,34.6L30,34.6z"/>
	</g>
	<g>
		<path class="st0" d="M35.1,64C28.3,64,21,58,19,56.2c2-1.7,9.2-7.6,16-7.6c4.5,0,7.9,2.5,10.3,7.6C43,61.4,39.6,64,35.1,64
			C35.1,64,35.1,64,35.1,64z"/>
		<path class="st1" d="M35.1,49.3c4.2,0,7.3,2.3,9.6,6.9c-2.3,4.8-5.4,7.1-9.5,7.1c-6.1,0-12.6-5-15.1-7.1
			C22.5,54.2,29,49.3,35.1,49.3 M35.1,48c-8.3,0-17,8.2-17,8.2s8.7,8.4,17,8.4c4.1,0,8.2-2.1,11-8.4C43.3,50.1,39.2,48,35.1,48
			L35.1,48z"/>
	</g>
</g>
<g>
	<g>
		<path class="st0" d="M55.6,106c-0.4-2.2-1.5-3.3-3.7-5.7c-1.1-1.2-2.6-2.7-4.3-4.8c-3.9-4.7-4.4-7.9-4.4-9.5
			c-3.8,1.7-4.5,4.6-4.5,4.6l-0.4,1.7l-0.8-1.5C29.9,77.3,44,69,44.2,69l0.1-0.1h24.3l0.1,0.1c0.1,0.1,14.1,8.3,6.6,21.8l-0.8,1.5
			l-0.4-1.7c0-0.1-0.7-2.9-4.5-4.6c0.1,1.6-0.5,4.8-4.3,9.5c-2,2.4-3.7,4.1-5,5.4c-2.1,2.1-3.2,3.2-3.6,5.2l-0.6,3.4L55.6,106z"/>
		<path class="st1" d="M68.5,69.5c0,0,13.7,7.8,6.4,20.9c0,0-0.8-3.7-5.9-5.5c0,0,1.6,3.4-4,10.1c-5.2,6.3-8,7.3-8.7,10.8
			c-0.7-3.5-3-4.6-8.2-10.8c-5.6-6.7-4-10.1-4-10.1c-5.1,1.8-6,5.5-6,5.5c-7.3-13.1,6.4-20.9,6.4-20.9h0h12h0H68.5 M68.8,68.2h-0.3
			H56.5h-12h-0.3l-0.3,0.2c-0.2,0.1-3.7,2.1-6.4,5.9c-2.5,3.6-4.7,9.4-0.5,16.7l1.7,3l0.7-3.3c0-0.1,0.6-2.1,3.2-3.7
			c0.2,1.9,1.2,4.9,4.5,8.9c1.8,2.1,3.2,3.6,4.3,4.9c2.2,2.4,3.2,3.4,3.6,5.4l1.3,6.7l1.3-6.7c0.3-1.8,1.4-2.8,3.4-4.8
			c1.3-1.3,3-3,5-5.4c3.3-4,4.3-6.9,4.5-8.9c2.6,1.5,3.2,3.6,3.2,3.7l0.7,3.3l1.7-3c4.1-7.3,2-13.2-0.5-16.7
			c-2.6-3.8-6.2-5.8-6.3-5.9L68.8,68.2L68.8,68.2z"/>
	</g>
	<g>
		<path class="st0" d="M56.2,94.7c-1.9-2.2-8.8-10.8-7.4-18.1c0.7-3.5,3.2-6.2,7.4-8.2c4.3,2,6.9,4.7,7.6,8.2
			C65.2,83.9,58.2,92.5,56.2,94.7z"/>
		<path class="st1" d="M56.3,69.1c4,1.9,6.3,4.4,6.9,7.6c1.3,6.5-4.6,14.2-6.9,17c-2.3-2.8-8-10.5-6.7-17
			C50.1,73.5,52.4,71,56.3,69.1 M56.2,67.7c-18.5,8.4,0,28,0,28S75.1,76,56.2,67.7L56.2,67.7z"/>
	</g>
</g>
<g>
	<g>
		<path class="st0" d="M44.3,44l-0.1-0.1C44,43.9,30,35.6,37.5,22.1l0.8-1.5l0.4,1.7c0,0.1,0.7,2.9,4.5,4.6
			c-0.1-1.6,0.5-4.8,4.3-9.5c2-2.4,3.7-4.1,5-5.4c2.1-2.1,3.2-3.2,3.6-5.2l0.6-3.4l0.6,3.4c0.4,2.2,1.5,3.3,3.7,5.7
			c1.1,1.2,2.6,2.7,4.3,4.8c3.9,4.7,4.4,7.9,4.4,9.5c3.8-1.7,4.5-4.6,4.5-4.6l0.4-1.7l0.8,1.5c7.6,13.5-6.5,21.7-6.7,21.8L68.6,44
			H44.3z"/>
		<path class="st1" d="M56.6,7c0.7,3.5,3,4.6,8.2,10.8c5.6,6.7,4,10.1,4,10.1c5.1-1.8,6-5.5,6-5.5c7.3,13.1-6.4,20.9-6.4,20.9h0h-12
			h0H44.4c0,0-13.7-7.8-6.4-20.9c0,0,0.8,3.7,5.9,5.5c0,0-1.6-3.4,4-10.1C53.1,11.5,56,10.5,56.6,7 M56.6,0l-1.3,6.7
			C55,8.5,54,9.5,52,11.5c-1.3,1.3-3,3-5,5.4c-3.3,4-4.3,6.9-4.5,8.9c-2.6-1.5-3.2-3.6-3.2-3.7l-0.7-3.3l-1.7,3
			c-4.1,7.3-2,13.2,0.5,16.7c2.6,3.8,6.2,5.8,6.3,5.9l0.3,0.2h0.3h11.9h12h0.3l0.3-0.2c0.2-0.1,3.7-2.1,6.4-5.9
			c2.5-3.6,4.7-9.4,0.5-16.7l-1.7-3l-0.7,3.3c0,0.1-0.6,2.1-3.2,3.7c-0.2-1.9-1.2-4.9-4.5-8.9c-1.8-2.1-3.2-3.6-4.3-4.9
			c-2.2-2.4-3.2-3.4-3.6-5.4L56.6,0L56.6,0z"/>
	</g>
	<g>
		<path class="st0" d="M56.6,45.4c-4.3-2-6.9-4.7-7.6-8.2c-1.4-7.3,5.6-15.9,7.6-18.1c1.9,2.2,8.8,10.8,7.4,18.1
			C63.3,40.6,60.9,43.4,56.6,45.4z"/>
		<path class="st1" d="M56.6,20c2.3,2.8,8,10.5,6.7,17c-0.6,3.2-2.9,5.7-6.7,7.6c-4-1.9-6.3-4.4-6.9-7.6
			C48.4,30.5,54.3,22.8,56.6,20 M56.6,18.1c0,0-18.9,19.6,0,28C75.1,37.7,56.6,18.1,56.6,18.1L56.6,18.1z"/>
	</g>
</g>
<circle class="st2" cx="55.5" cy="56.3" r="20.9"/>
<circle class="st2" cx="55.5" cy="56.3" r="13.1"/>
<text transform="matrix(1 0 0 1 128.1381 72.3662)" class="st3 st4 st5">Art Inventis</text>
</svg>
