<?xml version="1.0" encoding="utf-8"?>
<!-- Generator: Adobe Illustrator 20.0.0, SVG Export Plug-In . SVG Version: 6.00 Build 0)  -->
<svg version="1.1" id="Layer_1" xmlns="http://www.w3.org/2000/svg" xmlns:xlink="http://www.w3.org/1999/xlink" x="0px" y="0px"
	 viewBox="0 0 94.7 93.5" style="enable-background:new 0 0 94.7 93.5;" xml:space="preserve">
<style type="text/css">
	.st0{fill:#221F1E;}
	.st1{fill:#BD9658;}
</style>
<polygon class="st0" points="94.7,73.8 0.1,73.8 0.1,19.6 11.3,19.6 11.3,23.6 4.1,23.6 4.1,69.8 90.7,69.8 90.7,23.6 83,23.6 
	83,19.6 94.7,19.6 "/>
<rect x="-2.3" y="58" transform="matrix(0.7381 -0.6747 0.6747 0.7381 -36.312 26.5123)" class="st0" width="36.7" height="4"/>
<rect x="76.8" y="41.7" transform="matrix(0.6746 -0.7382 0.7382 0.6746 -18.6703 77.7045)" class="st0" width="4" height="36.7"/>
<path class="st1" d="M92.7,21.6H2v3.1h0l0,0v0h0l11.3,9.6l8,6.8c0.9,0.8,2.2,1.8,3.4,2.9l10.6,9l8.7,7.4c1.9,1.6,4.9,1.6,6.8,0
	l8.7-7.4l10.6-9c1.2-1,2.5-2.1,3.4-2.9l8-6.8l11.3-9.6h0v0l0,0h0V21.6z"/>
<path class="st0" d="M47.4,63.7c-1.8,0-3.4-0.6-4.7-1.7L23.2,45.4c-1.2-1-2.3-2-3.2-2.7L0.8,26.4c-0.4-0.3-0.6-0.7-0.8-1.1
	C0,25,0,24.8,0,24.5v-2.9c0-1.1,0.9-2,2-2h90.7c1.1,0,2,0.9,2,2v3c0,0.4-0.1,0.8-0.3,1.2c-0.2,0.3-0.4,0.5-0.6,0.7L74.7,42.7
	c-0.9,0.8-2.2,1.8-3.4,2.9L52,62C50.8,63.1,49.1,63.7,47.4,63.7z M4,23.8l18.6,15.8c0.9,0.8,2,1.7,3.2,2.7L45.3,59
	c1.1,0.9,3.1,0.9,4.2,0l19.3-16.5c1.2-1,2.5-2.1,3.4-2.9l18.6-15.8v-0.2H4V23.8z"/>
<rect x="45.3" y="2" class="st1" width="4" height="6.5"/>
<rect x="34.5" y="3.4" transform="matrix(0.9659 -0.2589 0.2589 0.9659 -0.4789 9.6875)" class="st1" width="4" height="6.5"/>
<rect x="24.5" y="7.6" transform="matrix(0.866 -0.5 0.5 0.866 -1.8708 14.6869)" class="st1" width="4" height="6.5"/>
<rect x="23.2" y="81.2" transform="matrix(0.5003 -0.8658 0.8658 0.5003 -58.7793 64.4719)" class="st1" width="6.5" height="4"/>
<rect x="33.3" y="85.3" transform="matrix(0.259 -0.9659 0.9659 0.259 -57.2801 100.0019)" class="st1" width="6.5" height="4"/>
<rect x="45.3" y="85.5" class="st1" width="4" height="6.5"/>
<rect x="56.2" y="84.1" transform="matrix(0.966 -0.2586 0.2586 0.966 -20.6082 18.011)" class="st1" width="4" height="6.5"/>
<rect x="66.2" y="79.9" transform="matrix(0.8661 -0.4998 0.4998 0.8661 -32.4335 45.2348)" class="st1" width="4" height="6.5"/>
<rect x="65" y="8.8" transform="matrix(0.4998 -0.8662 0.8662 0.4998 24.7457 64.5193)" class="st1" width="6.5" height="4"/>
<rect x="54.9" y="4.7" transform="matrix(0.2588 -0.9659 0.9659 0.2588 36.668 61.1152)" class="st1" width="6.5" height="4"/>
</svg>
