<?xml version="1.0" encoding="utf-8"?>
<!-- Generator: Adobe Illustrator 20.0.0, SVG Export Plug-In . SVG Version: 6.00 Build 0)  -->
<svg version="1.1" id="Layer_1" xmlns="http://www.w3.org/2000/svg" xmlns:xlink="http://www.w3.org/1999/xlink" x="0px" y="0px"
	 viewBox="0 0 213.2 60.6" style="enable-background:new 0 0 213.2 60.6;" xml:space="preserve">
<style type="text/css">
	.st0{fill:#FFFFFF;}
</style>
<g>
	<path class="st0" d="M210.4,21.4c-1.8-2.6-4.3-4.8-7.3-6.5c-3.1-1.6-6.4-2.9-10-3.8c-3.7-0.9-7.4-1.3-11-1.3
		c-7.6,0-15,1.1-22.2,3.3c-2.1,0.6-4.3,1.5-6.4,2.3c-9.1,3.7-18.1,8.2-27.2,13.3c-4-1.5-8-3.1-11.9-4.6c-0.7-0.3-1.5-0.5-2.2-0.9
		c-4.5-1.9-9.2-3.7-13.8-5.5c5.6-2.6,10.9-5.1,16-7.3c2.8-1.2,5.6-2.4,8.4-3.5c7.6-3,14.6-4.5,20.9-4.5c2.3,0,4.9,0.5,8.1,1.5
		c3.2,1,5.5,2.3,7.2,4.1c0.4,0.3,0.6,0.5,0.9,0.4c0.2,0,0.3-0.1,0.4-0.2c0.5-0.3,0.5-0.6,0.2-0.9c-0.2-0.3-0.4-0.5-0.5-0.7
		c-1.5-2-3.7-3.5-6.6-4.6c-3.2-1.2-6.4-1.8-9.6-1.8c-7.3,0-15.1,1.6-23.5,4.9c-1.9,0.7-3.9,1.5-5.8,2.4C108,10,101.3,13,94.6,16.5
		c-4.2-1.5-8.4-2.9-12.6-4.3c-4.5-1.4-9.1-2.6-13.6-3.7c-6.9-1.7-14.1-2.7-21.5-3.1c-1.8-0.1-3.7-0.1-5.6-0.1
		c-4.6,0-9.5,0.5-14.4,1.5c-4.9,1-9.4,2.5-13.3,4.6c-4,2.1-7.3,4.5-9.8,7.4c-2.5,2.9-3.8,6-3.8,9.6c0,2.7,0.7,5,2.3,6.8
		c1.5,1.8,3.5,3.3,5.8,4.5c2.4,1.2,5,2.1,7.7,2.5c2.8,0.5,5.5,0.7,8,0.7h2.6c1.1,4.6,4.5,8.1,10.1,10.6c3.3,1.5,6.7,2.5,10.4,3
		c2.8,0.5,5.7,0.7,8.8,0.7c8.1,0,16-1.3,23.7-3.9c0.8-0.4,1.7-0.6,2.6-0.9c6.7-2.5,13.5-5.3,20.2-8.5c4,1.6,8.1,3.2,12.2,4.6
		c6.5,2.4,13.3,4.6,20,6.8c8.6,2.7,17.1,4.4,25.5,5c2.4,0.2,4.6,0.3,6.9,0.3c2.5,0,5.3-0.3,8-0.6c2.8-0.4,5.5-1.1,8-2
		c2.5-1,4.8-2.3,6.9-3.8c2.1-1.6,3.5-3.6,4.5-6c5.6-0.7,10.1-2.8,13.6-6c3.5-3.3,5.3-7.2,5.3-11.8C213.2,26.9,212.2,23.9,210.4,21.4
		z M26.2,40.3v0.3h-2.4c-2.2,0-4.5-0.3-7-0.7c-2.5-0.5-4.7-1.2-6.9-2.2C7.7,36.7,6,35.5,4.5,34c-1.5-1.5-2.2-3.3-2.2-5.2
		c0-3,1.2-5.6,3.4-8c2.3-2.3,5-4.2,8.2-5.8c3.3-1.5,6.8-2.7,10.6-3.5c3.8-0.7,7.3-1.1,10.5-1.1c4.1,0,8,0.2,11.9,0.6
		c4.9,0.5,9.6,1.2,14.4,2.3c6.9,1.5,13.8,3.5,20.7,5.8c1.4,0.5,2.8,1,4.3,1.5c-1.5,0.6-2.9,1.4-4.3,2c-0.6,0.4-1.3,0.6-1.9,1
		c-2.1,1-4.3,2-6.5,3c-4.5-1.3-8.8-2.3-13.1-3c-4.3-0.7-8.6-1.1-12.9-1.1h-0.7c-2,0.1-4.1,0.5-6.3,1.2c-2.5,0.8-4.7,2-6.9,3.5
		c-2.2,1.5-3.9,3.4-5.4,5.5C26.9,34.9,26.2,37.5,26.2,40.3z M28.8,39.8c0-2.3,0.5-4.1,1.7-5.6c1.1-1.5,2.5-2.7,4.3-3.6
		c1.7-1,3.6-1.7,5.7-2.2c2-0.5,4-0.7,5.9-0.7h0.5c2.7,0,5.5,0.3,8.5,0.8c3.1,0.5,6.4,1.3,9.7,2.1C59,33,53,35.2,46.9,37.1
		c-6,1.8-12,2.8-18.1,3.2V39.8z M82.1,50.3c-1.2,0.5-2.4,0.8-3.5,1.2C71.3,53.9,63.9,55,56.3,55c-2.9,0-5.8-0.2-8.7-0.6
		c-0.2-0.1-0.4-0.1-0.6-0.2c-2.6-0.5-5.2-1.2-7.5-2.1c-2.5-1.1-4.6-2.4-6.5-4c-1.8-1.5-3.1-3.4-3.7-5.5c5.9-0.4,11.8-1.5,17.6-3.1
		c0.8-0.3,1.6-0.5,2.3-0.7c6.6-2,13.3-4.5,19.9-7.4c4.3,1.2,8.6,2.6,12.9,4.2c0.6,0.3,1.4,0.5,2.1,0.8c5.1,1.9,10.4,4,15.7,6.2
		C94.1,45.6,88.1,48.1,82.1,50.3z M92.9,32.8c-3.6-1.3-7.2-2.5-10.8-3.7c-1.5-0.5-2.9-0.9-4.4-1.4c1.5-0.6,2.9-1.3,4.4-1.9
		c0.6-0.3,1.4-0.6,2-0.9c2-1,4-1.9,6.1-2.9c4.5,1.7,9.3,3.5,14,5.5c3.5,1.4,6.8,2.7,10.3,4c1.4,0.5,2.7,1,4,1.5
		c-1.3,0.7-2.6,1.5-4,2.2c-0.4,0.2-0.8,0.5-1.2,0.6c-1.7,1-3.5,1.9-5.3,2.9C102.9,36.6,97.9,34.6,92.9,32.8z M182.4,54.4
		c-3.8,1.3-7.8,1.8-11.9,1.8c-3.5,0-7-0.2-10.6-0.6c-6.1-0.8-12.3-2.4-18.6-4.6c-8.8-3.1-17.7-6.4-26.8-9.9c-1.4-0.5-2.7-1-4.1-1.5
		c1.4-0.7,2.7-1.5,4.1-2.3c0.5-0.2,0.9-0.5,1.3-0.7c1.8-1,3.6-2,5.4-2.9c10.6,4.1,21.6,7.6,32.8,10.5c2,0.5,4,1,6,1.4
		c9.4,1.9,19.2,2.9,29.4,2.9h1.6C189,51.1,186.2,53.1,182.4,54.4z M206.2,38.8c-3,2.3-6.6,3.5-10.7,3.8v-0.5c0-6-2.3-11-6.8-14.9
		c-4.5-3.9-10.1-5.8-16.8-5.8c-1.4,0-3,0.2-4.7,0.5c-1.7,0.5-3.4,1-4.7,1.7c-0.9,0.5-1.7,0.9-2.5,1.5c-0.4,0.4-0.8,0.7-1.2,1.2
		c-0.9,1.1-1.4,2.5-1.4,4.1c0,0.5,0.1,1.1,0.5,1.8c0.3,0.8,0.8,1.3,1.6,1.3c0.2,0,0.4-0.1,0.5-0.1c0.7-0.2,1.4-0.6,2.1-1.4
		c0.8-1,1-1.8,0.4-2.6c-1-1.5-0.3-2.7,2-3.8c2.3-1.1,4.8-1.6,7.5-1.6c2.1,0,4.4,0.4,6.8,1.2c2.5,0.8,4.7,1.9,6.8,3.5
		c2,1.5,3.8,3.4,5.2,5.7c1.5,2.3,2.2,4.8,2.2,7.7v0.7h-0.5c-11.4,0-22.1-1.4-32.5-4c-0.1,0-0.2,0-0.4-0.1
		C149.2,36.2,139,33,129,29.3c8.6-4.6,17.2-8.6,25.9-11.9c1.7-0.6,3.4-1.2,5-1.6c7.2-2.3,14.6-3.4,22.2-3.4c3,0,6.3,0.4,9.6,1.1
		c3.5,0.7,6.5,1.8,9.3,3.4c2.8,1.5,5.1,3.4,6.9,5.7c1.8,2.3,2.8,4.9,2.8,8C210.8,33.8,209.2,36.7,206.2,38.8z"/>
</g>
</svg>
