<svg xmlns="http://www.w3.org/2000/svg" width="401" height="342" viewBox="0 0 401 342">
  <defs>
    <style>
      .cls-1 {
        fill: #bd9658;
        fill-rule: evenodd;
      }
    </style>
  </defs>
  <path id="Shape_2_copy" data-name="Shape 2 copy" class="cls-1" d="M1864.48-92.621c-2.01,1.64-3.41,1.022-6.01.759C1859.31-94.962,1861.8-92.041,1864.48-92.621Zm0,86.166c-0.53,2.742-5.48,1.049-8.26,1.516C1856.74-7.677,1861.7-5.976,1864.48-6.455Zm-5.26-91.46c0.83,1.128-6.13.868-8.27,1.511C1851.04-99.585,1856.72-97.148,1859.22-97.915Zm0.75,9.832c-3.49,2.667-12.59.943-18.06,1.506C1845.02-90.01,1854.38-87.145,1859.97-88.082ZM1857.71-.41c-12.1,3.122-19.31,1.315-28.59-.747C1836.67-1.737,1847.84.347,1857.71-.41Zm-5.26-7.549c-0.47,1.871-1.67,1.46-4.51,2.263V-7.959c-9.14-1.4-18.3.842-33.11-2.272-6.34-1.326-14.21-3.084-18.82-6.8C1816.11-10.89,1835.75-10.347,1852.45-7.959Zm0,3.021c0.56,2.32-2.07,1.45-1.5,3.781-1.99.223-.61-2.932-3.01-2.269C1848.02-5.364,1850.46-4.927,1852.45-4.938Zm-0.76-104.317c-12.04,2.549-17.44,2.577-32.35,3.786C1830.84-109.071,1837.6-109.537,1851.69-109.255Zm0,25.708c-1.87,1.343-14.53,3.361-17.3,0C1838.08-82.159,1844.57-84.207,1851.69-83.547Zm0,68.782a1.146,1.146,0,0,1-.74,1.508c-10.58-2.765-14.3,1.449-22.58-1.508C1835.58-16.432,1843.78-15.758,1851.69-14.765ZM1850.2-180.3c2.21,1.3-1.72,2.748-3.78,2.266C1846.07-180.415,1849.88-178.6,1850.2-180.3Zm-5.28,102.048c-5.9,1.371-14.05,3.59-19.55,0C1833.81-77.086,1837.09-79.682,1844.92-78.255Zm-5.27-90.71c0.71,2.733-2.97,1.055-4.51,1.511C1835.23-169.383,1837.65-168.949,1839.65-168.965Zm0,81.633c-0.29,1.329-7.25,3.136-7.51-.75C1835.28-86.084,1837.9-88.9,1839.65-87.332ZM1838.91-379.1c-2.67,3.845-6.77,3.176-12.04,5.285C1830.46-378.173,1833.81-376.737,1838.91-379.1ZM1835.14-72.97c-0.95,2.4-7.8-.137-12.04.758C1823.98-73.767,1831.7-74.165,1835.14-72.97Zm-6.77,99.776c3.07,10.191-5.14,19.466-12.05,19.659C1822.3,41.879,1828.3,37.307,1828.37,26.806Zm-2.26,192c-9.01,2.241-16.25-3.824-23.32-6.049C1810.22,212.09,1817.14,218.475,1826.11,218.805Zm-7.52-384.749c-0.08,1.59-9.07,2.9-10.54,0C1811.47-164.866,1813.88-166.4,1818.59-165.944Zm-1.51-205.592c-0.08,1.931-2.52,1.494-4.52,1.506C1812.65-371.961,1815.08-371.525,1817.08-371.536Zm-3.76,342.409a1.172,1.172,0,0,1-.76,1.517c-25.97,4.695-47.59-6.092-51.92-27.972,7.31,10.686,13.63,22.852,28.6,26.455C1795.97-27.51,1804.41-28.405,1813.32-29.127Zm-9.04-130.764c-1.74-1.016-4.26-1.251-6.01-2.273C1799.86-163.966,1804.66-162.58,1804.28-159.891Zm-3-88.441c-0.36,1.049-6.78,1.838-6.02-.753C1798.1-249.669,1798.86-248.164,1801.28-248.332Zm-4.52-47.617c0.64,5.174-.43,8.637-3,10.579-2.89-.63-5.65-1.385-6.02-4.535C1795.14-287.51,1793.35-294.337,1796.76-295.949Zm-1.5,570.682c-1.34-24.7-6.94-50.732-18.05-68.029,5.49,2.543,8.09,14.544,12.03,21.167,0.42,5.255,4,10.92,3.01,15.118,0.19,0.822,1.5.506,1.51,1.511C1794.98,254.905,1796.04,263.988,1795.26,274.733ZM1783.22-66.926c-9.42-1.382-17.04,3.5-21.82,9.08C1762.44-67.967,1776.58-71.067,1783.22-66.926Zm-6.01,321.253c3.83-19.528.42-38.088-4.52-54.425C1780.89,214.723,1784.16,241.411,1777.21,254.327Zm-6.03-494.338c-6.07,7.454-18.06,14.29-27.84,12.088-5.09-1.148-16.56-11.281-18.81-16.629,9.01,5.23,22.78,12.144,36.11,9.074C1764.68-236.407,1766.85-240.078,1771.18-240.011Zm-29.34,343.164c-2.79,1.445-6.76,5.028-10.53,3.022C1734.58,104.935,1737.58,103.408,1741.84,103.153Zm-81.27-368.114h-2.26c1.75-6.413,8.69-7.764,9.03-13.607,1.35-.092,1.59.926,3.01,0.758,15.19-6.379,24.23-14.787,45.89-15.117a7.514,7.514,0,0,0,4.53-2.269c1.51,3.612,8.31,1.127,9.78,3.779-28.27-3.791-41.74,7.474-60.94,15.871C1667.04-271.564,1661.59-270.493,1660.57-264.961Zm66.97-20.409c-1.67,3.377-9.41.619-13.55,1.517C1715.93-287.222,1723.64-286.156,1727.54-285.37Zm-1.5,211.642c-4.74,6.833-11.77,12.784-15.05,21.167-0.71,1.8,1.7,5.2-2.26,5.294C1710.86-59.738,1717.46-67.718,1726.04-73.728Zm-7.53,27.219c-2.28.02-1.88-2.65-2.27-4.541C1718.78-51.321,1717.5-47.776,1718.51-46.509Zm-9.03,6.044c-2.03.207-2.14-5.325-.75-6.044C1711.56-47.007,1710.14-41.217,1709.48-40.465Zm-4.51-83.9c-7.34,1.469-20.48-19.892-8.28-27.208C1690.34-141.144,1696.48-128.573,1704.97-124.37ZM1703.46,7.911c0.22,1.226-.71,1.3-0.75,2.266-7.79-1.321-11.97-15.63-6.02-23.433C1696.95-6.2,1694.95,5.5,1703.46,7.911Zm-10.54-340.9c-1.05,5.5-8.71,10.9-13.54,15.123C1682.38-324.428,1688.01-328.354,1692.92-332.992Zm-9.77,371.136c0.86-3.48,2.09-4.505,0-7.549C1690.92,29.313,1690.08,41.745,1683.15,38.144Zm5.26,115.651c-1.37,3.07-4.66-4.166-6.77-5.291C1684.17,147,1686.43,152.234,1688.41,153.795Zm-12.79-112.63c-14.3,1.522-25.77-10.394-27.84-21.161,3.54,5.014,6.55,10.556,11.29,14.359a2.08,2.08,0,0,0,1.5-2.264C1660.75,38.561,1670.42,39.257,1675.62,41.165Zm-27.84-21.92c-1.92-2.269-6.21-9.661-2.26-12.846C1644.94,12.024,1647.31,14.68,1647.78,19.245Zm-1.51-323.51c-2.95-1.57-4.6-4.443-6.02-7.561C1642.69-309.73,1645.77-308.291,1646.27-304.265Zm-2.25,30.994c-2.78,6.536-5.44,13.174-10.55,17.381C1637.12-261.57,1639.2-268.8,1644.02-273.271ZM1622.94-206v3.027c-0.54-2.476-5.44-.576-5.27-3.78C1620.06-207.125,1620.34-205.4,1622.94-206Zm-6.01-1.511c0.71,2.734-2.97,1.055-4.51,1.511C1611.7-208.731,1615.38-207.058,1616.93-207.514Zm-4.51,99.023c-15.01-5.087-29.26-17.477-39.13-30.233,7.56,5.017,16.7,14.942,24.82,21.914C1604.09-115.259,1607.08-110.694,1612.42-108.491ZM1576.29-7.2c-1.09,11.959-5.04,31.822-2.26,42.326C1568.51,22.541,1572.19,4.956,1576.29-7.2Zm-8.27,65.757c-1.41,2.328-3.58-.87-3.01-3.022C1566.95,55.6,1566.08,58.48,1568.02,58.553Zm-0.75-29.475c-4.18,6.394-2.56,18.68-2.26,25.7-3.67-2.127-.31-11.282-4.52-12.852-2.2,5.619-7.79,4.318-10.54,8.305-0.54-8.87,10.36-12.779,12.8-21.154C1565.58,31.263,1564.43,31.263,1567.27,29.077Zm-6.03-219.2c-3.15,1.049-5.1-11.923-6.01-18.145C1558.6-203.6,1557.91-194.839,1561.24-190.127Zm0,74.076c-2.92.4-5.99-5.546-7.52-9.074C1557.83-123.715,1558.47-118.808,1561.24-116.051Zm-2.25,40.817c-2.78,5.688-9,9.93-9.04,17.387-0.02,6.408,4.9,8.548,6.78,14.354C1542.98-47.108,1548.25-72.491,1558.99-75.233Zm-12.04-30.235c-12.4-1.648-21.61-13.073-28.59-22.679C1528.09-120.8,1534.98-110.581,1546.95-105.469Zm-61.71-50.645c-2.51-1.491-2.81-5.227-3-9.071C1484.63-163.551,1484.36-159.262,1485.24-156.114ZM1762.91,15.471c0.89-1.192-3.78-3.224-3.77-6.044,6.58-9.354-.42-21.861-9.77-24.192A69.713,69.713,0,0,1,1744.1-5.7c-7.8,1.021-6.83-6.744-11.29-9.069-11,1.551-17.17,7.953-20.32,17.387,0.27,2,3.83.681,4.51,2.267,0.39,3.643-3.27,10.638-11.27,7.554,0.84-3.17,5.83-2.179,8.26-3.778-4.15-3.422-20.03-5.769-11.28-18.145,0.98,3.293-.88,10,3.76,11.346-2.8-16.57,13.37-20.235,26.34-23.433,1.03,3.5,2.91,6.138,4.51,9.066,13.67-13.2,27.9,2.52,34.62,13.606,1.01-.235.61-1.883,0.75-3.021,2.04,0.223,1.33,3.184,3.01,3.783-1.05-21.55-28.76-30.342-53.43-25.705,1.59-5.375,10.94-1.181,16.55-3.772,12.55,2.512,23.8,6.321,32.36,12.846,9.81,7.4,13.82,38-2.26,39.3-3.33.268-6.86-2.642-10.53-3.78-1.78.213,0.86,2.02,0.75,3.033,10.72,9.726,26.74-6.268,24.08-18.151-1.76-7.921-7.11-16.9-13.55-23.425-3.75-3.813-8.94-5.632-13.54-8.313-3.44-2.014-5.65-4.6-11.29-5.3-6.35.409-22.12,0.24-30.09,3.028-1.96,2.434-9.06,5.265-12.79,8.321,0.71-4.829,9.92-7.672,15.04-10.588-3.89-2.616-6.05,2.969-10.53,2.267,6.44-7.37,18.45-7.866,28.59-9.83-6.35-4.879-20.33,1.276-28.59,5.3,5.13-6.953,16.01-8.108,27.09-9.071-4.2-6.908-14-.3-21.07,0,1.67-2.862,6.54-2.5,9.78-3.779-1.57-23.423,13.27-40.95,32.36-48.382-10.29-4.015-24.93-4.871-29.35-16.623-3.62,1.93.11,2.107-2.25,5.291-27.15,13.268-58.93,8.052-83.53-5.291,1.57,3.463,10.07,6.5,15.81,8.307-2.71,2.258-5.57-2.222-7.53.767-36.72-10.988-62.74-39.838-75.25-74.837,3.82,3.985,7.37,14.768,11.28,21.165,13.6,20.627,30.19,38.218,54.19,48.378-20.49-14.435-41.17-28.689-51.17-53.672-0.21-1.55-2.01-1.506-3.02-2.261-11.33-29.774-19.08-88.617,18.07-99.026-19.21-9.114-41.39,15.339-40.64,38.555,1.18,0.573,1.13,2.4,3.02,2.263,1.43,6.513,1.04,10.182,1.49,17.387,0.43,2.7,4.92,4.161,3.02,6.805-2.21-.3-2.55-2.482-4.51-3.022-0.16-13.965-9.37-18.822-12.8-29.477-15.94,11.351-2.49,39.679,9.03,47.608,2.87-1.247-1.93-4.963,0-5.285,14.2,36.881,35.41,66.728,69.23,83.9-19.58-6.794-32.97-19.8-44.4-34.771-3.83-.171-5.49-2.53-8.28-3.772-3.45-.291-11.1,2.631-14.29-0.761-1.54.224-1.48,2.043-3.01,2.267,4.18,5.385,7.34,11.777,12.79,15.87,0.4-4.183-6.99-7.076-8.27-12.093,8.82,6.494,13.44,17.244,24.82,21.17-0.02.73-.92,0.579-1.49,0.747,1.05,1.545,2.59-.736,4.5.764-0.18.82-1.49,0.506-1.5,1.51,11.13,9.245,38.35,11.341,57.93,12.846,2.72,0.216,5.5,2.009,8.28,2.272,15.75,1.444,31.63,1.2,43.66,1.505a32.388,32.388,0,0,0,3.75,3.027c14.21,0.143,28.11-.173,40.63.759-14.88,3.8-33.64-2.687-46.65,3.019-0.98-.263-1.18-1.329-2.26-1.511-7.23,3.2-16.41,3.445-24.82,5.295C1648.07-80,1632.06-74.5,1616.93-60.877c-2.29,2.06-3.4,5.093-6.02,7.563-2.74,2.571-8.01,6.844-11.29,12.1-8.55,13.682-9.72,40.305,7.52,48.367,1.01-.75,2.28-1.237,3.01-2.261-6.39-4.917-13.13-9.483-13.54-20.412,3.1,13.014,22.76,29.688,30.85,11.341,1.61,3.07.27,6.489-.76,9.072,0.22,1.782,3.34.458,3.02-.756,1.62,8.929-14.72,11.514-22.58,6.8-5.4-7.356-13.14-10.109-15.05-19.656-5.38-27.079,14.63-43.921,27.85-58.208-15.27,9.058-26.19,22.3-33.11,37.8-0.56,2.326,2.06,1.449,1.51,3.778-4.53,21.732,8.27,42.838,30.85,44.6,3.45,0.328,4.16-5.313,6.77-1.505,9.82-5.148,11.27-20.014,4.52-27.22-1.29-.271-1.43.593-1.52,1.52-1.06-15.726,9.38-30.32,18.06-40.063,6.44-7.225,15.72-11.909,21.83-17.388-22.78,11.131-39.29,28.565-43.64,58.205a2.832,2.832,0,0,1-3.01-3.027c-1.47,1.306-2.44,3.1-6.03,2.272-0.88,1.18,2.4,4.613,5.27,4.532-7.69.917-11.92-8.182-17.3-12.1,0.1-6.15-2.52-9.569-1.51-16.626,5.45-13.431,12.76-24.984,27.09-29.478-10.92,7.571-13.48,19.947-16.56,30.988,1.98-1.032,2.82-3.223,3.01-6.052,1.67-.411,1.08,1.452,2.26,1.519,15.88-37.328,57.25-57.922,103.84-50.644-0.07,3.03,5.48,3.733,5.27,9.071-14.84,1.223-23.82,8.325-33.11,15.118-2.25,9.667-9.48,22.718,0,30.228,0.64-19.516,10.83-33.264,25.58-40.812-4.66,5.906-13.08,8.019-15.04,16.629-2.61.168-2.46,3.078-4.51,3.78-1.18,6.676-6.91,19.027-.76,21.914,1.89-2.37-.26-8.82,1.5-11.329,0.75,4.225,1.74,10.727,1.51,13.607-5.44-.387-16.27.7-18.82-9.08-14.04,10.451-31.32,30.068-22.56,49.889,2.6,3.175,6.96,4.591,10.53,6.805,2.12-2.393,4.62-4.433,6.77-6.805,20.23-2.7,32.1,13.072,24.08,31.749,6.7-.582,9.43-11.682,18.06-12.849,1-.5,1.4-1.617,1.5-3.022,7.99-2.341,17.01-5.823,27.1-3.783,5.69,2.96,8.02,12.471,3,18.137,8.95,3.691,22.99,5.222,22.58,20.411-3.24,2.55-6.08,5.49-10.54,6.805,1.77,4.773,7.07,6,10.54,9.071-0.89,4.575,4.2,9.262,6.76,12.849,5.81-3.5,10.03-5.136,18.82-4.538,9.4,9.013,17.06,17.966,15.04,33.263-3.02,22.905-28.11,35.236-49.66,37.029-0.29,3.07,4.69.837,6.78,1.52-4.87,3.424,7.9-.71,12.79.758-1.19,2.754-7.29-.576-10.53,1.511,14.72,3.763,28.39,6.841,41.37,13.6-12.06-1.491-25.76-7.871-39.88-9.826,9.45,6.144,21.67,9.49,31.61,15.123-9.93-1.15-28.79-6.349-38.38-12.848,3.94,6.2,9.21,6.39,16.57,9.068,9.61,9.262,30.68,14.172,43.64,4.539-8.13-13.219-23-20.356-42.9-19.657,17.97-4.443,36.88,6.425,45.89,18.14,0.7,3.452-1.24,4.284-1.49,6.8,17.53,6.85,31.31,18.837,34.62,37.8-2.06,4.482-1,12.091-5.28,14.354-3.79-5.694-3.37-11.687-6.77-16.623-5.07-7.357-14.19-8.632-20.31-12.852,4.92,5.289,11.94,9.9,14.3,19.656-3.37-.912-4.37-4.188-4.53-8.315-4.74-4.307-10.93-7.161-13.53-13.607,12.77,1.405,22.29,6.914,29.34,17.387,3.4-4.983-4.55-10.828-6.77-15.121,2.59-.087,1.92,3.109,4.51,3.028-0.52-3.761-5.69-2.851-5.27-7.558-9.67-4.393-16.97-14.944-29.34-12.1,10.17,7.036,23.17,7.213,29.34,17.384-11.54-8.4-26.6-12.3-42.88-17.384-0.1-1.354.91-1.592,0.76-3.025-18.03-3.067-31.4-10.795-45.92-17.384,13.97,14.441,34.64,22.157,55.69,29.474-30.11-4.026-53.88-25.457-76.75-41.565,10.38,9.981,21.11,19.606,30.84,30.233,0.77-.49.78-1.737,2.27-1.517-1.74,6.747,8.2,13.6,12.04,19.651a1.164,1.164,0,0,1,.75-1.505c2.38-2.443-3.82-2.678-3.01-6.049,2.98,1.533,5.17,3.875,9.03,4.538,10.61,13.856,27.55,28.322,50.41,24.945-3.18,4.782-7.19,4.247-13.54,5.288,12.39,2.521,21.05,10.358,24.84,23.428-3.2,1.326-3.27,5.8-5.27,8.321,10.15,1.248,11.9,12.857,9.77,24.19-1.46,1.55-4.84,1.18-6.77,2.263,2.89,7.538,6.44,21.355.75,28.719-0.47,6.268.37,11.215,3.01,14.371,3.23-.481,4.86.661,6.02,2.249-0.2,1.568-2.8.717-3.01,2.273-14.88-6.2-25.88-16.33-31.6-31.739-3.87-.6-5.71.806-8.28,1.512-7.26-5.535-15.98-10.213-16.56-20.407-13.94,10-18.37-14.164-19.56-24.192-12.88,10.283-28.8-13.238-16.54-27.211-6.98,2.855-20.15,6.279-22.59-5.288,2.29-3.512.83-10.772,6.78-10.582,1.62,2.985-.12,5.509-2.26,6.8,0.92,3.108,4.12,3.939,6.77,5.288,3.24-2.546,5.19-6.382,8.29-9.072,4.63-22.526-3.91-38.954-13.55-52.9,7.16,6.623,12.74,17.208,16.56,27.206,0.8,2.112-1.95,6.651,3,6.049-1.21-3.324-3.32-5.739-3-10.582,5.92,11.155,5.59,32.485,1.49,45.35-2.51,7.919-6.21,21.128,5.28,23.432,7.03-.742,5.45-10.141,9.02-14.363,6.02,7.6-1.36,30.65,12.79,36.283,3.37-1.16,4.04-5.029,6.03-7.556-0.4-21.217-7.12-46.61-15.81-64.254,5.47,8.12,9.47,17.7,14.3,26.458-2.73.731-.64-3.4-3.01-3.027,9.11,19.505-1.2,58.907,20.32,66.524,2.42-1.1,1.97-5.073,3.01-7.56,3.62-.367-1.5,4.356,2.25,4.532,1.9-11.814-6.24-26.425-11.29-36.285-0.99,8.822,4.09,18.07,3.76,28.73-4.49-18.159-8.73-36.573-15.04-52.914,4.58,5.238,5.73,13.9,9.02,20.415,20.01,20.493,12.99,59.442,42.15,71.037-2.35-7.9.66-20.859,1.5-27.955-2.73-.722-1.05,2.976-1.5,4.532-6.68-5.134-4.7-18.956-12.8-22.677,2.06,8.567,9.09,18.559,9.78,30.991-4.07-8.51-6.14-19.024-10.52-27.209-2.37,9.3,8.64,21.94,9.03,30.991-9.04-13.607-12.04-33.277-21.83-46.1,0.25,9.329,6.88,18.781,8.28,29.475-8.79-21.657-15.9-45-30.11-61.227-1.13-8.364-12.44-26.867-18.04-34.772-14.78-20.812-35.51-38.906-54.93-54.422-1.78.014-2.23-1.3-4.53-.752-0.71-2.057-2.7-2.826-3.75-4.539-18.07-4.528-27.9-17.331-42.9-24.942-1.19-2.359-3.43-6.748-6.77-4.538,8.36,10.5,21.31,16.377,30.85,25.7,8.37,3.948,17.86,6.74,22.57,14.365,3.69-.679,3.55,2.5,7.54,1.511,17,13.115,38.63,42.127,24.07,70.287-2.48-.428-1.08-2.854-0.76-4.527-2.82-.422-2.89-3.635-4.51-5.291,7.64-15.737-2.09-35.438-11.28-43.84,1.12,7.088,2.63,24.486-6.78,25.7,6.4-4.785,7.54-17.639,3.76-26.461-7.39-2.141-7.6-11.5-14.29-14.357,0.2,4.594,6.72,9.365,9.03,14.357-0.28,8.928-2.07,20.484-10.53,23.434,9.86,2.084,16.79-12.485,12.03-22.673,5,1.586,3.37,8.858,3.02,11.335-1.86,12.983-15.83,17.908-30.1,12.848,4.24,6.825,20.63,5.208,27.08,1.517-7.05,8.783-24.14,5.448-30.85-.758-3.09-6.466-9.76-9.334-8.28-20.409,2.18,2.185,2.36-1.472,5.27-.761,1.13,0.9,1.17,2.865,2.26,3.782,3.77,0.269,3.96-3.077,6.77-3.782-0.93-15.817-14.49-18.112-20.31-27.206,12.05,7.5,29.13,18.425,19.56,38.549,9.78-.674,13.73-7.639,10.53-16.626-6.04-17.054-32.14-26.883-39.12-40.821,7.35,5.207,12.55,12.586,20.31,17.387-0.44-2.725-1.01-4.815,2.26-5.291-1.63-5.2-5.41-3.6-8.27-7.558-1.33.183-1.72,1.3-1.51,3.025-6.24-1.3-2.13-9.3-9.03-10.585-2.11.9-3.69,2.342-6.77,2.267-2.73-5.574-6.92-9.687-10.54-14.36-3.76,2.526,2.43,6.088,2.27,9.83-2.66-2.13-4.16-5.4-6.03-8.322-1.26,20.93-38.1,26.632-34.62-3.021-2.61-2.373-7.35-9.1-3.75-12.852,0.33,17.465,20.23,10.081,19.55-3.775,5.69,8.789,1.1,21.044-9.03,21.92,0.71,6.329,6.81,1.021,10.54,3.022,4.22-2.076,3.93-8.66,6.78-12.093,0.48,8.045-2.99,12.11-7.53,15.121-2.28-.233-2.69-2.342-6.02-1.517,12.07,12.3,19.31-12.888,12.8-24.942,7.54,10.166,5.03,20.158-.77,30.233-6.71.011-14.26-.5-18.06-5.291-2.15,4.206,4,6.564,6.03,9.069,22.61,1.9,22.33-18.039,18.81-31.747-2.83-3.195-6.62-5.439-7.52-10.58-2.16-1.863-6.45-1.584-5.27-6.8,1.6-2.353,3.35-.162,5.27-1.517a37.038,37.038,0,0,1-1.51-6.805c-5.12-1.113-4.23,3.812-8.28,3.783,0,9.858-.85,22.6-12.79,22.673,0.52-8.509,7.13-10.9,6.78-18.893-0.12-2.877-2.02-7.765-3.01-10.585-4.07-11.436-12.2-23.028-14.31-34.016-4.35,4.446-7.77,9.833-13.53,12.849-5.7-2.944-9.71,1.5-9.79,8.318,3.98,4.317,8.22,8.388,15.8,9.074-0.99,1.511-3.33,1.679-5.26,2.264-0.27,1.287.58,1.429,1.5,1.511-13.41,4.39-35.49-1.782-39.12-18.132,6.76,10.835,16.57,18.624,34.61,18.132-14.24-6.841-26.25-21.15-28.59-42.323,4.26,10.322,6.95,22.25,14.3,29.475,7.9-11.072-2.62-27.947-5.27-40.06,0.66-1.85,2.25-2.776,1.49-6.05-3.57-1.082.58,5.627-3,4.544-0.45-1.81.94-5.484-.75-6.049-1.54,15.647,2.67,23.938,7.53,36.28-4.53-2.314-7.1-8.89-8.29-14.36-3.51-16.259-1.09-35.628,2.26-54.425-2.21,1.8-.42,7.642-5.27,6.805,5.08-17.331,12-32.8,22.58-44.6-18.33,13.584-30.85,39.559-33.86,71.054,1.19-48.2,27.78-77.405,62.45-94.485-32.52,9.92-53.08,38.4-68.47,68.032,4.51-10.84,9.14-21.559,16.56-29.484-2.52-3.151-7.56,4.757-10.54,3.783-10.91,7.09-19.75,13.336-27.09,24.942a67.194,67.194,0,0,0-1.5,11.34c10.95-1.718,17.15-3.556,23.32-9.826a109.673,109.673,0,0,0-7.52,37.038c-2.15-7.65.75-22.1,3.76-29.486-12.54,5.554-21.61,31.027-10.54,46.117-10.56-4.485-6.4-27.972-3.76-35.527-5.2-1.443-3.4-5.226-7.52-7.56-0.46-20.462,16.25-29.273,29.34-38.549,0.33-1.908-3.93-3.013-1.5-4.535,1.47-2.952,5.45-.451,4.51-4.538,16.55,4.332,21.35-10.392,30.85-18.143,11.95-9.734,24.9-15.138,42.89-20.406-3.91-2.4-7.62,1.894-12.79.75-18.93,9.452-38.34,18.428-51.91,33.263,9.62-14.256,24.98-22.773,42.12-29.474-21.11,1.455-37.89,13.839-51.92,24.942-1.73,3.285-1.41,8.637-5.26,9.821-1.92-6.343,2.73-12.269,6.02-15.873-5.99,1.03-5.45,8.635-10.53,10.584,5.87-17.77,22.44-24.824,36.87-34.012-15.9,5.694-29.16,14.052-37.62,27.211,6.87-19.3,29.45-29.366,53.42-34.016-19.44-2.563-40.95,8.07-51.16,23.434-1.42-4.205,5.04-7.009,6.77-10.58-2.21-.207-2.32,1.7-4.52,1.511,2.28-5.532,11.82-3.747,14.29-9.069-19.95,4.9-36.68,13.033-36.85,37.793,5.13,7.048,3,18.439-2.28,24.181-11.42.47-23.41,6.494-22.57,16.632,0.48,5.736,5.96,5.439,7.53,11.335-9.76-2.056-22.03-6.033-24.08-18.139,4.34-.322,2.54,5.512,5.27,6.8,12.18-13.932,14.77-37.223,21.07-55.18-6.59,4.972-11.7,20.317-12.8,30.988-1.48-23.274,16.01-42.74,33.11-53.658-18.35,8.537-35.54,24.76-42.13,47.615,4.21-28.355,30.56-44.768,51.92-55.93-8.57.786-19.57,1.049-28.6,3.019-16.04,3.5-29.87,12.992-47.41,13.61,22.23-5.655,39.51-16.254,64.72-18.9-26.52-3.813-50.1,9.7-76.75,14.365,15.04-5.042,28.73-11.444,45.9-14.365-8.31-.4-17.09-2.409-19.57,3.783-7.01-3.878-13.64,2.5-21.81,3.778,3.29-3.744,8.93-5.129,13.54-7.56-17.05-1.072-34.71-3.489-59.44-1.511-0.53-4.835,3.47-1.343,5.25-1.505,7.27-.685,17.8-0.086,27.85,0,7.48,0.062,14.89-1.511,21.07-.761a45.943,45.943,0,0,0,11.29,0c-3.49-3.8-16.1-1.609-20.32-6.8,7.1,1.6,17.79,3.062,24.84,2.261a168.175,168.175,0,0,0-21.83-7.555c12.16-1.046,27.15,7.953,42.14,9.069-11.46-4.908-22.79-9.427-34.62-12.091,4.56-4.974,15.2,5.943,22.58,3.022-1.39-2.638-5.85-2.179-7.52-4.538,8.82,0.753,16.95,10.053,27.82,9.077-0.16-1.332-1.28-1.726-2.99-1.511,13.19-.162,29.26,5.772,38.37,6.041-0.4-3.884-2.93-2.2-5.27-3.02-6.32-5.492-12.04-11.575-19.55-15.873-7.32-12.057-17.28-21.441-20.33-37.8,2.76,0.521.82,5.734,4.53,5.3-2.81,4.933,4.98,11.355,7.51,15.868-3.37-7.8-7.78-17.146-9.03-28.722,5.1,8.22,6.56,20.115,12.79,27.211-2.29-8.347-3.3-19.866-6.77-29.48,1.67-1.125,3.59,3.936,4.52,6.052,0.77-.5.78-1.74,2.25-1.511,0.21,1.973-.28,3.248-2.25,3.022,2.66,8.817,2.14,14.609,5.26,21.917,0.9-12.171,1.93-22.611-3.77-30.233-3.66-4.925-11.73-7.11-13.53-14.359,0.1-3.7.72-5.129,0-7.561-8.27,1.259-11.51,7.585-16.56,12.09-0.48,2.546.98,7.024-.75,8.318,7.28,13.851,14.88,27.391,22.58,40.819-11.19-11.942-15.96-30.342-30.85-38.554-2.39-.123-2.52,2.006-5.27,1.51,2.5-4.846,4.83-4.051,11.29-3.775,2.68-13.449,14.51-25.489,30.09-25.7-1.5,2.28-3.22,4.32-6.02,5.291-2.87,20.8,21.17,17.393,24.08,34.769,1.14,6.8-2.7,11-1.51,19.656,0.98,7.082,7.36,10.036,9.78,16.629,3.11-4.351-1.72-9.905-.74-15.123,1.07-5.717,7.03-7.925,10.53-11.333,0.31-1.821-1.37-1.646-.75-3.78,1.2,1.3,2.27,2.748,5.27,2.264-13.5-10.25-29.42-21.674-32.35-40.06,4.7,4.84,6.31,12.793,9.77,18.9,10.82,9.8,20.95,20.263,37.62,24.183-6.34-11.508-11.82-23.886-17.3-36.279-10.4-1.861-15.5-5.07-27.84-7.561a13.978,13.978,0,0,1,15.05-2.263c-7.38-12.513-9.83-35.888,1.5-43.84,2.77,2.865,2.83,11.274,8.28,9.066,1.85-24.936,24.6-51.157,51.92-37.038-7.25,5.087-19.98,3.623-16.56,15.876,1.21,4.326,6.39,3.033,10.54,7.555,4.57,4.986,5.81,15.157,4.51,23.434,6.25-2.544,4.52-13.106,6.77-19.654,3.07-2.96,3.97-8.114,6.03-12.088,1.57,3.613-1.75,8.8-3.01,12.088,5.93-5.632,7.1-16.035,14.28-20.406-2.93,6.377-7.81,10.795-9.02,18.9,4.84-6.226,8.64-13.484,12.8-20.415,1.46,4.477-6.11,12.362-6.77,19.66,4.34-6.215,7.98-13.129,12.03-19.66-0.68-2.748-4.25,1.578-4.51-.752,2.69-3.842,5.07-8.019,8.27-11.344,3.3,1.246-5.93,5.7-2.25,9.827,2.42-2.342,3.9-5.643,6.02-8.31-3.48-5.356,1.82-9.97,5.27-12.846,0.01,4.158-5.28,4.9-3.01,9.068,3.71-1.558,4.96-5.59,7.51-8.321-1.23-2.989-2.02-1.55-4.5-.747a154.5,154.5,0,0,1,28.58-30.241c-2.84,5.705-8.99,8.1-12.03,13.606,0.26,1,1.32,1.19,1.5,2.27,7.23-4.127,11.54-12.44,12.79-20.409,0.36-1.618-1.07-1.438-2.26-1.517,12.62-17.309,33.77-26.041,46.66-43.084-2.5,6.816-9.09,9.525-12.04,15.879,13.31-6.249,26.1-25.86,16.55-41.571,1.31,7.342,2.49,19.547-3.75,24.942,5.56-9.321,5.28-27.9-9.04-27.214-7.01.33-9.87,6.819-14.29,11.338,0.13,0.612.75,0.755,0.75,1.516,4.74-3.4,9.55-8.654,16.55-3.783,1.3,2.723,1.74,6.313,1.5,10.585-8.87,5.952-11.78,17.886-21.05,23.431,4.17-6.623,9.6-12.009,14.28-18.145-0.25-2.776.65-6.69-.75-8.311,0.33-3.31,1.6,1.425,3.77-.755a9.1,9.1,0,0,0-5.27-5.3c-4.89.131-4.32,5.741-10.54,4.538a20.756,20.756,0,0,1,24.83-23.431c8.05,5.8,16.81,17.141,12.05,30.994,3.39,0.132,1.85-4.692,6.01-3.783,0.94-7.56,12.34-19.343,10.53-33.255-1.12-8.713-6.66-18.671,4.53-21.169,2.5-.563,4.82.53,7.52,1.516,2.24-.014-1.06-5.607,2.26-4.539,0.13,3.381.81,6.237,3,7.561-1.89,2.577-2.37-2.6-3.76-3.022,1.25,6.1,5.16,19.953,2.25,30.235,9.35-5.481,7.43-22.289,11.3-33.257a67.053,67.053,0,0,1-6.03,31.741c5.02-7.818,11.48-15.478,15.05-24.942,4.18-11.069,5.01-23.582,9.79-34.771-4,39.639-25.12,68.443-49.67,89.946-1.08-.168-0.26-2.252-1.5-2.261-2.01,0-1.63,2.384-3.76,2.261,0.63,2.222,1.89-.98,3.76,0,0.23,1.746-2.17.842-2.26,2.272,13.65-6.2,27.24-19,36.12-32.5,8.85-9,15.93-19.779,21.82-31.741,1.49-.014.96-2.068,3.01-1.517,5.16-14.978,13.65-26.609,18.07-42.329-5.76-1.119-2.26-14.068-9.04-17.381-10.67,1.113-11.77,11.85-12.04,23.431h-3.77c-0.84-2.454.06-10.415-4.5-11.343-14.24,7.148-5.54,23.965-9.79,38.554-1.85-1.436-2.93-4.108-6.02-2.267,2.36-2.507,3.75-10.252-.74-11.337-9.59,1.08-14,10.979-12.05,21.156-6.29-7.7,2.68-18.719,4.51-25.7,5.52-2.509,10.19-.487,13.55,3.022-1.88-11.744,5.56-33.213,16.56-24.189,3.33-7.384,12.02-18.873,21.07-11.332,7.57-10.026,10.69-24.531,22.57-30.233a97.1,97.1,0,0,0-20.31,30.986c0.89,3.123,2.11,5.932,1.5,10.579,5.67-1.612,5.3-15.826,12.04-18.895,0.94-7.608,6.5-10.582,7.52-18.143,3.76-2.02,5.32-6.248,8.27-9.068-1.23-1.92-2.51,2.451-5.25,1.519,4.21-4.085,9.03-7.56,15.78-9.08-1.09,6.369-4.35,5.006-6.76,7.561-4.21,4.454-8.57,15.725-7.53,22.672,0.62,4.117,5.66,7.488,6.02,12.855,0.31,4.331-3.43,8.648-1.5,12.851-2.81.453-4.77-1.939-6.77,0-1.92,7.395-4.28,15.426-5.26,19.651,7.51-1.265,4.69-12.919,8.27-18.146,2.14,4.936-.65,11.444-2.25,15.121,8.58,1.063,7.58-7.479,7.51-15.121,10.18,7.007.24,19.486-6.02,23.434,3.53,1.494,5.38,4.684,6.02,9.072-2.04.072-1.51-1.259-3.01,0-2.83,9.252-6.7,17.462-15.04,21.164,2.67,0.839,4.4,2.632,6.77,3.78,3.68,9.7-1.88,17.275-7.53,21.925,6.29,3.179,10.37-6.074,14.3-5.3-0.84,8.554-15.25,8.722-21.82,6.805-2.61.68-5.31,5.221-9.03,2.269-0.54-3.685,2.77-2.658,4.5-3.775,6.34-4.06,10.82-9.659,15.07-15.881,1.65,0.988-.89,4.088-0.76,6.049,2.51-2.258,3.14-6.416,4.51-9.824-10.92-5.375-23.62-1.871-35.37,6.8a2.1,2.1,0,0,0,1.51,2.272c-3.96,5.331-10.43,8.162-13.55,14.357,0.66,2.236,1.14-1.749,3.01-.753-2.69,4.094-6.85,6.7-10.53,9.824,3.97,1.579,9.37-5.531,12.81-4.538-15.79,11.864-36.49,18.783-54.19,28.725,11.61-1.69,24.29-8.856,37.62-11.338-18.5,9.192-40.77,13.05-57.18,22.678-2.89.134-.28-0.615-0.76-2.266-7.41,8.7-25.68,12.3-34.6,21.914,34.7-18.045,77.23-31.405,118.13-40.816,2.25-.492-0.73-1.611,0-3.027,19.69-2.672,38.9-8.95,42.13-31.738,3.86,17.331-16.58,31.705-27.08,32.5-3.23,22.455-41.72,17.631-60.21,24.945-8.88.148-15.56,2.5-21.81,5.288,35.95-5.167,73.08,9.024,64.7,48.382a4.189,4.189,0,0,1-3,.758c0.37,4.9-4.38,4.678-4.51,9.065-5.94.865-9.63,4.83-15.05,4.539-10.47-.568-16.54-11.872-19.57-21.167,1.1-2.163,3.21-3.333,4.51-5.291-20.99-20.678-72.07-12.138-90.29,5.291,6.38,0.875,11.13-3.87,19.57-4.539-0.96,4.295-4.82,2.174-7.52,3.028-10.79,3.407-21.23,8.66-29.35,15.876-0.13-7.947,13.65-8.461,14.29-18.146-6.64.384-10.7,3.358-10.54,10.586h-3.75c-6.31,4.751-9.26,12.879-16.56,16.628-1.99,9.578-12.61,14.541-12.79,23.431-8.06,7.784-15.63,26.1-9.78,38.549,9.06-44.819,41.27-72.414,92.55-64.246,3.11,4.695,10.75,6.914,16.55,7.549,7.98,0.884,15.64-3.131,22.57-4.527,4.83-4.538,10.32-10.179,6.79-19.656,3.12,1.645,4.26,5.282,6.77,7.557,3.54,19.363-6.62,26.352-18.07,32.511,2.76,2.52,9.19,1.348,9.78,6.043-6.61-7.339-19.95-2.179-30.1-6.8-2.08-.957-2.29-2.06-6.77-3.023-9.47-2.051-19.1-8.195-29.34-6.8,22.31,5.289,33.22,20.745,58.69,21.163-25.57,9.112-40.29-23.583-67.72-17.388,4.38,3.864,12.96,2.224,18.81,6.05,3.73,2.434,4.4,6.865,8.28,8.316-6.19-2.192-19.89-15.776-27.85-9.075-4.6-3.97-15.68.689-21.06,4.541,12.91,0.37,28.48-.92,39.13,5.286,6.33,5.977,11.73,12.905,17.3,19.651,3.11-.089,4.71,1.315,8.28.758-5.02,5.266-10.33-.736-15.06-3.78,1.84,9.256,15.13,9.827,21.83,4.538-2.67,6.842-13.96,5.345-18.81,6.046,8.09,8.672,26.77-2.649,20.31-10.584,8.05,2.915-1.61,15.68-7.52,16.629-22.27,3.525-26.71-16.674-40.63-26.456,0.85,7.751,7.61,10.294,7.52,18.9-0.12,12.916-19.01,28.507-25.58,11.338-0.72-2.742,3.39-.638,3.01-3.022-1.01-3.78-4.5-5.051-6.78-7.56-18.74,2.286-20.79,21.835-15.79,37.8,3.96,12.719,16.13,21.612,24.82,27.21,6.04-6.53,13.24-10.369,24.84-9.068-0.05-2.731-1.51-4.032-4.52-3.777-7.41-8.809-12.54-20.991-7.52-34.777,5.72-6.374,23.06-6.173,22.57,6.052-5.69.173-4.93-6.128-9.03-7.563-6.02-1.008-8.65,1.391-12.04,3.027-6.9,25.944,24.44,42.483,49.66,34.772,12.68-3.878,23.81-10.247,27.1-22.681,2.27-8.621.91-24.01-7.53-30.234,19.11,4.315,11.87,36.887,1.5,45.352,15.04-8.795,32.47-18.481,31.61-40.813-1.19-2.84-4.85-3.2-9.04-3.027-4.01-3.509-6.45-14.139-3-20.406-2.94-3.3-8.98-4.553-9.79-10.583-0.74-5.554,2.57-11.815,9.04-12.854-7.45,2.723-10.09,18.506.75,19.66,2.34-1.962,7.87-4.676,12.04-2.272-2.83,4.711-9.29,5.78-12.04,10.576-3.31,17.826,17.03,16.975,18.06,3.783,2.95,0.769,1.03,5.5,0,6.8,5.95,20.423-5.87,35.188-14.3,46.112,5.95-2.538,12.37-10.143,14.3-17.382,3.87-14.567,14.93-29.416,0-40.82,6.55-.689,9.79,11.992,9.02,20.411-0.6,6.679-5.27,13.221-6,18.14,12.94-10.823,16.29-51.042-7.55-55.178,12.44-.634,17.64,12.513,21.08,23.432,3.77-9.357-6.63-16.822-9.78-24.19,7.79,6.033,12.31,15.347,15.8,25.7,1.7-14.307-7.54-28.661-18.06-35.521,6.72,1.566,13.54,9.574,16.56,17.389,3.46-10.652-8.94-18.153-15.06-24.194,6.67,2.884,11.13,7.971,15.81,12.848-0.67-6.7-8.93-12.132-13.54-17.387,5.12,3.17,10.58,6,12.79,12.1,2.08-6.295-4.78-16.226-14.3-15.876,10.91-2.129,18.57,5.54,21.07,14.365,3.5-2.3,5.47-3.869,9.78-3.022,0.14,2.589-2.55-.067-3.01,3.022,4.43,7.337,6.37,17.922,6.78,27.214,5.29-5.778,3.03-16.183,1.49-24.189,4.2,4.114,3.38,13.249,5.27,19.656,2.79-5.26,1.81-14.561-1.5-18.9,6.67,3.089,7.97,19.021,4.51,27.21,1.37,1.4,4.54.985,6.02,2.267-16.23-2.477-14.47,18.38-21.82,27.211,6.69-1.349,11.61-11.013,15.8-17.384-1.08,6.723-5.53,10.078-8.28,15.123,7.8-2.132,12.77-10.686,12.8-18.148,4.31,4.429,1.33-3.736,4.5-4.533,0.38,13-5.67,24.642-16.53,28.725,2.08,6.469,11.35,5.728,12.78,12.845-1.73,5.583-7.97,6.61-8.28,13.608-8.43,5.218-12.96,6.469-21.06,10.584-2.25-2.333-4.2-2.28-8.27-3.782-2.11-1.167-1.21-5.342-5.27-4.533,0.51-.573,3.16-2.392,0-2.269,9.52-2.265,18.12-4.148,25.58-6.8-3.06,4.071-9.45,4.2-17.31,6.05,0.33,1.69,3.7.305,5.27,0.753-0.4,3.133-6.77.257-8.27,2.269,15.59,6.172,25.92-4.41,33.1-15.877-4.84-16.13-29.18-12.042-39.13-2.263,5.98,3.453,13.36-3.492,19.57-2.264-10.95,4.984-30.19,7.885-39.89,16.624,14.74-5.65,35.04-5.851,45.9-9.819-0.69,3.523-4.7,2.2-7.52,3.022-6.63,1.894-15.46,4.816-24.84,6.8-14.28,3.016-30.89,7.515-39.87,13.607-5.33,3.606-9.65,10.24-9.78,16.634-0.23,10.207,6.81,12.742,12.04,18.892a16.177,16.177,0,0,0,6.76-.76c-10.74,10.17-32.57-2.888-24.08-14.352-1.74,5.436,1.67,11.822,6.02,13.6-2.67-4.692-9.2-14.4-3.75-18.142-1.86,12.2,4.93,15.7,10.54,20.412-2.25-5.952-9.67-10.7-9.04-19.651,0.32-4.539,2.55-8.22,4.51-12.854-13.28,2.893-14.88,27.863-5.27,37.032,15.23,6.239,24.66-5.109,34.62-9.068-6.9,3.536-16.12,14.933-27.84,14.359-2.09-.095-9.29-1.889-11.29-3.017-4.14-2.346-6-8.018-6.02-12.853,2.36,2.425,2.21,7.361,5.27,9.074-0.12-6.257-3.86-12.4-3.01-19.651,0.89-7.622,7.11-12.426,7.53-18.145-8.29,2.415-11.79,5.329-21.82,5.291,6.91,2.649,12.25-1.444,18.05-.753-1.31,1.707-3.69,2.342-6.02,3.022-8.6,15.781-.55,37.72,15.8,40.062,13.14,1.872,25.09-8.2,36.11-12.848-4.36,5.428-11.26,8.329-17.3,12.093a385.589,385.589,0,0,1,43.65-7.566c6.22-.624,11.43-2.006,14.3,1.516-8.71.957-32.74,1.511-46.66,7.561,0.1,1.665,3.19.324,4.52,0.755-5.74,3.54-16.58,2.535-22.58,7.561,9.32-.685,21.59-4.7,30.1-6.806,0.81,3.677,8.29.342,12.05,0a183.074,183.074,0,0,1,39.87.756c-11.21,2.129-19.69-.87-32.35,3.777-11.87-2.285-25.16.554-34.62,3.778,18.49,3.128,35.43-2.879,53.42-2.267-3.24,3.215-10.45.431-11.28,4.536,2.54,1.528,8.48-1.326,12.8.758-11.28,2.1-24.21.91-36.88,1.511,3.17,2.348,8.52,1.156,15.05,1.511-11.37,3.785-19.4.179-30.85,1.516,11.33,4.629,26.92,4.522,38.38,5.289-9.55,2.608-21.44-1.072-30.1.75-0.3,1.814,3.42-.417,2.26,2.272-3.11-2.345-5.82-.479-10.54-0.761,6.51,5.064,17.8,5.3,27.09,7.563-7.29.943-21.27-.879-29.35-3.775-1.09,2.871,3.36.151,2.26,3.017-3.61-.915-6.85-2.185-10.54-3.017a96.83,96.83,0,0,0,31.6,14.357c-11,.392-26.24-7.151-36.11-12.846-0.55,5.076,6.76,2.275,6.03,7.558-4.62-4.48-12.85-8.028-21.07-4.536,0.23,1.027,1.88.624,3.01,0.759a80.723,80.723,0,0,0-12.05,9.065c-0.8,12.58,7.13,27.192,16.56,34.016,6.74,4.885,16.22,5.241,21.82,11.338-2.75.495-2.89-1.631-5.27-1.512,5.34,6.78,13.32,8.932,18.81,15.118,3.66,4.113,4.67,11.248,11.29,12.854-2.39,3.456,13.06,24.8,1.5,28.717-0.88.3-4.41-2.566-6.77-1.5-4.75-13-26.17-.574-16.55,9.826,2.07,1.7,5.6,1.945,7.51,3.767-7.72,2.705-16.87,1.941-18.05,9.84-0.73,4.94,3.38,11.128,7.53,12.846,6.93,2.865,12.63-1.864,16.55-7.563,7.25,3.453,10.94-3.534,16.56-6.044V54.778c7.59-6.2,16.11-21.62,9.78-32.505-1.41,22.776-10.75,37.575-32.37,40.06,17.66-3.772,40-28.076,25.59-46.1-3.88-4.869-10.74-4.869-12.79-12.852-1.69-3.251-8.14-5.193-6.77-9.074,16.33,12.115,44.39,18.87,60.2,1.513-2.99-17.978-27.7-25.059-42.89-16.626-10.39-4.418-22.18,5-30.1-1.519,13.86,0.426,31.46-.187,35.37-12.087-4.98,1.307-9.07,10.051-19.57,8.315,3.18-2.347,8.52-2.537,11.3-5.3-2.42-2.1-2.32-3.551,0-6.044-5.11-1.041-6.87,1.052-10.54,3.028-9,1.016-14.14-4.471-21.83-6.8-10.83,6.334-22.67-1.758-23.33-11.343-0.18-2.8,3.28-3.391.77-6.044,4.02-4.505,13.46-3.055,18.8-.761,6.73,8.2,11.75,23.5,24.83,19.659,5.42-1.595,7.05-6.763,13.55-7.56-2.86-7.857-4.19-12.577-7.52-19.659,8.04,0.621,14.21-2.72,19.55.761-5.78-.182-10.75.635-17.3,0.755,2.22,5.389,9.11.364,15.81,2.267-1.8,2.745-8,1.046-12.05,1.516,0.27,2.51,2.25,3.28,3.77,4.528,1.61-1.707,7.32-2.287,9.77-.748-1.18,1.57-5.26.249-6.78,1.506,2.78,5.531,16.82,6.824,21.08,1.516a14.946,14.946,0,0,0-12.04-9.824c13.76-6.335,25.67-14.533,32.36-27.972,0-4.527-2.44-6.614-3.76-9.832-8-2.8-9.21-12.412-19.56-12.84-3.66-6.738-10.73-4.374-15.06-6.8,4.58-4.214,12.99-7.756,15.8-15.876,4.34,1.578-1.07,11.911-.74,12.849,1.05,3.217,4.9,2.271,9.02,5.293,4.55,3.347,15.4,16.9,15.81,24.948,0.68,13.448-16.73,28.5-24.83,30.992,2.07,3.791,5.05,4.81,4.51,9.068-1.09,8.523-16.07,6.128-18.06,11.332,6.23-.783,5.22,13.663,1.51,17.392,8.84-1.256,21.19,2.922,27.82,9.819,3.66,3.8,8.56,3.431,8.29,9.827-0.34,8.052-11.56,11.041-16.55,16.631,13.56,3.571,23.62,21.9,15.8,35.527-2.01-4.5-1.94-14.452-2.27-19.656-7.46-6.093-11.82-15.327-25.58-15.109,5.22,4.777,12.98,5.731,17.31,11.335,1.72,2.219,1.01,5.193,3.77,6.8-0.45,7,3.01,10.082,2.25,17.387a40.173,40.173,0,0,1-10.53,0c-1.08,3.7,2.93,4.871,3.76,7.555,2.8,9.094-2.36,16.156-6.02,22.673-8.67,6.259-20.66,5.394-24.82-3.775-1.26,11.349-6.96,18.207-15.06,22.673-11.01-.322-14.15-9.8-13.54-19.651-10.59,4.127-29.99-5.913-21.07-21.162,6.5,2.661,6.81-5.168,13.54-4.547-0.47-3.3-3.7-3.825-5.26-6.044-3.29-17.051,11.98-11.15,16.54-19.65,2.61-.35.44,4.1,2.28,4.541,1.17-17.3-19.15-37.552-34.62-46.111,1.49,5.307,7.56,12.552,9.77,19.656,7.48,25.06-32.23,37.374-29.34,10.577C1757.66,14.189,1761.59,13.518,1762.91,15.471Zm-11.29-368.114c-3.08.2-3.72,2.82-7.52,2.269C1745.33-346.776,1750.67-351.015,1751.62-352.643Zm60.2,0.758c8.35-1.175,15.07-4,18.8-9.824-3.04-.47-4.32-2.717-8.27-2.273-0.29,1.3,1.11,1.937,0,2.273-4.97-3.168-11.97,3.2-19.56,2.261-6.45,4.788-15.47,2.6-21.08,7.563,14.01,0.017,32.21-9.791,43.66-7.563C1820.92-356.852,1816.36-354.376,1811.82-351.885Zm-90.31,37.79c-7.78,2-14.97,4.612-20.31,9.074C1708.23-307.776,1715.36-310.449,1721.51-314.1Zm118.9,56.7c-2.27-1.54-4.49,2.2-5.27,4.532,4.21,8.282,7.07,13.383,7.53,24.945C1848.99-234.216,1842.79-247.591,1840.41-257.4Zm8.27,39.3c-8.7.078-4.49,13.137-12.03,14.365,1.75,4.4-2.91,7.227-4.51,10.583C1841.48-197.153,1846.94-208.989,1848.68-218.1ZM1757.63-72.97c-7.65,5.912-10.42,21.3-3,27.214-1.03-5.468-4.38-14.1,1.5-16.632C1754.55-67.528,1759.61-69.954,1757.63-72.97Zm87.29,89.2c11.53,3.276,15.45,14.211,16.55,27.958a8.52,8.52,0,0,0,6.78,0C1864.15,32.133,1857.46,14.777,1844.92,16.23Zm14.3-459.578c-9.12-8.886-17.74,2.364-21.06,4.541-1.01,7.564-5.06,12.054-7.54,18.132,7.89-3.668,8.71-18.462,15.06-21.154-3.54,5.532-4.39,13.722-9.03,18.132,7.8-.775,11.55-12.032,15.04-19.651,2.36,8.423-5.87,13.417-3.01,17.387C1852.14-431.816,1856.97-436.277,1859.22-443.348Zm-15.05,22.673c4.76,0.151,12.34-7.177,11.29-12.849C1853.61-427.309,1847.26-425.625,1844.17-420.675Zm0,438.415c3.13,4.914,5.21,10.89,8.28,15.871-0.07-2.012-2.18-5.806-.76-6.8,2.42,4.39,2.8,10.8,4.53,15.876,1.7,0.213,2.83-.182,3-1.517C1854.98,32.578,1852.44,22.273,1844.17,17.74Zm12.79,38.543c-0.77,7.806-3.24,17.919-7.53,19.656a27.953,27.953,0,0,1,2.26-5.291c-2.33-.534-4.8,4.538-6.01,7.555C1857.1,77.218,1859.65,63.648,1856.96,56.284Zm-7.53-548c1.29-6.525,9.39-12.536,6.79-18.14C1854.19-504.074,1848.91-497.548,1849.43-491.72Zm2.26,5.291c-3.01,4.091-5.62,12.2-4.51,15.867,3.91-7.912,8.08-19.581,8.28-28.716C1854.38-494.824,1850.94-492.742,1851.69-486.429Zm-6.01,32.5c5.02-2.764,7.03-12.572,6.77-18.137C1849.13-467.081,1845.62-462.293,1845.68-453.93Zm6.01,488.294c0.46,1.561-1.21,5.252,1.51,4.541C1853.19,36.9,1853.61,34.453,1851.69,34.364Zm-6.01,36.285c-0.14-1.133.26-2.787-.76-3.022-1.62,2.907-5.32,3.719-4.51,9.066,5.37-.4,6.65-4.924,8.27-9.066C1845.95,66.9,1848.06,71.02,1845.68,70.648Zm-3.01-547.254c4.06-1.455,3.68-7.392,5.27-11.334C1843.55-486.8,1845.63-479.168,1842.67-476.606Zm-7.53,32.5c-3.49,7.925-6.61,15.927-9.03,22.679,9.47-11.4,16.18-29.609,19.57-44.6C1841.8-459.445,1838.48-451.675,1835.14-444.1Zm9.03,503.412c-0.67,2.865-2.72,4.317-4.52,6.044-0.44-2.409,1.41-2.336,0-3.772-4.28,1-5.25,6.248-3,9.819C1840.83,69.8,1846.06,62.073,1844.17,59.311Zm-3.01-474.69c-0.37-1.9,3.73,2.111,3.01-1.513C1841.95-417.6,1839.28-417.395,1841.16-415.379Zm0,451.259c0.98,2.341-2.24,4.186,0,5.285C1841.59,39.47,1843.69,36.188,1841.16,35.88Zm-2.25-253.221c0.42-2.364,2.52-8.425,0-9.065C1840.41-224.3,1836.13-220.416,1838.91-217.341ZM1837.4,10.938c-0.24,1.99,1.57,1.945,3.01,2.261C1840.35,11.168,1838.68,9.57,1837.4,10.938ZM1835.14-469.8c3.2-.579,5.27-6.267,3.77-9.065C1837.39-476.119,1837.01-472.21,1835.14-469.8Zm-21.82,52.156c-2.91.35-4.57,1.956-4.51,5.291-5.64,6.937-13.78,15.376-15.81,23.431,7.47-6.6,10.54-17.642,18.82-23.431,2.74,2.513-3.78,4.88-.76,7.558,11.27-16.892,23.45-36.912,27.85-58.2-8.95,16.956-13.46,38.4-27.09,50.644C1810.95-415.488,1813.4-415.3,1813.32-417.645Zm23.33-.755c2.23,0.895,3.23-3.19,1.51-3.78C1837.82-420.429,1834.82-420.161,1836.65-418.4Zm0.75,469.393c-2.62,1.849-6.66,5.652-4.53,9.829,3.79-.742,3.43-5.647,6.04-7.555C1837.38,52.374,1835.84,53.664,1837.4,50.993Zm-3.76-301.59c0.3,3.088-2.48,3.058-1.5,6.8,4.17,2.353,2.36,10.717,6.02,13.605C1838.47-238.821,1838.23-246.9,1833.64-250.6Zm-15.05-177.627c6.76-12.35,13.33-24.922,17.3-40.065C1828.81-456.753,1823.17-439.755,1818.59-428.225Zm11.29,390.782c3.11-.42,5.65-5.383,3.76-8.312A45.226,45.226,0,0,0,1829.88-37.443Zm-0.76-201.817c1.88,4.412,2.95,9.635,4.52,14.359C1832.74-231.938,1835.82-238.869,1829.12-239.26ZM1826.87,9.427c2.27,2.63,4.36,1.013,6.77,3.772C1833.97,9.816,1828.27,8.551,1826.87,9.427Zm3.01-226.01c-0.31-1.821,1.37-1.645.74-3.78C1827.58-220.808,1828.24-217.252,1829.88-216.583ZM1828.37-206c0.5-2.3,2.68-6.836.75-9.071C1828.27-212.2,1826.04-208.046,1828.37-206ZM1810.3,91.058c9.19,3.925,14.04-8.215,18.82-13.6C1823.03,82.157,1817.61,87.56,1810.3,91.058Zm4.53-22.676c-3.54,5.35-10.7,11.338-6.78,19.648,7.76-2.79,14.17-6.933,18.06-13.6-5.49,2.048-10.34,8.75-17.3,6.8,0.85-3.925,7.1-2.442,8.27-6.043-0.88-.115-2.13.134-2.25-0.753,4.53-4.01,11.83-5.252,13.54-12.1C1822.86,63.36,1822.65,69.683,1814.83,68.382Zm6.77-483.761c2.64,0.127,2.36-2.663,3.77-3.777A3.594,3.594,0,0,0,1821.6-415.379ZM1820.1-206c-3.4,9.7-11.45,18.753-13.55,27.219,9-11.03,17.7-25.831,18.06-43.095C1820.42-219.28,1820.52-212.377,1820.1-206ZM1818.59,16.23c-5.94-6.391-8.78-19.909-18.06-20.412,8.89,6.181,11.62,18.56,18.81,26.456C1819.5,19.836,1818.01,19.073,1818.59,16.23Zm-4.52-434.63a4.992,4.992,0,0,0,.76-3.78C1812.06-422.908,1811.83-418.467,1814.07-418.4ZM1793.76-6.455a179.333,179.333,0,0,1,18.06,25.7C1809.99,9.455,1802.44-1.035,1793.76-6.455ZM1704.97-314.1c-1.44,1.425-1.9.085-3.77,0-2.15,5.571-13.12,9.763-11.28,14.366,19.59-16.839,58.45-30.989,96.32-20.409,10.22,6.841,20.54,13.626,25.58,25.7,0.84-5.375-2.55-6.514-1.52-12.093-8.23-9.119-16.22-16.545-28.59-19.657-14.09-3.548-29.32-.352-45.89-0.75,0.7-.814,2.77-0.24,2.26-2.272-0.59.165-1.48,0.02-1.51,0.756C1724.91-324.783,1713.96-320.424,1704.97-314.1Zm106.09,22.678c-2.41.885-3.16,7.374-2.25,9.069C1809.94-284.757,1812.66-288.663,1811.06-291.417Zm-8.27-15.114c-14.96-11.383-44.29-20.98-67.73-12.1,28.74,0.325,53.93,4.8,69.22,21.92-0.21,4.279,1.64,7.026-.74,9.833-0.8-.708-0.24-2.8-2.26-2.273,0.39,11.607-17.02,8.171-16.56.753,5.79,9.181,17.31,3.873,16.56-7.554-4.28-7.211-14.33-12.051-19.57-3.028,0.65,1.668,4.63,3.858,2.26,6.05-1.54-.713-1.54-2.972-3.76-3.022-1.13,12.473,7.69,14.961,13.55,20.4,1.03-1.718-1.94-2.838,0-3.022C1806.67-276.232,1811.47-297.715,1802.79-306.531Zm-20.32,138.324c9.74-9.032,30.66-24.9,21.81-47.623-1.15.854-1.83,2.172-3,3.025,3.38,24.925-13.61,35.636-26.33,46.861C1777.84-166.64,1781.21-168.025,1782.47-168.207Zm12.79,83.9c-0.62,2.373,7.14,2.723,5.27,1.508C1797.52-82.049,1798.26-85.06,1795.26-84.3Zm-10.54,36.28c2.89,0.246,5.74,3.747,7.53.755C1789.49-47.118,1785.78-51.112,1784.72-48.022Zm3.77-335.607c0.67-1.6,2.29-2.238,2.26-4.536C1789-388.1,1786.61-384.844,1788.49-383.629ZM1777.21-103.2c2.37-.884,5.14-1.384,6.76-3.022C1780.88-106.06,1779.04-104.632,1777.21-103.2Zm1.49,22.67c1.92,0.6,3.66,1.374,4.52,3.036C1785.85-79.729,1780.6-82.984,1778.7-80.533Zm-2.26-294.025c0.94,2.849,5.47-2.82,6.78-4.538C1779.73-378.828,1779-375.769,1776.44-374.558Zm-9.02,217.688c4.31-.2,6.33-2.711,9.02-4.532C1772.84-160.49,1770.15-158.666,1767.42-156.87Zm-11.29-210.139c1.64,2.672,5.18-5.195,9.04-5.285,1.56-2.7,2.98-5.555,6.01-6.8,4.26-12.091,6.23-29.237.76-41.579-5.7,1.037-8.59-2.286-11.3,3.03,10.02,20.034-4.67,46.789-16.54,58.2,18.24-9.41,27.44-34.693,24.08-58.952C1775.13-398.453,1766.88-377.91,1756.13-367.009ZM1766.66,17.74c4.49,0.831,9.47-3.992,8.29-11.341C1771.95,9.951,1770.69,15.236,1766.66,17.74Zm-0.75-120.193c1.72,1.514,5.31.308,6.78-.75A6.882,6.882,0,0,0,1765.91-102.453Zm-3.76-57.438a14.565,14.565,0,0,0,8.29-3.783A13.123,13.123,0,0,0,1762.15-159.891Zm0,152.686c1.86,6.766,2.56,12.051-.75,18.142C1771.34,16.246,1768.99-5.976,1762.15-7.2ZM1742.59-263.45c-10.89-.378-19.58-7.054-30.1-8.316-3.11-.366-6.36,1.606-9.78,1.517-9.3-.244-15.53-1.315-22.58,5.288-7.58-.593-10.35,6.083-15.8,5.291-14.14,15.051-31.4,33.2-27.08,61.98-0.88.129-.83,1.195-0.76,2.272a16.341,16.341,0,0,0-5.27,4.533c1.46,1.06,1.13,3.914,2.25,5.3-1.6,38.306,33.54,62.042,63.97,65.757-2.02-5.929-6.45-5.265-11.29-6.047-19.79-3.2-42.45-24.589-48.15-43.84,0.99-8.161-4.67-16.639-.75-24.188-0.01,34.5,18.87,58.314,50.42,65.007,1.46-1.853-1.94-3.666-2.27-6.044-27.81-5.271-42.04-27.552-44.4-55.941,1.41-2.779,3.19-8.126,2.27-12.849,1.99-.011,4.29.283,5.25-0.758,0.75-5.812,1.03-12.079,6.03-13.607a109.62,109.62,0,0,0-4.51,10.585c7.28-6.559,13.96-19.4,26.34-16.629,5.57,1.25,8.57,6.425,12.78,10.583-1.32-12.513-14.79-13.717-25.58-11.341,0.52-3.246,6.78-.741,7.53-3.783-5.6-3.1-12.47,6.273-15.05,3.783,7.17-6.813,16.06-6.492,26.32-6.044,3.8,6.517,10.69,9.936,12.81,18.14,0.82-16.089-13.11-25.748-30.11-24.183,18.43-4.542,26.71,5.977,32.36,18.136,2.16-14.164-17.14-27.891-33.11-23.43-2.8,3.816-8.12,6.049-11.28,10.576-2.19,3.123-2.21,10.641-7.53,9.074-0.84-7.4,3.04-10.042,3-16.628,11.54-16.009,29.41-27.36,48.17-29.484,18.11-2.045,26.84,5.912,39.88,7.563,13.02,1.651,21.68.079,27.84-6.8C1757.7-265.621,1751.11-263.153,1742.59-263.45Zm12.04,220.716c-1.91,3.7-8.64-2.185-10.53,1.517,2.44,0.657,6.58,2.47,9.02.752,1.57,2.859,9.6,6.791,10.53,5.294C1760.88-37.93,1759.17-41.766,1754.63-42.734Zm-21.07-213.914c-6.55-3.674-28.36-13.028-38.37-6.8-1.17-2.851-5.9-.251-6.03.758,9.49,0.652,19.89-.786,32.35,3.022,12.53,3.828,29.27,11.355,37.63,2.27C1752.5-256.273,1739.21-257.555,1733.56-256.648Zm7.52-71.048c4.85-2.4,15.42-.641,17.31-3.78C1753.19-332.534,1743.86-331.555,1741.08-327.7Zm6.03-28.728c1.21-1.284,4.22-.792,4.51-3.024C1749.77-358.779,1747.28-358.765,1747.11-356.424Zm0,242.642c0.07,3.195,2.01,4.516,4.51,5.291A8.553,8.553,0,0,0,1747.11-113.782Zm0.74,54.417c-2.42-.655-1.56,1.961-3.01,2.266-1.22-5.269,3.54-8.509,1.51-12.088-5.48,6.178-4.49,15.445-1.51,23.431a19.583,19.583,0,0,0,6.02,2.263C1750.64-50.174,1746.23-52.8,1747.85-59.365Zm0-.75c-0.43-2.017,2.23-4.723,0-6.049C1747.7-64.749,1745.91-61.159,1747.85-60.116Zm-3.01-52.156c0.42-2.923-1.34-3.693-.74-6.8,0.88,0.106,1.7,1.343,2.25,0a52.974,52.974,0,0,1,.76-24.951c-12.03-1.533-20.6.292-34.62-3.021-4.87,14.021,5.07,23.6,7.52,30.235-8.89-4.25-12.11-17.955-9.78-30.989-1.82-1.443-4.55-1.986-6.77-3.026-3.81,11.454,4.17,21.469,5.27,27.971-4.92-6.961-10.8-18.212-6.77-29.477,3.21,0.453,7.62,2.843,9.78,0,0.55,6.931,16.59,5.761,20.31,4.532-11.26,1.232-20.81-9.036-30.09-9.832-8.39-.713-12.02,5.342-18.81,10.586-0.83,8.136.84,6.838,4.52,12.849,7.35,12.053,23.38,19.264,36.86,20.414-3.78-5-7.26-20.768-2.26-27.214-2.69,15.437,4.65,24.945,11.29,33.252-1.34.179-3.77-.758-3.01,1.519,4.28,2.5,9.07,8.52,15.04,6.8-9.47-5.847-17.47-17.208-18.81-28.722,3.25,1.282.81,8.258,4.53,9.075-1.33-9.136-2.19-19.4,3.01-24.951-2.71,9.715-4.62,23.289,2.25,30.242-0.64-3.666-3.01-9.553-.75-13.61,2.02,1.771-1.06,12.611,3,9.821-2.25-9.491.71-15.736,3.77-21.914C1740.4-131.667,1738.73-117.646,1744.84-112.272Zm-21.81,66.516c3.34,0.59,4.51-1,7.52-.753,0.77-4.656-.51-8.917,0-12.856,1.53-11.875,8.78-18.031,15.04-25.695C1731.24-78.541,1724.1-63.445,1723.03-45.756Zm18.81-29.478c1.78-.47,3.49-1.015,3.75-3.022C1743.35-78.252,1742.44-76.9,1741.84-75.233Zm-14.3-318.98c-4.37-.532-11.65,1.438-13.55,7.56,3.91-1.623,9.24-1.8,11.29-5.29,16.71,2.386,18.17,22.985,9.78,35.52C1750.08-363.422,1742.08-392.44,1727.54-394.214ZM1738.82-45c2.38-4.729.28-14.175,0.75-18.9-2.86,3.159-2.19,9.877-3.75,14.354-3.3-6.958,2.93-14.589,1.5-19.648-4.27,6.819-5.14,11.245-4.51,21.165,1.39,2.733,4.66-.339,5.27,2.267,0.29,1.81-3.43-.426-2.26,2.263,0.67,1.584,2.22,2.306,4.51,2.275a4.912,4.912,0,0,0,.75-3.78h-2.26Zm-15.79-269.1h12.03c-0.93-2.448,2.44-.573,1.51-3.021C1733.19-314.965,1725.8-316.846,1723.03-314.1Zm-7.52,302.352c6.74-.523,10.46-4.1,17.3-4.538v-2.264C1726.34-19.888,1719.59-15.265,1715.51-11.743Zm2.25-142.1c2.84,0.945,8.67,2.854,12.03.757C1725.55-152.619,1720.76-155.571,1717.76-153.847Zm-15.05-83.141c6.04,8.049,12.06,16.1,19.56,22.671C1716.86-222.99,1712.34-232.562,1702.71-236.988Zm-6.78-6.047c7.07,1.729,17.17,9.412,23.33,16.629C1718.28-234.784,1705.06-245.355,1695.93-243.035Zm-48.15,120.181c-0.07-2.064,1.26-1.525,0-3.025-10.14-6.692-15.62-18.077-23.33-27.211,10.3,29.137,35.63,48.894,72.24,46.865-0.38-2.389,3.73-.285,3.01-3.03C1685.68-106.806,1660.25-111.323,1647.78-122.854Zm31.6,20.4c7.88,1.144,18.47,2.415,19.56-2.261C1695.93-102.836,1686.41-103.972,1679.38-102.453Zm12.04-213.153c1.91,0.42,9.13-3.757,6.77-7.56C1696.84-319.744,1693.05-318.756,1691.42-315.606Zm3.77,56.689c2.2-1.114,2.79.859,3.75-1.506C1697.87-261.581,1695.03-261.158,1695.19-258.917Zm-12.04-1.506c2.66,0.4,3.87-.646,4.52-2.269C1686.6-263.668,1683.62-262.309,1683.15-260.423Zm-9.03,39.3c-12.49-.422-21.94,13.844-22.59,27.97-0.82,18.206,9.93,32.8,19.58,40.061-6.76-10.612-17.15-25.411-16.56-40.061,0.4-10.158,5.8-24.2,22.56-24.19,2.74,3.814,8.44,6.928,6.04,13.607C1692.07-210.377,1682.08-220.847,1674.12-221.121Zm-3.77,77.1c3.68-.209,7.29,7.015,9.78,3.028C1677.05-141.7,1673.74-146.136,1670.35-144.024Zm-45.9-.752c-3.18,7.5,7.01,13.243,9.02,20.406,3.48,1.553,5.76,4.3,7.53,7.56,9.84,3.948,21.95,16.831,36.88,13.607C1652.45-109.4,1637.1-125.744,1624.45-144.776Zm3.01-14.36v5.289c9.35,17.566,22.5,31.327,42.15,38.554,0.57-.174,1.48-0.022,1.5-0.758C1651.39-125.232,1636.45-139.194,1627.46-159.136Zm33.87-126.234c1.52,0.221,1.47,2.045,3,2.272,0.89-3.153,4.25-3.8,4.52-7.56C1665.08-292.866,1663.83-286.856,1661.33-285.37Zm-18.06,142.863c1.51,1.5,2.45,3.576,4.51,4.533C1646.78-139.527,1645.05-144.247,1643.27-142.507Zm3.75-47.62c-0.46-2.054.96-6-.75-6.8C1646.1-195.538,1643.83-190.093,1647.02-190.127Zm-1.5.758c0.12,2.135-.65,5.185,1.5,5.286C1646.48-185.8,1648.38-189.976,1645.52-189.369Zm-6.77,83.144c2.6-1.026,3.55,3.389,5.27.756C1642.83-105.864,1639.99-108.38,1638.75-106.225Zm-32.36-69.537c5.34-3.7,11.37-7.129,18.82-3.022,4.15-7.54-.78-16.094-11.29-13.607-19.23,7.885-14.3,47.99.75,55.172A49.008,49.008,0,0,1,1606.39-175.762Zm26.35,52.148c-9.41-11.5-23.51-21.349-20.32-43.082,1.8-2.218,5.35-2.687,6.01-6.044-5.54-.532-6.54,3.5-10.54,4.533C1605.69-148.808,1617.52-127.873,1632.74-123.614Zm-18.07-88.436c-2.77.034-9.27,2.493-12.04,5.294-1.36,1.371-.93,3.574-2.26,5.294-3.07,3.973-7.79,7.63-9.02,12.846-2.5,10.521,1.49,22.547,4.51,30.985-0.53-14.119-.21-31.26,7.52-39.3,0.11,0.884-.13,2.14.76,2.266,4.44-6.824,18.5-9.348,25.58-3.027C1631.76-206.216,1620.92-212.12,1614.67-212.05Zm-15.8,39.31c2.06-9.415,8.16-23.643,20.32-24.189,4.22-.19,6.63,3.643,11.29,2.266C1614.63-207.615,1595.12-188.4,1598.87-172.74Zm23.33-51.4c3.14,0.647,1.65-3.38,3.01-4.541C1622.49-228.894,1623.48-225.371,1622.2-224.143Zm0.74,6.044v-4.533C1620.77-222.5,1619.76-217.318,1622.94-218.1Zm-3.75-10.585c-0.02-1.777,1.28-2.219.75-4.527C1617.53-234.283,1618.03-228.693,1619.19-228.684Zm-8.28,96.762c2.37,3.4,4.75,6.816,9.03,8.308C1617.81-126.779,1614.44-132.692,1610.91-131.922Zm-1.51-37.8c1.15-4.646,6.17-5.4,9.79-7.559C1614.94-181.8,1605.85-172.9,1609.4-169.719Zm-4.51-62.737c-2.55,4.1-1.49,14.446-3.01,21.162C1606.6-215.109,1607.78-227.243,1604.89-232.456Zm-4.52-3.777c0.12,10.45-7.22,17.431-4.51,27.961,2.06-9.772,6.47-17.18,7.52-27.961C1601.33-236.166,1601.88-237.5,1600.37-236.233Zm-0.75,87.677c-1.62-.185-4.68-2.776-5.27-1.512,3.7,3.09,5.06,8.526,9.03,11.344C1603.09-142.963,1599.52-143.923,1599.62-148.556Zm-1.51-15.118c1.37,2.722-1.1,9.051,3.02,10.584C1600.24-156.254,1600.15-164.169,1598.11-163.674Zm-3.01-77.1c-1.75,5.141-5.45,14.307-2.25,19.651C1593.54-227.142,1604.14-236.762,1595.1-240.772Zm-5.27-7.56c-4.61,16.573-11.3,35.3-6.02,52.914,0.03-11.805-.71-23.459,3.02-34.771,1.42,0.564.52,2.255,2.25,0.761C1589.69-235.274,1596.71-244.163,1589.83-248.332Zm-6.77,3.027c-7.96,16.654-11.29,43.986-2.25,58.958-6.96-20.94,0-51.459,10.54-68.031C1588.16-253.041,1584.77-248.867,1583.06-245.3Zm6.02,31.745c1.12-3,.71-6.837,1.51-8.319C1587.63-221.286,1587.96-216.611,1589.08-213.56Zm269.39,424.805c-6.26-12.964-15.55-18.212-30.1-22.684C1838.33,196.2,1850.75,201.357,1858.47,211.245Zm-135.44-35.533c1.05-2.177-2.05-3.838,0-4.535,3.46,5.406,7.05,14.091,4.51,21.167,8.99-13.884-6.03-26.94-12.03-35.527,0.69-.809,2.76-0.232,2.25-2.263-4.31-1.472-7.71-3.853-11.29-6.05-0.81,2.717-1.89,5.157-2.26,8.313C1712.72,160.86,1716.17,170.013,1723.03,175.712Zm-42.9-42.326c0.64-4.952-4.23-7.46-8.27-9.824,0.72,4.063,4.99,4.561,5.25,9.066A4.2,4.2,0,0,1,1680.13,133.386Zm-43.64-37.038a32.769,32.769,0,0,0-4.51,7.561c13.94-9.6,3.41-37.659-5.28-46.873,0.05-7.863-6.7-15.429-9.03-23.425C1619.38,61.138,1637.12,67.442,1636.49,96.348Zm-7.53-40.817c1.91-.613,3-2.029,4.51-3.022-1.63-1.368-1.61-4.41-2.99-6.044-2.32.523-1.45,0.523-3.78,0C1625.25,49.07,1628.47,52.484,1628.96,55.531Zm0.76-66.513c1.75,0.507,2.01,2.507,3.75,3.023,8.3-34.833,35.33-54.616,63.97-66.521-12.57,1.914-28.8,12.085-40.64,19.656-3.9,4.9-7.14,10.462-13.53,12.849C1639.22-31.17,1631.99-23.562,1629.72-10.982ZM1847.94,270.2c4.88,3.668,4.47,12.641,9.02,16.634C1863.87,279.514,1855.39,267.732,1847.94,270.2ZM1826.87,239.2c5.53,7.8,13.22,13.425,16.54,23.442h4.53C1843.68,252.04,1836.01,244.9,1826.87,239.2Zm25.58,21.926c0.03-9.654-6.68-22.133-18.06-20.409,0.17,1.427-.85,1.667-0.75,3.024C1844.16,243.487,1843.35,257.827,1852.45,261.129Zm-6.03,9.068c-4.58.243-6.79,1.31-9.77,1.514,2.49,4.051,3.38,9.7,8.27,11.332,0.8-5.034-4.94-6.836-3.76-9.824,6.25,1.783,3.5,12.614,11.29,12.851C1853.56,277.645,1847.51,276.42,1846.42,270.2Zm-31.59-37.038c8.06,9.172,14.41,22.768,24.82,27.212-0.41-1.35-.38-3.134-1.49-3.775-3.76,1.723-4.05-6.5-8.28-6.8-0.94-2.448,2.43-.578,1.5-3.027-3.86-3.17-9.68-4.379-10.54-10.582C1818.03,235.991,1816.56,234.429,1814.83,233.159Zm-3.77.758c2.83,10.44,15.46,19.248,21.08,30.233,1.58,3.123,1.98,6.279,6.77,5.3A288.7,288.7,0,0,0,1811.06,233.917Zm18.82,34.772c2.65,4.384,4.94,13.15,9.03,13.606C1835.45,278.205,1835.04,271.056,1829.88,268.689Zm-12.8-10.588c5.41,4.645,7.29,12.84,12.8,17.393C1826.37,269.436,1822.48,259.747,1817.08,258.1Zm-5.26-15.871c1.53,7.018,5.85,11.255,10.53,15.118C1819.68,251.466,1815.53,247.077,1811.82,242.23Zm-2.25-139.077c8.15,29.274-15.33,43.913-36.14,51.4C1798.44,152.853,1822.55,126.808,1809.57,103.153Zm-17.32-7.563c0.48-1.528,3.52-.5,3.76-2.263-8.17-1.584-12.05,7.484-15.04,13.6-0.61-3.881.81-5.739,1.5-8.316h-3.77c-2.4,7.2-.95,24.525,8.28,24.189,6.43-.232,7.1-9.606,6.78-16.626,5.1,3.568,4.39,13.462,2.25,16.626,5.86-2.552,3.34-10.7,4.52-16.626,4.47,3.881,3.29,15.158,1.49,21.162C1808.92,117.071,1805.69,93.682,1792.25,95.59Zm7.53,35.533c-7.72,10.884-20.12,17.082-38.38,17.381,17.56,4.276,34.01-5.635,41.39-16.635C1801.36,132.043,1801.12,131.025,1799.78,131.123Zm-123.4-22.684c0.19-2.211-1.71-2.32-1.52-4.53-12.41-8.954-19.77-22.972-29.34-34.771,17.08,32.124,42.58,62.251,81.26,73.314,24.72,7.074,64.59,7.244,74.5-19.651-4.05,5.714-16.82,6.995-21.82,1.52-14.91,9.7-35.89,6.933-52.68,6.043,4.87,1.663,11.39,1.663,15.06,4.533C1712.95,132.373,1695.92,118.52,1676.38,108.439ZM1783.22,97.86c2.09-1.427,3.56-3.484,5.27-5.292C1786.18,93.3,1780.34,94.418,1783.22,97.86Zm-63.96,27.213c18.9,6.022,39.63,7,57.95-1.511,0.02-.97.96-1.049,0.74-2.269C1762.79,128.6,1736.42,127.955,1719.26,125.073Zm57.18-27.213c-4.86-5.124-10.18-10.684-17.3-13.607-1.22-.493-2.52.892-3.01,0.755-3.06-.871-5.42-3.892-9.78-4.53-20.06-2.971-37.85,7.351-55.69,2.264,5.64,4.595,21.86,3.7,33.12,2.266,4.7-.593,9.5-3.027,13.54-2.266,1.11,0.21,2.02,2.143,3.01,2.266,0.37,0.042,9.13-1.673,9.04,1.516-14.29-1.65-26.26-.666-36.13,4.534-3.48-.7-14.29-0.8-20.32-1.511,8.18,5.283,21.14,2.714,30.86,4.527-9.16,2.113-29.91,3.38-29.35-1.505-2.3,4.729-6.9-3.033-9.78,0,7.32,2.1,15.24,8.3,21.08,4.541v3.014c13.15,2.348,21.79,1.363,34.6-3.014-2.84-3-9.23-2.773-12.79-3.036a6.8,6.8,0,0,1,3.01-3.016c20.96-1.545,32.01,1.342,45.15,9.065C1775.74,99.16,1776.65,99.08,1776.44,97.86Zm-29.33-5.292c0.6,2.667,3.95,2.566,3.75,6.044-3.59,20.535-33.08,16-50.4,12.854,16.85,11.372,55.74,19.505,75.98,5.291C1776.65,98.668,1763.21,94.275,1747.11,92.568Zm15.8-29.483c2.44,2.65,4.3-1.684,6.01-2.264,2.93-16.389-24.2-15.591-27.84-9.829-1.96-.291-4.12-0.386-5.26-1.505,5.1-4.7,19.44-11.052,10.53-20.41-3.3-.559.6,1.5-1.51,1.517-1.8-.966-3.25-2.281-5.27-3.033-13.15-.926-18.59,7.224-27.83,12.1-3.47,7.832-12.58,14.962-21.08,18.134-7.94,2.98-17.11.624-22.57,1.517,20.18,8,34.87-5.087,45.9-13.607-3.24,8.333-13.14,9.972-18.8,15.879,1.4-.176,4.98-1.955,6.01,0-4.43.751-11.23,5.759-15.8,1.5-0.4,2.126-3.63,1.4-5.27,2.269-11.59-1.95-19.17-7.96-27.83-12.846-0.82-3.458-4.22-4.337-6.03-6.8-1.78-3.945-5.84-7.582-8.27-12.093-1.63-3.028-1.86-8.993-5.26-9.074,2.13,3.173,1.89,8.276,3.75,12.1,2.5,5.12,8.95,10.154,11.29,14.354,1.41,2.563,5.61,8.889,7.53,10.59,1.74,1.55,6.4,2.821,9.77,5.289,11.99,8.721,30.43,16.273,48.16,10.582,8.08,3.988,17.12-1.737,23.33-1.513,4.58,0.168,8.81,3.324,14.29.753a97.981,97.981,0,0,0,18.06,6.8c-24.54-18.749-65.82-2.918-87.28-9.821-2.25-4.3-10.16-2.893-12.03-7.56,2.86-.115,3.62,1.894,6.01,2.266,0.66-1.108.59-2.926,3.01-2.266,25.4,11.237,49.41-13.095,79-7.563-20.35-1.4-37.72,8.5-53.42,11.338-10.52,1.9-18.97-1.088-27.1-.753,24.37,11.366,54.82-2.826,73.75,2.264-3.5-5.705-12.52-2.364-16.54-4.53,10.19-.655,16.1-0.957,27.83-1.517C1763.56,64.92,1761.26,61.287,1762.91,63.085Zm-17.32,41.579c0.18-2.437-1.32-3.2-.75-6.052-7.52.314-16.72,4.284-26.33,4.541-6.2.168-12.15-3.3-17.31-.761,9.6,3.946,18.41,4.908,29.35,4.536-17.15,6.464-33.73-5.271-47.4-11.338C1693.34,109.013,1728.71,121.041,1745.59,104.664Zm-21.81,75.587c0.92,5.714-.87,10.529-3.01,15.109C1726.39,194.348,1727.06,183.975,1723.78,180.251Zm-7.54-52.156c2.57-.993,5.26,1.682,6.03,0C1720.47,127.682,1716.82,125.278,1716.24,128.1Zm-3-5.294c1.38,0.2,4.22,2.726,5.27.761C1716.64,123.216,1714.04,119.765,1713.24,122.8ZM1674.12,47.97c12.1-1.936,23.61-15.048,10.53-23.433,4.2,0.568,5.68,3.878,9.03,5.3-0.53-8.512-7.69-5.8-13.55-9.077,13.54-2.633,16.87,5.21,20.33,14.365-3.11,14.113-19.58,19.528-31.61,18.145,21.42,9.178,44.06-12.074,30.85-30.235-1.04,1.718,1.94,2.84,0,3.016-4.14-4.745-11.04-10.789-18.81-8.307-5.28,1.679-4.27,7.009-8.28,10.577-5.8,1.03-9.83-3.7-12.8-3.022,1.41,3.38,5.84,3.716,8.28,6.047-17.78-3.571-18.9-23.232-20.31-37.8-1.29,1.684-.66,8.587-3.76,10.588,0.28-14.334,6.24-22.952,9.78-34.021,6.22-2.9,6.69-8.263,10.53-12.846,8.45-10.07,25.07-14.944,32.36-24.192-30.33,14.03-55.46,39.136-57.19,77.1-3.13-38.034,27.52-63.272,54.93-80.125-30.56,10.871-50.8,32.119-60.2,64.252,6.48,5.856.57,13.45,0.76,20.406,0.15,6.077,5.25,10.2,4.51,16.632,1.82,0.38,3.89,2.151,2.26,3.78,2.41,0.669,1.56-1.964,3-2.267,6.77,6.125,14.63,18.985,26.35,15.115-10.27-1.773-16.3-7.817-21.07-15.115C1658.54,37.408,1662.67,46.37,1674.12,47.97Zm24.07,71.054c1.59,1.438,3.85,2.174,6.02,3.022C1704.22,119.477,1699.22,118.041,1698.19,119.024Zm-16.55-33.261c1.6,2.11,8.68,6.142,10.54,3.025C1687.62,88.822,1685.93,85.993,1681.64,85.763ZM1633.47-55.583c-1.09,1.276-1.04,3.669-2.25,5.288-2.43,3.276-6.35,5.753-8.28,9.077-3.77,6.533-6.96,16.365-4.51,24.183,3.19-4.113,3.75-10.857,5.27-16.626q19.65-36.565,64.71-47.622c0.11-.9,1.34-1.713,0-2.264C1669.54-78.726,1646.93-71.285,1633.47-55.583Zm39.14,130.764c3,3.8,9.42,8.176,15.06,6.8C1682.99,79.376,1676.85,78.231,1672.61,75.182Zm-19.56-92.969c5.42-14.455,20.18-23.571,27.08-34.016C1669.43-42.658,1655.66-32.563,1653.05-17.787ZM1672.61,99.37c0.91,4.626,5.11,5.949,8.28,8.311C1679.72,103.321,1674.99,102.521,1672.61,99.37Zm0.75-130.009c2.96-1.312,4.29-4.269,6.77-6.052A11.1,11.1,0,0,0,1673.36-30.638Zm-16.56,13.6c5.92-6.662,10.86-14.3,16.56-21.168A66.424,66.424,0,0,0,1656.8-17.034Zm10.54,102.8c1.67,1.6,3.11,3.428,5.27,4.541C1671.81,88.3,1668.73,84.672,1667.34,85.763Zm-0.74-63.49c0.36,1.886,1.41,3.106,2.25,4.533,0.01-1.5,2.05-.96,1.5-3.017C1668.03,24.35,1668.9,21.7,1666.6,22.273Zm0,89.952c-0.21,3.229,2.17,3.853,3.75,5.291A6.875,6.875,0,0,0,1666.6,112.225Zm-19.58-56.694c2.95,9.888,12.1,13.551,20.32,18.145a1.166,1.166,0,0,0,.75-1.517C1659.53,68.156,1654.24,60.881,1647.02,55.531Zm15.81,58.2c-1.97,2.538.49,5.661,2.25,6.8C1667.06,118,1664.15,115.33,1662.83,113.73ZM1642.51-85.06c7.71-.04,15.73.492,18.06-3.023C1653.64-88,1646.26-88.35,1642.51-85.06Zm8.28,68.026c0.6,2.616-.84,3.2-1.51,4.533C1652.47-11.508,1653.34-16.7,1650.79-17.034Zm-10.54,63.5c0.46,3.825,2.99,5.552,3.77,9.066h1.5c0-.759.61-0.9,0.75-1.511C1643.5,52.262,1643.34,47.892,1640.25,46.465Zm1.51,31.738c6.71-.736-0.47-6.841-0.76-9.821a5.308,5.308,0,0,0-4.51,3.019c3.72,1.81.74,10.355,5.27,11.34V78.2Zm-6.77-21.92c-4.73,1.533-3.37,8.025.74,9.071-0.55-2.323,2.08-1.45,1.52-3.772C1634.77,59.929,1635.53,58.945,1634.99,56.284Zm-3.77,64.251v3.027c2.56,0.056,2.81-2.229,3.77-3.782A4.89,4.89,0,0,0,1631.22,120.535ZM1628.96,32.1c1.18,1.1-.78,4.583,2.26,5.286C1633.1,35.911,1630.21,30.281,1628.96,32.1Zm-6.02-127.748c0.43,2.913,4.72,2.381,6.02.764A13.9,13.9,0,0,0,1622.94-95.648ZM1625.96,32.1c-1.87-.982-3.65,1.684-3.76,0-1.9-2.126,2.17-2.84,2.25-5.294-1.38-2.135-.88-6.161-4.51-6.049a1.161,1.161,0,0,1-1.51.758c0.83,8.131,2.65,14.186,5.27,21.917h4.51c-0.16-1.43.85-1.665,0.75-3.016C1626.64,38.958,1625.85,36,1625.96,32.1Zm-12.8-76.345c2.58-1.211,5.71-5.829,4.51-8.315C1615.3-50.664,1614.52-47.163,1613.16-44.245Zm3.77,65.76c-1.42-.837-3.56-0.965-5.27-1.51,0.35,3.864,4.59,9.667,6.77,10.59C1617.8,28.876,1617.46,25.239,1616.93,21.515Zm-6.78,1.517a1.156,1.156,0,0,1-1.5.758c1.65-1.877-.54-4.5-2.26-5.3,2.49,9.147,5.07,22.672,0,30.994C1614.7,47.757,1613.52,29.6,1610.15,23.031ZM1586.08-103.2c6.36,3.067,19.03,10.2,24.07,5.288C1599.89-97.433,1595.16-102.489,1586.08-103.2Zm17.3,140.589c-0.59,6.368-2.52,11.393-2.25,16.634,2.26-5.549,6.97-11.125,6.76-18.9C1605.07,36.174,1607.06,40.855,1603.38,37.386Zm0-10.58c0.62,1.9-1.46,6.508,1.51,6.049C1604.27,30.961,1606.35,26.344,1603.38,26.806Zm-6.02-15.118c-3.09,2.954,1.91,7.219,4.52,9.069C1601.8,16.313,1599.35,14.231,1597.36,11.688Zm-1.5,24.192c0.98,6.788-.61,13.707,2.25,17.387C1601.6,47.01,1598.76,41.305,1595.86,35.88Zm-12.8-128.5c-0.55,2.325,2.07,1.45,1.51,3.778,4.87-1.4,11.77-.783,15.05-3.778C1592.94-92.911,1590.21-92.643,1583.06-92.621Zm14.3,117.916c-0.61.848-.5,5.531,1.51,6.047C1599,28.7,1598.67,26.506,1597.36,25.295Zm-3.75-10.585c-1.42,1.441.44,1.368,0,3.783h1.49c0-.758.61-0.9,0.76-1.511C1594.43,16.9,1595.33,14.481,1593.61,14.71Zm-12.05-116.4c-0.97,3.489,2.96,2.073,3.76,3.771-9.82,1.144-22.83-5.221-29.34,0,8.24,1.195,21.37,2.367,31.61,0-1.74,1.908,6.71,2.529,7.51,0C1590.28-98.843,1586.37-100.716,1581.56-101.686ZM1587.59-.41c-1.4,18.931,2.69,41.36,6.76,55.941C1593.95,34.831,1589.46,18.406,1587.59-.41Zm3,5.3c0.01,2-.41,4.446,1.5,4.538C1592.08,7.419,1592.52,4.97,1590.59,4.889Zm-31.6-132.281c6.49,9.108,15.03,20.168,27.84,20.412C1574.94-110.665,1567.2-122.532,1558.99-127.392Zm23.33,111.111c2.33,0.524,3.12-4.326,1.49-5.285C1583.24-19.888,1582.23-18.623,1582.32-16.282Zm-29.35-117.157c-5.67,9.234,5.1,22.863,12.78,23.431-1.49-1.247-3.48-2.031-3.75-4.538,5.55,3.76,12.02,10.593,19.56,9.832C1568.16-110.4,1559.86-121.214,1552.97-133.439Zm16.55,71.051c1.17-1.382,6.68-2.3,4.51-4.538C1572.92-65.485,1568.22-63.744,1569.52-62.388Zm-9.03-32.5c-0.35,3.112,2.02-.736,2.26,2.264h-8.27c0.4,1.094-.89,3.9.75,3.778,5.01-2.767,13.14-2.415,17.3-6.041C1568.12-94.232,1564.02-97.058,1560.49-94.884Zm-18.81-.764c-0.25,3.875,8.98,2.784,9.03,0A13.314,13.314,0,0,1,1541.68-95.648Zm-3.76-61.983c-2.63-3.164-5.54-10.044-9.78-9.065,7.75,5.56,4.36,22.329,7.52,32.5C1536.89-144.48,1539.66-148.3,1537.92-157.631ZM1519.11-20.809c2.63-1.533,5.97-1.2,8.27-3.03,9.24-7.276,8.36-20.385,6.78-36.277-4.03,10.232-1.39,22.645-7.54,30.227,2.71-10.327,4.2-29.888,7.54-39.3-9.24,10.151-9.47,30.684-12.81,44.592,0.18-11.393,2.61-26.536,5.27-37.793-6.03,8.288-8.32,20.356-9.77,33.26-4.43,7.894-9.83,14.81-12.03,24.945,2.37-.378.27,3.749,3,3.025C1509.43-10.627,1511.8-16.567,1519.11-20.809Zm298.72-102.045c-1.91-2.366-5.04.42-6.77,0.756,3.56-6.718,13.74-21.967.76-25.7,1.06-4.8-8.97-8.424-14.3-6.8,3.69,2.837,11.38,1.665,12.05,7.555-6.14.139-9.24,3.324-15.06,3.782,0.02,0.734.92,0.585,1.5,0.756-7.19,4.4-6.96,20.02-18.06,18.137-4.74-.8-3.42-5.619-9.03-6.805,0.93-4.952-1.31-6.738-3.01-9.065,4.53-14.4,13.94-20.25,31.61-20.412-1.86,1.424-5.16,1.373-7.53,2.272,12.94-.154,26.6,6.673,36.12,15.873-4-8.831-11.7-13.945-21.08-17.384,9.17-.126,17.63,7,22.59,13.6,1.19-.322.64-2.373,3-1.512,1.18,2.343,1.42,5.639,3.77,6.8,0.61-.143.75-0.764,1.5-0.75-4.07-8.76-9.53-16.128-18.81-19.656,8.9-.121,14.99,9.113,19.57,15.873,3.03-4.082-2.34-6.2-2.26-9.829,4.96,1.8,6.93,8.6,3.77,12.851,5.63,0.856,9.24.68,12.04,5.288-4.29,1.22-5.86-2.5-9.04-3.777-5.85,2.474-10.18,1.827-14.29,6.052-0.76-1.01-.71-2.823-2.26-3.03-2.86.654-.65,6.408-2.26,8.316,3.17-.09,5.4-1.125,6.02-3.781a14.041,14.041,0,0,0,6.02.759c-2.61,4.437-9.68,4.39-13.55,7.555,3.41,1.138,9.9-1.125,13.55-2.267-1.53,3.6-14.11,6.691-23.33,6.8C1812.34-122.319,1815.3-122.375,1817.83-122.854Zm-29.34-30.993c2.28-.728,7.63,1.617,7.52-1.511C1793.41-154.953,1788.88-156.477,1788.49-153.847Zm-7.52,9.071c4.27-.731,8.56-1.467,10.52-4.533C1787.87-147.91,1783.48-147.277,1780.97-144.776Zm-6.78-7.555a28.1,28.1,0,0,0-6.01,13.607c2.04,0.067,1.5-1.262,3,0,0.65-9.141,9.71-11.716,12.04-15.123C1781.67-153.825,1778.54-151.741,1774.19-152.331Zm-43.64-18.145c-12.28-.518-19.63-12.53-21.82-25.7,3.58-.822,3.07,2.458,3.01,5.289,2.32,0.567.92-2.605,3.77-1.506C1718.49-181.495,1721.58-174.374,1730.55-170.476Zm120.4,77.1c-1.06,3.263-3.68-.775-3.77-3.025,0.6-.643,2.06-0.45,2.25-1.511,1.79,0.224-.82,2.048-1.49,2.267C1848.6-94.537,1849.06-93.247,1850.95-93.379ZM1832.87-402.53c1.35,5.8-11.89,9.578-15.04,15.876-1.87-.117-3.12.386-3.76,1.514C1816.44-391.617,1829.84-396.628,1832.87-402.53Zm0,284.959c-7.4-.559-17.06,4.049-19.55,1.52C1818.69-118.595,1829.05-120.794,1832.87-117.571Zm-8.26-266.058a67.115,67.115,0,0,1-24.83,12.093C1807.65-375.974,1816.11-379.824,1824.61-383.629Zm-0.76,597.135c-19.26-3.826-34.26-11.945-47.41-21.92C1789,199.138,1807.22,207.54,1823.85,213.506Zm-1.5-688.595c1.14,23.255-10.87,42.483-20.33,61.219C1807.64-432.424,1820.84-449.9,1822.35-475.089Zm-4.52,78.6a24.808,24.808,0,0,1-9.02,7.563C1812.02-391.245,1813.09-395.7,1817.83-396.486Zm-3,343.925c-12.26,1.228-19.69-8.943-28.59-13.6,6.21-1.06,13.83,9.167,21.05,12.093C1810.77-54.536,1811.63-52.371,1814.83-52.561Zm-6.02-201.06c-7.12-1.46-11.83-4.795-20.32-3.027a19.879,19.879,0,0,1,13.53-4.533c0.65-1.611-.32-4.773.77-7.563,2.5-1.007,3.8-3.226,6.78-3.78C1800.21-268.864,1807.1-257.755,1808.81-253.621Zm-7.53-114.135c-0.56,2.712-4.83,1.7-6.77,3.025C1793.22-366.328,1798.99-367.252,1801.28-367.756Zm-2.26-3.78c0,2.5-4.25.764-5.26,2.266C1792.6-370,1796.23-372.272,1799.02-371.536ZM1744.1,135.653c10.54-2.289,22.96-.66,30.85-6.8,2.28,0.546,2.73-.77,4.51-0.753,1.49-1.785,1.49.068,0,.753C1769.76,134.892,1753.08,136.9,1744.1,135.653Zm20.31-346.947h-9.03c-3.24.59-4.63,8.774-.75,9.832,0.43-3.346,5.9-1.631,7.52-3.783,0.94,2.3.58,2.941-.75,4.533,3.21-.893,3.1-4.418,2.25-7.56,8.51,2.837,2.7,13.271-3.75,12.854-14.06-.915-9.52-27.063,6.76-19.656-0.11.892-1.37,0.64-2.25,0.757,23.82,24.3-4.76,56.465-37.63,49.884-10.16-2.028-22.99-16.382-23.32-27.958,6.61,14.869,17.5,31.473,40.64,24.937-3.22-3.574-3.4-10.193-7.53-12.849-1.89,1.978-.76,2.6-2.25,5.288-3.19-2.244.01-6.973,1.5-9.068a26.281,26.281,0,0,1,12.79,9.826c10.41-2.14,17.14-7.974,15.8-21.917,9.19,10.82-8.11,18.974-12.04,26.455C1768.85-171.156,1779.51-198.034,1764.41-211.294Zm-12.04-76.339c-3.16,1.1-.45,8.108-3.76,9.065,11.2,4.015,15.82-5.2,21.06-11.337,0.35,6.838-5.97,12.19-15.04,13.606-5.65.882-18.72,7.2-21.82-2.269-0.09-3.357,5-1.516,4.51-5.285,1.71,1.3,4.22,1.818,7.52,1.5,14.47-13.45-23.58-19.589-36.11-15.112C1723.34-303.661,1743.45-299.01,1752.37-287.633Zm-39.88,2.263c-21.72,6.223-43.92,11.6-58.69,29.48-0.14-3.578,4.28-6.874,6.77-9.071,9.67-8.553,25.46-13.735,34.62-18.137C1700.29-282.242,1704.42-286.9,1712.49-285.37Zm15.8,319.734c-1.35.515-9.7,6.8-13.54,9.824A20.264,20.264,0,0,1,1728.29,34.364Zm-24.08,26.458c6.01-4.043,13.36-6.735,19.57-10.59C1718.65,54.666,1711.15,60.737,1704.21,60.822ZM1662.83-302c5.75-1.785,9.43-12.191,16.55-15.117-10.51,13.877-23.19,25.579-31.6,41.57-1.55-2.532-1.56-.529-3.76,0,3.74-7.9,4.1-16.287,2.25-27.208,4.85,5.372,1.29,12.715,2.25,18.9,6.42-9.548,5.69-26.7-4.5-32.511,6.43-.246,10.96,10.574,10.53,17.387,7.8-9.7-.94-23.28-12.04-23.431-5.27,1.853-8.77,9.762-5.26,15.877,3.94,1.454,6.47,7.912,4.51,12.851-3.79-.742-3.86-5.2-6.03-7.563-4.44-.479-5.37,1.419-7.52,1.514-3.55,13.648,19.11,19.7,6.02,31.747a15.783,15.783,0,0,0,1.5-12.849c-10.41-4.069-13.92-21.593-.74-25.7-10.78-22.066,30.55-23.675,27.84-.762,2.94-1.074,7.2-7.375,9.03-12.093,14.08-12.056,26.66-25.619,39.88-38.543,0.09-4.953,2.84-7.216,2.25-12.852,4.56,1.386-.3,7.588,3.01,9.822a1.127,1.127,0,0,1-1.49-.75C1701.35-341.39,1676.28-325.533,1662.83-302Zm51.92,279.671c0.08,3.114-7.21,5.35-8.28,9.827C1703.36-16.029,1712.28-19.465,1714.75-22.328Zm-10.54-321.241c-0.08,3.452-6.45,7.11-9.02,10.577C1694.91-336.8,1701.28-340.466,1704.21-343.569Zm-23.32,489.8c-1.97.1-8.01-8.5-9.78-13.607A137.109,137.109,0,0,1,1680.89,146.235ZM1650.04,31.342c-2.83,1.06-6.15-3.884-6.77-7.552C1646.45,25.373,1646.54,30.057,1650.04,31.342ZM1641,107.681a10.121,10.121,0,0,1-6.77,6.807c-0.01-.73-0.91-0.584-1.49-0.758C1634.48,110.7,1639.36,110.814,1641,107.681Zm-67.71-287.226c-3.95-.327-4.93-10.16-5.27-16.629C1570.11-190.964,1570.18-183.736,1573.29-179.545Zm-3.01,27.967c-7.44-4.623-9.47-14.674-15.05-21.162,1.73-2.921,3.69,3.522,4.51,5.286C1562.33-161.844,1568.13-156.4,1570.28-151.578ZM1567.27-32.9c-4.01,8.316-14.96,16.21-17.32,28.722C1549.36-14.194,1560.27-25.509,1567.27-32.9Zm-11.29-142.857c-0.86,1.525-3.63-1.34-3.01-3.783C1555.05-179.366,1554.69-176.733,1555.98-175.762Zm-26.34,92.968c-1.83-2.286-4.9.574-7.52,0,2.43-2.345,8.19-3.185,14.3-3.783-8.12,7.563-18.76,8.968-26.34,17.39-2.41,2.675-3.04,5.842-6.78,7.56,1.05,3.055-1.62,2.387-1.5,4.528-0.97-2.359,2.6-8.154,4.51-10.577C1511.77-74.547,1520.99-80.186,1529.64-82.794Zm3.76-25.7c-5.35.073-11.69-5.386-15.8-9.08C1522.36-117.045,1528.22-111.1,1533.4-108.491Zm-34.61,54.419c-3.53,5.532-20.72,19.74-9.78,30.234,2.63-1.388,3.63-4.412,6.77-5.289,1.74,0.21,1.73,2.018.75,3.027,2.41-1.11,2.08-4.964,5.27-5.3-3.55,6.172-6.19,11.8-6.02,18.143-1.74-.772-1.56-3.472-1.5-6.047-5.07,2.454-6.63-3.479-10.54-4.535-1.05-8.915-.27-14.5,4.52-20.406-2.09-1.43-4.98-2.062-6.77-3.777-1.42-17.9,22.38-30.575,38.37-34.771-14.95,8.419-32.81,13.9-36.88,33.254,3.18,0.655,9.7-1.847,12.05-4.533C1496.9-55.057,1498.15-51.859,1498.79-54.072Zm18.06-59.71c-4.36,1.843-7.05-4.5-11.28-5.291,3.43-2.812,4.8,4.849,8.28,2.263C1513.32-114.272,1515.1-114.045,1516.85-113.782Zm-36.12-15.876c-2.64,2.386,4.55,1.751,5.27.758-1.35-2.642.12-6.937-.76-8.319,0.55-2.476,5.19-.837,5.27-3.777a22.23,22.23,0,0,1-4.51-8.313c3.82,2.7,3.02,10.065,10.53,9.069,2.05,3.237,3.5,7.073,6.77,9.065,2.42-2.711-.85-6.145-3.75-6.044,3.55-4.093-3.75-7.6-3.02-13.606,6.12,7.473,6,21.2,18.06,22.677,1.17,3.191-4.18-.162-3.01,3.023-3.7-1.45-10.41-7.511-13.54-4.533-3.19-2.309-5.51-7.038-11.28-4.538,5.04,12.957,16.41,20.514,27.83,24.941-7.13,1.108-12.23-6.351-20.31-6.8-7.52-10.524-31.98-10.652-39.13-.759,1.47,2.3,1.45,6.1,6.02,5.291,1.91,3.506-2.46,4.156,1.5,6.805-7.84-.062-13.96-5.968-22.57-5.294-9.67.758-17.85,8.923-27.09,9.833,9.22,12.322,32,21.211,47.41,9.065h5.27c-0.48,3.308-3.02,4.533-3.78,7.563-1.54-.2-0.2-3.318-1.49-3.785-3.72-.706-5.1.923-6.77,2.272,1.67,0.825.52,4.507,3.75,3.777-1.14,2.179.02,2.37-.74,5.291,6.76,8.03,22.69,7.519,34.6,4.539-10.14,6.58-33.26,5.14-40.63-5.292-0.33-2.857,1.49-3.553,2.26-5.3-1.73-1.5-5.3-.3-6.77.761-0.71-.809-2.78-0.236-2.26-2.264-12.57,3.2-23.37-9.432-33.11-11.338-0.76-1-.73-2.8-1.5-3.78-1.07-.067-2.13-0.123-2.25.75,0.68-5.005,4.81-4.566,11.28-6.8,13.01-4.491,18.04-16.206,32.35-9.068C1458.33-121.516,1466.48-130.777,1480.73-129.658Zm22.57,6.8c-2.51-.011-7.32-4.227-9.02-7.563C1498.29-128.911,1500.03-125.106,1503.3-122.854Z" transform="translate(-1407)"/>
</svg>
