<svg xmlns="http://www.w3.org/2000/svg" width="329" height="397" viewBox="0 0 329 397">
  <defs>
    <style>
      .cls-1 {
        fill: #bd9658;
        fill-rule: evenodd;
      }
    </style>
  </defs>
  <path class="cls-1" d="M-87.6,521.154c1.837-1.5,3.105-.931,5.479-0.691C-82.894,523.289-85.157,520.627-87.6,521.154Zm0-78.54c0.487-2.5,4.992-.956,7.529-1.382C-80.55,443.728-85.065,442.178-87.6,442.614Zm4.789,83.365c-0.751-1.027,5.591-.79,7.539-1.377C-75.355,527.5-80.53,525.28-82.813,525.979Zm-0.679-8.962c3.176-2.43,11.465-.859,16.447-1.372C-69.877,518.775-78.4,516.163-83.492,517.017Zm2.059-79.912c11.019-2.846,17.583-1.2,26.035.681C-62.278,438.314-72.443,436.414-81.433,437.105Zm4.789,6.881c0.426-1.706,1.523-1.331,4.109-2.063v2.063c8.32,1.28,16.66-.767,30.154,2.071,5.773,1.21,12.936,2.811,17.136,6.2C-43.548,446.657-61.436,446.162-76.644,443.986Zm0-2.754c-0.507-2.114,1.887-1.321,1.37-3.446,1.806-.2.548,2.673,2.739,2.069C-72.606,441.62-74.828,441.222-76.644,441.232Zm0.69,95.084c10.968-2.323,15.888-2.348,29.464-3.451C-56.961,536.148-63.12,536.574-75.954,536.316Zm0-23.432c1.7-1.225,13.23-3.064,15.757,0C-63.556,511.618-69.471,513.485-75.954,512.884Zm0-62.695a1.051,1.051,0,0,1,.68-1.375c9.628,2.521,13.017-1.321,20.555,1.375C-61.284,451.709-68.751,451.1-75.954,450.189Zm1.359,150.887c-2.009-1.188,1.563-2.5,3.44-2.066C-70.83,601.178-74.3,599.526-74.595,601.076Zm4.809-93.016c5.367-1.249,12.794-3.272,17.807,0C-59.67,506.994-62.653,509.361-69.785,508.06Zm4.8,82.682c-0.649-2.491,2.7-.962,4.109-1.377C-60.959,591.122-63.17,590.727-64.986,590.742Zm0-74.408c0.263-1.211,6.6-2.859,6.838.683C-61.009,515.2-63.394,517.767-64.986,516.334Zm0.67,265.941c2.435-3.5,6.169-2.895,10.968-4.818C-56.616,781.433-59.67,780.125-64.317,782.275Zm3.439-279.032c0.863-2.186,7.1.125,10.958-.692C-50.721,503.969-57.752,504.332-60.877,503.243Zm6.159-90.945c-2.79-9.289,4.688-17.743,10.978-17.919C-49.189,398.559-54.648,402.726-54.719,412.3Zm2.06-175.007c8.208-2.042,14.8,3.487,21.236,5.514C-38.191,243.412-44.492,237.592-52.659,237.291Zm6.849,350.7c0.071-1.449,8.258-2.64,9.6,0C-39.327,587.006-41.519,588.408-45.81,587.988Zm1.38,187.4c0.072-1.76,2.293-1.362,4.109-1.372C-40.4,775.771-42.615,775.374-44.431,775.384Zm3.419-312.1a1.065,1.065,0,0,1,.69-1.382c23.65-4.279,43.344,5.552,47.28,25.5C0.3,477.654-5.449,466.565-19.086,463.28-25.214,461.806-32.895,462.622-41.012,463.28Zm8.229,119.191c1.593,0.926,3.886,1.14,5.479,2.071C-28.755,586.184-33.128,584.922-32.783,582.471Zm2.739,80.613c0.324-.956,6.169-1.676,5.479.686C-27.152,664.3-27.842,662.931-30.044,663.084Zm4.109,43.4c-0.578-4.716.4-7.873,2.74-9.643,2.627,0.574,5.143,1.263,5.479,4.134C-24.453,698.8-22.83,705.018-25.934,706.487Zm1.37-520.173c1.218,22.515,6.321,46.241,16.437,62.008-5-2.319-7.366-13.257-10.958-19.294-0.376-4.79-3.643-9.954-2.74-13.78-0.172-.749-1.359-0.461-1.369-1.377C-24.311,204.386-25.275,196.107-24.565,186.314ZM-13.6,497.734c8.574,1.26,15.514-3.194,19.866-8.276C5.325,498.683-7.55,501.508-13.6,497.734Zm5.469-292.82c-3.491,17.8-.386,34.716,4.119,49.608C-11.476,241.013-14.459,216.686-8.128,204.914ZM-2.639,655.5c5.53-6.795,16.447-13.026,25.355-11.018,4.636,1.045,15.076,10.283,17.126,15.157-8.2-4.767-20.738-11.069-32.883-8.272C3.286,652.215,1.308,655.561-2.639,655.5ZM24.085,342.707c2.537-1.316,6.149-4.582,9.588-2.754C30.69,341.083,27.961,342.475,24.085,342.707Zm74,335.535h2.06c-1.593,5.845-7.914,7.077-8.229,12.4-1.228.084-1.44-.844-2.739-0.691-13.829,5.815-22.068,13.479-41.791,13.78a6.82,6.82,0,0,0-4.12,2.068c-1.38-3.293-7.569-1.028-8.908-3.445,25.74,3.455,38.007-6.813,55.5-14.466C92.2,684.26,97.157,683.284,98.09,678.242ZM37.1,696.844c1.522-3.078,8.574-.564,12.337-1.383C47.675,698.532,40.654,697.561,37.1,696.844Zm1.37-192.91c4.312-6.228,10.714-11.653,13.707-19.294,0.639-1.637-1.552-4.736,2.05-4.825C52.291,491.182,46.285,498.456,38.473,503.934Zm6.859-24.81c2.069-.018,1.7,2.415,2.06,4.139C45.078,483.51,46.244,480.279,45.331,479.124Zm8.218-5.51c1.847-.188,1.948,4.854.68,5.51C51.652,479.577,52.951,474.3,53.549,473.614Zm4.109,76.48c6.686-1.34,18.649,18.13,7.539,24.8C70.98,565.383,65.39,553.924,57.658,550.094Zm1.37-120.573c-0.193-1.118.649-1.189,0.69-2.066,7.092,1.2,10.9,14.246,5.479,21.359C64.964,442.382,66.78,431.714,59.028,429.521Zm9.6,310.731c0.963-5.012,7.934-9.931,12.338-13.785C78.224,732.445,73.1,736.024,68.627,740.252Zm8.9-338.289c-0.781,3.173-1.9,4.107,0,6.881C70.453,410.012,71.213,398.681,77.524,401.963ZM72.736,296.547c1.247-2.8,4.24,3.8,6.168,4.823C76.6,302.738,74.541,297.971,72.736,296.547ZM84.383,399.209c13.027-1.387,23.468,9.475,25.355,19.289-3.227-4.571-5.966-9.623-10.278-13.089a1.89,1.89,0,0,0-1.37,2.063C97.928,401.584,89.121,400.949,84.383,399.209Zm25.355,19.98c1.745,2.068,5.651,8.806,2.06,11.709C112.325,425.771,110.164,423.351,109.738,419.189Zm1.369,294.878c2.689,1.431,4.191,4.05,5.489,6.891C114.375,719.048,111.564,717.737,111.107,714.067Zm2.05-28.251c2.537-5.958,4.961-12.008,9.608-15.843C119.448,675.15,117.55,681.738,113.157,685.816Zm19.2-61.314v-2.759c0.5,2.256,4.962.525,4.8,3.444C134.981,625.525,134.728,623.948,132.353,624.5Zm5.479,1.377c-0.649-2.492,2.7-.961,4.109-1.377C142.59,626.988,139.242,625.463,137.832,625.879Zm4.109-90.259c13.667,4.637,26.643,15.93,35.633,27.557-6.889-4.573-15.209-13.619-22.605-19.975C149.52,541.789,146.8,537.627,141.941,535.62ZM174.835,443.3c0.994-10.9,4.595-29.006,2.06-38.58C181.927,416.185,178.568,432.214,174.835,443.3Zm7.538-59.937c1.278-2.122,3.257.793,2.74,2.754C183.347,386.054,184.138,383.427,182.373,383.361Zm0.68,26.866c3.8-5.828,2.333-17.027,2.06-23.426,3.338,1.939.284,10.284,4.109,11.715,2.008-5.122,7.1-3.936,9.6-7.571,0.5,8.086-9.426,11.648-11.647,19.282C184.6,408.235,185.64,408.235,183.053,410.227Zm5.489,199.8c2.871-.956,4.647,10.867,5.478,16.539C190.946,622.311,191.575,614.325,188.542,610.031Zm0-67.52c2.658-.367,5.458,5.055,6.849,8.271C191.646,549.5,191.068,545.023,188.542,542.511Zm2.05-37.2c2.536-5.185,8.2-9.051,8.228-15.848,0.02-5.841-4.455-7.792-6.169-13.084C205.171,479.669,200.372,502.807,190.592,505.306Zm10.967,27.559c11.292,1.5,19.673,11.916,26.035,20.672C218.726,546.842,212.456,537.525,201.559,532.865Zm56.189,46.163c2.293,1.36,2.566,4.764,2.739,8.268C258.305,585.807,258.549,581.9,257.748,579.028ZM4.9,422.629c-0.812,1.087,3.44,2.939,3.429,5.509-6,8.526.386,19.926,8.9,22.051a63.688,63.688,0,0,1,4.8-8.266c7.1-.931,6.219,6.147,10.278,8.266,10.014-1.413,15.634-7.248,18.506-15.848-0.244-1.821-3.49-.62-4.109-2.066-0.355-3.321,2.983-9.7,10.268-6.886-0.771,2.89-5.316,1.987-7.528,3.443,3.784,3.119,18.242,5.259,10.278,16.539-0.893-3,.8-9.11-3.429-10.341,2.557,15.1-12.175,18.444-23.985,21.359-0.934-3.19-2.648-5.6-4.109-8.263-12.449,12.035-25.406-2.3-31.524-12.4-0.923.214-.558,1.717-0.68,2.755-1.857-.2-1.217-2.9-2.739-3.448,0.954,19.642,26.187,27.656,48.65,23.43-1.451,4.9-9.963,1.076-15.067,3.438-11.434-2.29-21.671-5.761-29.474-11.709-8.928-6.743-12.581-34.634,2.06-35.823,3.034-.245,6.25,2.408,9.588,3.446,1.623-.194-0.781-1.841-0.68-2.765-9.76-8.865-24.351,5.713-21.926,16.545,1.6,7.22,6.474,15.4,12.338,21.352,3.409,3.476,8.137,5.133,12.328,7.577,3.135,1.836,5.144,4.193,10.278,4.83,5.783-.372,20.15-0.219,27.4-2.76,1.786-2.219,8.249-4.8,11.648-7.584-0.649,4.4-9.03,6.993-13.7,9.651,3.541,2.384,5.509-2.706,9.588-2.067-5.865,6.719-16.8,7.17-26.035,8.961,5.783,4.447,18.517-1.164,26.035-4.828-4.667,6.337-14.58,7.39-24.665,8.268,3.825,6.3,12.743.275,19.187,0-1.522,2.609-5.956,2.277-8.908,3.445,1.431,21.35-12.084,37.325-29.464,44.1,9.365,3.66,22.7,4.441,26.725,15.153,3.3-1.76-.1-1.921,2.049-4.824,24.726-12.093,53.662-7.339,76.065,4.824-1.431-3.158-9.172-5.923-14.4-7.573,2.465-2.058,5.073,2.026,6.859-.7,33.441,10.016,57.132,36.313,68.526,68.214-3.48-3.632-6.717-13.462-10.278-19.291-12.378-18.8-27.486-34.836-49.34-44.1,18.659,13.158,37.49,26.149,46.59,48.922,0.193,1.413,1.837,1.372,2.75,2.061,10.318,27.139,17.38,80.773-16.447,90.261,17.492,8.307,37.683-13.981,37-35.142-1.075-.523-1.025-2.186-2.75-2.063-1.3-5.938-.943-9.282-1.36-15.849-0.385-2.458-4.474-3.792-2.749-6.2,2.019,0.275,2.324,2.262,4.109,2.754,0.143,12.73,8.533,17.157,11.658,26.869,14.519-10.347,2.262-36.167-8.228-43.4-2.608,1.137,1.765,4.524,0,4.817-12.927-33.617-32.244-60.822-63.038-76.477,17.827,6.193,30.022,18.044,40.432,31.7,3.491,0.155,5,2.3,7.539,3.438,3.145,0.265,10.1-2.4,13.018.693,1.4-.2,1.339-1.861,2.738-2.065-3.8-4.91-6.686-10.735-11.647-14.466-0.365,3.812,6.361,6.449,7.528,11.022-8.035-5.919-12.236-15.717-22.6-19.3,0.02-.666.842-0.528,1.36-0.681-0.954-1.408-2.354.671-4.1-.7,0.162-.747,1.359-0.462,1.369-1.377-10.136-8.427-34.922-10.337-52.759-11.709-2.476-.2-5-1.831-7.538-2.071-14.337-1.316-28.8-1.094-39.753-1.372a29.772,29.772,0,0,0-3.419-2.76c-12.936-.13-25.6.158-37-0.691,13.555-3.466,30.64,2.449,42.481-2.752,0.893,0.24,1.076,1.211,2.06,1.378,6.585-2.916,14.945-3.14,22.606-4.826,20.982-4.616,35.562-9.628,49.34-22.043,2.08-1.877,3.094-4.642,5.479-6.894,2.5-2.344,7.295-6.238,10.278-11.026,7.792-12.471,8.857-36.738-6.848-44.085-0.914.683-2.071,1.126-2.74,2.06,5.823,4.481,11.962,8.643,12.337,18.605-2.83-11.862-20.728-27.06-28.094-10.336-1.471-2.8-.254-5.915.69-8.269-0.2-1.625-3.044-.418-2.75.689-1.481-8.139,13.4-10.5,20.557-6.2,4.92,6.7,11.972,9.214,13.707,17.917,4.9,24.682-13.322,40.033-25.355,53.056a74.651,74.651,0,0,0,30.143-34.454c0.518-2.119-1.877-1.32-1.369-3.443,4.119-19.809-7.529-39.046-28.095-40.648-3.145-.3-3.784,4.843-6.169,1.372-8.938,4.693-10.257,18.243-4.108,24.81,1.166,0.248,1.3-.54,1.379-1.385,0.964,14.334-8.543,27.637-16.446,36.517-5.865,6.586-14.316,10.855-19.876,15.848,20.738-10.145,35.774-26.037,39.741-53.053a2.581,2.581,0,0,1,2.74,2.759c1.339-1.191,2.222-2.825,5.489-2.071,0.8-1.076-2.182-4.2-4.8-4.131,7-.837,10.856,7.458,15.756,11.025-0.091,5.606,2.294,8.723,1.37,15.155-4.961,12.242-11.616,22.772-24.665,26.869,9.944-6.9,12.277-18.183,15.078-28.246-1.807.941-2.568,2.938-2.74,5.516-1.522.375-.984-1.323-2.06-1.385-14.458,34.025-52.13,52.8-94.56,46.163,0.061-2.763-4.992-3.4-4.8-8.268,13.514-1.115,21.692-7.588,30.154-13.78,2.049-8.812,8.634-20.707,0-27.553-0.589,17.789-9.863,30.32-23.3,37.2,4.241-5.383,11.912-7.309,13.7-15.157,2.375-.152,2.243-2.805,4.109-3.445,1.076-6.085,6.291-17.343.691-19.975-1.725,2.161.233,8.039-1.37,10.326-0.68-3.85-1.583-9.778-1.37-12.4,4.951,0.352,14.813-.64,17.137,8.276,12.784-9.526,28.52-27.407,20.545-45.474-2.374-2.894-6.341-4.185-9.588-6.2-1.937,2.18-4.21,4.04-6.169,6.2-18.425,2.464-29.231-11.915-21.925-28.939-6.108.53-8.594,10.648-16.447,11.711a3.048,3.048,0,0,0-1.37,2.755c-7.275,2.134-15.493,5.307-24.675,3.448-5.184-2.7-7.3-11.368-2.729-16.531-8.157-3.365-20.941-4.76-20.566-18.606,2.953-2.324,5.541-5,9.6-6.2-1.613-4.351-6.442-5.466-9.6-8.269,0.812-4.17-3.825-8.442-6.158-11.712-5.286,3.191-9.131,4.683-17.136,4.137-8.563-8.215-15.534-16.376-13.7-30.319,2.75-20.878,25.6-32.117,45.22-33.752,0.264-2.8-4.271-.763-6.169-1.385,4.434-3.122-7.193.648-11.648-.691,1.086-2.51,6.636.525,9.588-1.378-13.4-3.43-25.851-6.235-37.672-12.4,10.978,1.359,23.457,7.174,36.312,8.957-8.6-5.6-19.734-8.651-28.784-13.785,9.04,1.049,26.217,5.787,34.953,11.712-3.592-5.652-8.391-5.826-15.087-8.266-8.756-8.442-27.942-12.918-39.742-4.137,7.4,12.048,20.942,18.554,39.062,17.916-16.365,4.051-33.584-5.855-41.791-16.534-0.629-3.147,1.136-3.9,1.359-6.2-15.96-6.243-28.51-17.169-31.524-34.451,1.877-4.085.913-11.02,4.809-13.083,3.45,5.19,3.064,10.653,6.159,15.152,4.617,6.705,12.926,7.868,18.5,11.714-4.474-4.82-10.866-9.026-13.018-17.917,3.065,0.832,3.978,3.818,4.12,7.58,4.322,3.925,9.953,6.527,12.327,12.4-11.627-1.281-20.3-6.3-26.725-15.849-3.095,4.543,4.15,9.87,6.169,13.783-2.354.079-1.745-2.834-4.109-2.76,0.477,3.428,5.184,2.6,4.8,6.889,8.806,4,15.452,13.622,26.725,11.028-9.263-6.414-21.1-6.575-26.725-15.846,10.511,7.659,24.229,11.212,39.052,15.846,0.092,1.234-.832,1.451-0.69,2.757,16.416,2.8,28.592,9.839,41.811,15.845-12.723-13.162-31.544-20.2-50.709-26.865,27.414,3.67,49.065,23.2,69.885,37.886-9.445-9.1-19.216-17.871-28.083-27.557-0.7.446-.71,1.583-2.06,1.382,1.583-6.149-7.467-12.393-10.968-17.911a1.059,1.059,0,0,1-.68,1.372c-2.171,2.226,3.48,2.44,2.739,5.513-2.719-1.4-4.708-3.532-8.228-4.136-9.659-12.63-25.081-25.815-45.9-22.737,2.892-4.358,6.544-3.871,12.328-4.82-11.282-2.3-19.166-9.442-22.615-21.355,2.912-1.209,2.973-5.284,4.8-7.585-9.243-1.137-10.837-11.719-8.9-22.048,1.329-1.413,4.4-1.076,6.159-2.063-2.628-6.871-5.865-19.465-.68-26.178,0.426-5.713-.335-10.222-2.74-13.1-2.942.438-4.423-.6-5.479-2.051,0.183-1.428,2.547-.653,2.74-2.071,13.545,5.652,23.569,14.884,28.775,28.929,3.52,0.552,5.195-.734,7.538-1.377,6.615,5.045,14.549,9.309,15.077,18.6,12.7-9.117,16.731,12.91,17.817,22.051,11.729-9.373,26.227,12.066,15.066,24.8,6.352-2.6,18.345-5.723,20.566,4.82-2.08,3.2-.751,9.819-6.169,9.646-1.481-2.721.1-5.022,2.05-6.2-0.832-2.834-3.744-3.591-6.159-4.82-2.952,2.32-4.728,5.817-7.549,8.269-4.221,20.532,3.561,35.506,12.338,48.222C8.653,271.906,3.57,262.258.1,253.144c-0.73-1.924,1.776-6.061-2.739-5.513,1.106,3.029,3.023,5.23,2.739,9.645-5.4-10.168-5.093-29.61-1.359-41.336,2.283-7.219,5.651-19.258-4.81-21.358-6.4.676-4.961,9.243-8.218,13.092-5.479-6.927,1.238-27.938-11.647-33.072-3.064,1.057-3.673,4.584-5.489,6.887,0.365,19.339,6.483,42.484,14.4,58.567-4.982-7.4-8.624-16.131-13.017-24.116,2.486-.667.578,3.095,2.74,2.759-8.3-17.779,1.1-53.694-18.506-60.636-2.2,1.005-1.8,4.624-2.74,6.891-3.3.334,1.37-3.971-2.049-4.132-1.735,10.769,5.681,24.087,10.278,33.074,0.9-8.042-3.724-16.47-3.419-26.187,4.089,16.552,7.944,33.336,13.7,48.231-4.17-4.775-5.225-12.668-8.218-18.608-18.222-18.68-11.83-54.181-38.383-64.75,2.141,7.2-.6,19.013-1.37,25.481,2.486,0.658.964-2.714,1.37-4.132,6.088,4.68,4.282,17.279,11.658,20.671-1.877-7.809-8.279-16.917-8.909-28.248,3.7,7.756,5.59,17.34,9.578,24.8,2.161-8.48-7.863-20-8.219-28.248,8.228,12.4,10.958,30.332,19.876,42.023-0.223-8.5-6.26-17.118-7.539-26.866,8.005,19.74,14.478,41.015,27.415,55.808,1.035,7.623,11.333,24.489,16.436,31.694,13.454,18.97,32.335,35.463,50.019,49.605,1.623-.013,2.03,1.189,4.12.686,0.649,1.875,2.466,2.576,3.419,4.137,16.457,4.127,25.405,15.8,39.062,22.734,1.086,2.151,3.125,6.152,6.169,4.137-7.609-9.574-19.409-14.928-28.094-23.426-7.62-3.6-16.264-6.143-20.556-13.093-3.359.619-3.226-2.277-6.858-1.378C15.451,277.014-4.252,250.569,9.009,224.9c2.262,0.39.984,2.6,0.69,4.126,2.577,0.385,2.638,3.313,4.109,4.823-6.95,14.344,1.907,32.3,10.278,39.96-1.024-6.461-2.394-22.319,6.169-23.426-5.824,4.362-6.868,16.078-3.419,24.12,6.727,1.95,6.92,10.484,13.007,13.085-0.183-4.187-6.118-8.535-8.218-13.085,0.254-8.139,1.887-18.672,9.588-21.361-8.979-1.9-15.29,11.381-10.958,20.667-4.555-1.446-3.064-8.075-2.75-10.332,1.695-11.834,14.418-16.323,27.415-11.711-3.866-6.221-18.79-4.747-24.665-1.383,6.423-8.006,21.987-4.966,28.095.691,2.811,5.894,8.888,8.508,7.539,18.6-1.978-1.992-2.151,1.342-4.8.694-1.025-.822-1.065-2.612-2.06-3.449-3.429-.245-3.6,2.806-6.158,3.449,0.842,14.417,13.189,16.509,18.5,24.8-10.978-6.838-26.532-16.794-17.817-35.136-8.908.614-12.5,6.962-9.588,15.154,5.5,15.544,29.271,24.5,35.623,37.208-6.7-4.747-11.424-11.472-18.5-15.849,0.406,2.485.923,4.39-2.06,4.823,1.492,4.736,4.931,3.281,7.539,6.889,1.208-.166,1.563-1.181,1.37-2.757,5.682,1.181,1.938,8.48,8.228,9.648,1.918-.824,3.359-2.135,6.159-2.066,2.486,5.081,6.3,8.83,9.6,13.089,3.429-2.3-2.212-5.549-2.06-8.96,2.415,1.941,3.785,4.925,5.489,7.586,1.146-19.078,34.689-24.276,31.523,2.754,2.374,2.163,6.7,8.294,3.419,11.714-0.3-15.919-18.424-9.189-17.806,3.44-5.184-8.01-1-19.182,8.218-19.98-0.639-5.769-6.2-.93-9.6-2.754-3.835,1.893-3.571,7.893-6.168,11.023-0.437-7.333,2.719-11.039,6.859-13.783,2.069,0.212,2.444,2.135,5.479,1.383-10.989-11.212-17.584,11.747-11.659,22.734-6.868-9.265-4.575-18.373.7-27.557,6.117-.01,12.986.451,16.446,4.823,1.958-3.834-3.642-5.983-5.488-8.266C96.69,308.6,96.943,326.772,100.15,339.267c2.577,2.912,6.027,4.958,6.848,9.643,1.969,1.7,5.875,1.444,4.8,6.2-1.461,2.145-3.055.148-4.8,1.382a33.93,33.93,0,0,1,1.37,6.2c4.667,1.015,3.855-3.474,7.538-3.448,0-8.986.782-20.6,11.648-20.666-0.466,7.755-6.493,9.931-6.169,17.22,0.112,2.622,1.836,7.078,2.74,9.648,3.7,10.424,11.11,20.99,13.028,31.006,3.966-4.053,7.081-8.962,12.326-11.712,5.186,2.683,8.838-1.365,8.909-7.582-3.622-3.936-7.478-7.647-14.387-8.271,0.9-1.377,3.034-1.531,4.789-2.063,0.253-1.174-.528-1.3-1.36-1.378,12.206-4,32.315,1.625,35.623,16.527C176.9,372.1,167.966,365,151.539,365.449c12.967,6.236,23.9,19.279,26.035,38.577-3.886-9.408-6.331-20.28-13.027-26.865-7.194,10.092,2.384,25.473,4.8,36.514-0.6,1.686-2.049,2.53-1.359,5.514,3.257,0.986-.528-5.129,2.739-4.142,0.406,1.65-.862,5,0.68,5.514,1.4-14.262-2.435-21.819-6.858-33.068,4.129,2.108,6.462,8.1,7.548,13.089,3.2,14.82.994,32.474-2.06,49.607,2.019-1.642.386-6.965,4.8-6.2-4.627,15.8-10.927,29.9-20.556,40.654,16.69-12.382,28.094-36.058,30.834-64.765-1.086,43.936-25.305,70.554-56.869,86.122,29.606-9.042,48.336-35,62.348-62.011-4.11,9.881-8.32,19.651-15.078,26.874,2.293,2.872,6.879-4.335,9.6-3.448,9.932-6.463,17.978-12.155,24.664-22.734a60.835,60.835,0,0,0,1.37-10.337c-9.973,1.566-15.615,3.242-21.236,8.957a100.167,100.167,0,0,0,6.849-33.76c1.958,6.973-.69,20.141-3.429,26.876,11.424-5.062,19.683-28.281,9.6-42.035,9.618,4.088,5.834,25.5,3.429,32.382,4.728,1.316,3.095,4.764,6.849,6.891,0.416,18.651-14.8,26.683-26.725,35.137-0.294,1.74,3.582,2.747,1.37,4.135-1.34,2.69-4.962.41-4.109,4.137-15.067-3.949-19.44,9.471-28.094,16.536-10.877,8.873-22.677,13.8-39.053,18.6,3.562,2.188,6.94-1.727,11.648-.683,17.238-8.616,34.912-16.8,47.27-30.319-8.766,12.994-22.747,20.757-38.361,26.865,19.226-1.326,34.506-12.614,47.279-22.734,1.583-2.994,1.289-7.873,4.79-8.952,1.755,5.781-2.486,11.183-5.479,14.468,5.458-.938,4.961-7.87,9.588-9.647-5.347,16.2-20.435,22.627-33.574,31,14.479-5.19,26.553-12.808,34.263-24.8-6.26,17.595-26.825,26.767-48.649,31.006,17.7,2.336,37.286-7.356,46.59-21.36,1.289,3.833-4.6,6.389-6.169,9.644,2.009,0.188,2.111-1.551,4.119-1.378-2.08,5.042-10.764,3.415-13.016,8.266,18.171-4.463,33.4-11.88,33.562-34.448-4.677-6.425-2.739-16.808,2.07-22.041,10.4-.429,21.316-5.919,20.556-15.16-0.436-5.228-5.429-4.957-6.859-10.331,8.888,1.874,20.059,5.5,21.925,16.534-3.946.293-2.313-5.025-4.8-6.2-11.089,12.7-13.443,33.928-19.185,50.3,6.006-4.533,10.652-18.519,11.657-28.246,1.35,21.214-14.58,38.958-30.154,48.91,16.711-7.782,32.366-22.569,38.372-43.4-3.835,25.845-27.83,40.807-47.28,50.98,7.8-.717,17.817-0.957,26.045-2.752,14.6-3.191,27.2-11.842,43.171-12.405-20.241,5.154-35.978,14.815-58.938,17.23,24.147,3.477,45.627-8.84,69.9-13.093-13.7,4.6-26.166,10.43-41.8,13.093,7.569,0.362,15.564,2.2,17.817-3.447,6.391,3.534,12.428-2.276,19.865-3.444-2.993,3.413-8.137,4.675-12.327,6.891,15.523,0.977,31.6,3.181,54.129,1.378,0.477,4.406-3.166,1.224-4.789,1.372-6.615.625-16.2,0.079-25.355,0-6.818-.056-13.565,1.377-19.186.693a41.94,41.94,0,0,0-10.288,0c3.186,3.461,14.661,1.467,18.506,6.2-6.462-1.456-16.2-2.79-22.615-2.061A152.624,152.624,0,0,0,270.765,537c-11.07.955-24.726-7.248-38.372-8.266,10.43,4.474,20.749,8.592,31.523,11.021-4.149,4.534-13.839-5.417-20.566-2.755,1.269,2.406,5.327,1.987,6.849,4.137-8.025-.686-15.432-9.164-25.334-8.274,0.152,1.215,1.166,1.574,2.729,1.378-12.013.148-26.644-5.262-34.943-5.507,0.366,3.541,2.668,2,4.8,2.753,5.753,5.006,10.968,10.551,17.806,14.468,6.666,10.99,15.737,19.544,18.507,34.453-2.507-.474-0.741-5.226-4.12-4.83,2.557-4.5-4.535-10.35-6.838-14.464,3.064,7.114,7.082,15.629,8.218,26.18-4.647-7.493-5.976-18.334-11.648-24.8,2.09,7.608,3,18.107,6.169,26.871-1.522,1.025-3.267-3.588-4.119-5.517-0.7.454-.71,1.587-2.05,1.378-0.192-1.8.254-2.961,2.05-2.755-2.425-8.037-1.948-13.315-4.789-19.977-0.822,11.094-1.755,20.609,3.43,27.557,3.337,4.489,10.683,6.481,12.327,13.088-0.091,3.374-.66,4.676,0,6.892,7.528-1.148,10.48-6.914,15.077-11.021,0.436-2.32-.893-6.4.679-7.582-6.625-12.624-13.544-24.966-20.555-37.206,10.187,10.886,14.529,27.657,28.094,35.143,2.171,0.112,2.293-1.829,4.8-1.377-2.282,4.417-4.4,3.693-10.288,3.44-2.435,12.259-13.21,23.234-27.394,23.426,1.36-2.079,2.932-3.938,5.479-4.823,2.617-18.96-19.278-15.854-21.926-31.691-1.044-6.2,2.456-10.028,1.37-17.917-0.893-6.455-6.7-9.149-8.908-15.157-2.831,3.965,1.573,9.028.679,13.784-0.974,5.211-6.4,7.223-9.588,10.33-0.284,1.66,1.248,1.5.681,3.445-1.1-1.188-2.071-2.5-4.8-2.063,12.3,9.342,26.795,19.755,29.464,36.514-4.281-4.412-5.752-11.661-8.9-17.225-9.852-8.932-19.084-18.47-34.263-22.043,5.773,10.49,10.765,21.772,15.757,33.068,9.466,1.7,14.113,4.622,25.355,6.892a12.726,12.726,0,0,1-13.708,2.063c6.717,11.405,8.95,32.711-1.37,39.959-2.515-2.611-2.577-10.275-7.537-8.263-1.685,22.729-22.4,46.629-47.281,33.76,6.6-4.637,18.192-3.3,15.077-14.472-1.1-3.942-5.814-2.764-9.6-6.885-4.16-4.545-5.287-13.816-4.1-21.36-5.692,2.318-4.119,11.946-6.169,17.915-2.8,2.7-3.612,7.4-5.489,11.017-1.431-3.293,1.593-8.024,2.739-11.017-5.4,5.133-6.463,14.616-13.007,18.6,2.669-5.812,7.113-9.84,8.219-17.228-4.414,5.675-7.874,12.291-11.659,18.608-1.328-4.08,5.561-11.267,6.17-17.919-3.957,5.664-7.276,11.966-10.959,17.919,0.62,2.5,3.867-1.438,4.11.686-2.455,3.5-4.616,7.309-7.539,10.34-3-1.135,5.408-5.2,2.05-8.958-2.2,2.135-3.551,5.144-5.479,7.575,3.166,4.881-1.653,9.087-4.8,11.709-0.01-3.79,4.809-4.468,2.739-8.266-3.378,1.421-4.515,5.1-6.838,7.585,1.126,2.724,1.837,1.413,4.1.681a140.736,140.736,0,0,1-26.024,27.565c2.587-5.2,8.188-7.381,10.958-12.4-0.243-.908-1.207-1.084-1.37-2.068-6.585,3.762-10.511,11.339-11.647,18.6-0.325,1.475.974,1.311,2.06,1.383-11.5,15.777-30.753,23.736-42.491,39.271,2.273-6.213,8.279-8.682,10.968-14.474-12.125,5.7-23.773,23.571-15.078,37.891-1.187-6.691-2.262-17.816,3.419-22.733-5.062,8.5-4.809,25.43,8.229,24.805,6.381-.3,8.989-6.215,13.017-10.334-0.122-.559-0.69-0.689-0.69-1.382-4.312,3.1-8.7,7.888-15.066,3.447-1.187-2.481-1.583-5.754-1.37-9.648,8.077-5.424,10.735-16.3,19.176-21.357-3.8,6.036-8.746,10.946-13.007,16.539,0.224,2.531-.588,6.1.68,7.575-0.294,3.017-1.451-1.3-3.43.689a8.306,8.306,0,0,0,4.8,4.827c4.455-.119,3.937-5.232,9.6-4.136a18.911,18.911,0,0,1-22.616,21.357c-7.325-5.284-15.3-15.623-10.968-28.251-3.085-.119-1.684,4.277-5.479,3.448-0.853,6.892-11.232,17.632-9.588,30.312,1.025,7.942,6.067,17.019-4.12,19.3-2.283.513-4.393-.484-6.848-1.382-2.039.013,0.964,5.111-2.06,4.137-0.121-3.081-.74-5.685-2.729-6.892,1.714-2.348,2.151,2.372,3.419,2.755-1.136-5.557-4.7-18.187-2.05-27.56-8.512,5-6.768,20.317-10.288,30.315a61.191,61.191,0,0,1,5.489-28.932c-4.565,7.125-10.45,14.108-13.707,22.734-3.8,10.089-4.555,21.5-8.908,31.694,3.643-36.132,22.869-62.386,45.231-81.986,0.985,0.154.233,2.053,1.36,2.061,1.837,0.006,1.492-2.173,3.429-2.061-0.578-2.024-1.724.893-3.429,0-0.2-1.591,1.979-.768,2.06-2.07C1.378,770.7-11,782.366-19.086,794.678c-8.056,8.2-14.5,18.028-19.866,28.932-1.359.012-.873,1.884-2.74,1.382-4.7,13.652-12.429,24.254-16.456,38.582,5.245,1.02,2.059,12.824,8.228,15.843,9.72-1.015,10.725-10.8,10.968-21.357h3.429c0.771,2.237-.05,9.493,4.1,10.34,12.967-6.516,5.043-21.844,8.918-35.142,1.684,1.308,2.669,3.744,5.479,2.065-2.151,2.286-3.409,9.345.68,10.335,8.725-.985,12.744-10.008,10.968-19.284,5.733,7.014-2.435,17.062-4.11,23.42-5.022,2.288-9.273.444-12.337-2.754,1.715,10.7-5.063,30.274-15.077,22.049-3.034,6.73-10.947,17.2-19.186,10.328-6.9,9.139-9.74,22.36-20.556,27.558a88.506,88.506,0,0,0,18.5-28.244c-0.812-2.846-1.918-5.407-1.37-9.642-5.165,1.468-4.819,14.425-10.958,17.222-0.862,6.935-5.925,9.646-6.849,16.537-3.43,1.842-4.85,5.7-7.539,8.266,1.126,1.75,2.293-2.235,4.789-1.385-3.835,3.723-8.228,6.891-14.377,8.276,0.994-5.8,3.967-4.562,6.158-6.891,3.835-4.061,7.8-14.333,6.858-20.666-0.568-3.752-5.154-6.825-5.479-11.717-0.284-3.948,3.115-7.883,1.36-11.714,2.557-.413,4.343,1.767,6.169,0,1.745-6.74,3.9-14.06,4.788-17.911-6.838,1.152-4.271,11.775-7.528,16.539-1.948-4.5.588-10.431,2.05-13.782-7.813-.969-6.909,6.817-6.839,13.782-9.273-6.386-.223-17.761,5.479-21.36-3.216-1.361-4.9-4.269-5.479-8.268,1.857-.066,1.37,1.148,2.74,0,2.577-8.434,6.1-15.917,13.7-19.292-2.435-.764-4.008-2.4-6.169-3.445-3.348-8.845,1.715-15.746,6.859-19.985-5.733-2.9-9.446,5.537-13.028,4.831,0.771-7.8,13.89-7.95,19.876-6.2,2.374-.619,4.83-4.759,8.218-2.068,0.5,3.358-2.516,2.423-4.1,3.44-5.773,3.7-9.852,8.805-13.718,14.477-1.5-.9.812-3.727,0.69-5.514-2.282,2.058-2.861,5.848-4.109,8.954,9.943,4.9,21.509,1.706,32.214-6.2a1.906,1.906,0,0,0-1.379-2.071c3.611-4.859,9.5-7.439,12.337-13.086-0.6-2.038-1.035,1.594-2.74.686,2.456-3.731,6.24-6.109,9.588-8.955-3.612-1.438-8.532,5.042-11.658,4.137,14.377-10.814,33.228-17.12,49.34-26.183-10.572,1.541-22.118,8.072-34.253,10.335C-5.663,761.5,14.619,757.98,29.564,749.2c2.628-.122.254,0.561,0.69,2.066C37,743.343,53.641,740.058,61.767,731.3c-31.6,16.447-70.332,28.626-107.577,37.2-2.05.448,0.67,1.469,0,2.759-17.928,2.436-35.42,8.159-38.362,28.929-3.52-15.8,15.1-28.9,24.655-29.622,2.942-20.467,38-16.071,54.829-22.738,8.086-.135,14.174-2.28,19.865-4.819-32.741,4.71-66.547-8.226-58.918-44.1a3.8,3.8,0,0,1,2.729-.691c-0.335-4.471,3.988-4.264,4.109-8.263,5.408-.788,8.766-4.4,13.708-4.137,9.527,0.518,15.056,10.821,17.816,19.294-1,1.971-2.922,3.038-4.11,4.823C9.627,728.78,56.147,721,72.736,705.11c-5.8-.8-10.136,3.527-17.817,4.137,0.873-3.915,4.383-1.982,6.849-2.76,9.822-3.106,19.328-7.894,26.725-14.471,0.121,7.243-12.429,7.712-13.018,16.54,6.047-.35,9.75-3.061,9.6-9.649h3.419c5.742-4.33,8.431-11.739,15.077-15.157,1.816-8.729,11.486-13.254,11.648-21.357,7.346-7.1,14.234-23.79,8.908-35.137-8.249,40.853-37.581,66.005-84.283,58.56-2.831-4.279-9.791-6.3-15.067-6.881-7.265-.806-14.245,2.854-20.556,4.126-4.393,4.137-9.4,9.279-6.178,17.917-2.841-1.5-3.886-4.815-6.169-6.889C-11.355,676.441-2.1,670.07,8.328,664.456c-2.516-2.3-8.37-1.229-8.908-5.508,6.017,6.689,18.171,1.986,27.414,6.2,1.887,0.872,2.08,1.877,6.159,2.755,8.624,1.869,17.4,7.47,26.725,6.2C39.4,669.284,29.463,655.2,6.269,654.816c23.285-8.307,36.688,21.5,61.667,15.848-3.987-3.522-11.8-2.027-17.126-5.514-3.4-2.219-4.008-6.258-7.539-7.58,5.631,2,18.111,14.38,25.355,8.271,4.19,3.619,14.285-.627,19.186-4.139-11.759-.337-25.943.839-35.633-4.818-5.773-5.448-10.684-11.762-15.757-17.911-2.831.081-4.291-1.2-7.538-.691,4.565-4.8,9.4.67,13.707,3.445-1.674-8.436-13.778-8.957-19.876-4.136,2.435-6.237,12.712-4.872,17.126-5.512-7.366-7.9-24.371,2.416-18.5,9.648-7.325-2.657,1.471-14.292,6.849-15.157,20.282-3.213,24.33,15.2,37,24.115-0.771-7.066-6.93-9.384-6.848-17.226,0.112-11.773,17.309-25.984,23.3-10.335,0.66,2.5-3.084.581-2.739,2.755,0.913,3.445,4.1,4.6,6.169,6.891,17.065-2.084,18.932-19.9,14.387-34.451-3.612-11.594-14.691-19.7-22.605-24.8-5.5,5.952-12.054,9.451-22.626,8.266,0.05,2.488,1.38,3.675,4.119,3.443,6.747,8.029,11.425,19.132,6.848,31.7-5.205,5.809-21,5.626-20.555-5.517,5.184-.158,4.495,5.585,8.228,6.894,5.479,0.918,7.873-1.268,10.957-2.76,6.291-23.647-22.25-38.723-45.221-31.694-11.546,3.535-21.681,9.34-24.675,20.674C-8.138,612.38-6.9,626.407.79,632.079c-17.4-3.933-10.816-33.622-1.37-41.337-13.7,8.016-29.565,16.846-28.784,37.2,1.086,2.588,4.414,2.912,8.228,2.759,3.653,3.2,5.875,12.887,2.739,18.6,2.678,3.007,8.178,4.15,8.908,9.646,0.68,5.062-2.334,10.77-8.228,11.716,6.788-2.482,9.192-16.869-.68-17.919-2.131,1.788-7.173,4.262-10.968,2.071,2.578-4.3,8.462-5.27,10.968-9.641,3.014-16.248-15.513-15.473-16.446-3.448-2.689-.7-0.944-5.016,0-6.2-5.418-18.615,5.347-32.074,13.017-42.03-5.417,2.313-11.262,9.245-13.017,15.843-3.531,13.277-13.6,26.812,0,37.208-5.966.627-8.919-10.932-8.218-18.605,0.547-6.088,4.8-12.051,5.469-16.535-11.79,9.865-14.833,46.525,6.869,50.294-11.323.579-16.061-11.4-19.2-21.357-3.429,8.528,6.037,15.332,8.908,22.048C-48.1,656.9-52.223,648.4-55.4,638.973c-1.553,13.04,6.869,26.124,16.446,32.377-6.118-1.428-12.327-8.728-15.077-15.85-3.155,9.708,8.137,16.546,13.707,22.052-6.068-2.629-10.136-7.266-14.4-11.711,0.609,6.109,8.137,11.059,12.337,15.849-4.667-2.89-9.639-5.471-11.647-11.026-1.9,5.738,4.353,14.79,13.017,14.471-9.933,1.941-16.913-5.05-19.186-13.093-3.186,2.093-4.982,3.526-8.908,2.753-0.122-2.359,2.323.062,2.739-2.753-4.028-6.688-5.793-16.336-6.169-24.806-4.819,5.266-2.759,14.751-1.359,22.048-3.825-3.749-3.074-12.076-4.8-17.917-2.537,4.8-1.643,13.273,1.37,17.229-6.078-2.816-7.265-17.338-4.11-24.8-1.248-1.278-4.139-.9-5.479-2.066,14.773,2.257,13.17-16.754,19.867-24.8-6.088,1.229-10.572,10.038-14.388,15.845,0.984-6.128,5.033-9.187,7.539-13.785-7.1,1.944-11.627,9.74-11.658,16.542-3.927-4.037-1.208,3.4-4.1,4.132C-90,627.812-84.487,617.2-74.595,613.477c-1.9-5.9-10.339-5.221-11.637-11.709,1.573-5.089,7.255-6.025,7.539-12.4,7.68-4.757,11.8-5.9,19.176-9.648,2.049,2.126,3.825,2.078,7.539,3.448,1.917,1.063,1.1,4.869,4.8,4.131-0.468.523-2.882,2.181,0,2.069-8.675,2.063-16.508,3.779-23.3,6.2,2.78-3.711,8.6-3.831,15.757-5.514-0.294-1.541-3.368-.278-4.8-0.686,0.365-2.856,6.169-.235,7.539-2.069-14.2-5.626-23.61,4.02-30.144,14.472,4.4,14.7,26.572,10.976,35.633,2.063-5.449-3.148-12.165,3.182-17.827,2.063,9.973-4.542,27.5-7.187,36.333-15.152-13.423,5.15-31.909,5.333-41.8,8.949,0.629-3.211,4.281-2.009,6.849-2.755,6.037-1.726,14.073-4.389,22.615-6.194,13.007-2.75,28.135-6.85,36.312-12.4,4.85-3.288,8.786-9.335,8.908-15.163,0.2-9.3-6.209-11.615-10.968-17.22a14.739,14.739,0,0,0-6.158.693c9.781-9.27,29.657,2.632,21.926,13.082,1.593-4.956-1.512-10.776-5.479-12.4,2.435,4.277,8.381,13.129,3.419,16.537,1.694-11.122-4.495-14.313-9.6-18.605,2.049,5.424,8.806,9.75,8.228,17.911-0.294,4.137-2.324,7.493-4.109,11.717,12.094-2.638,13.555-25.4,4.8-33.755-13.87-5.687-22.453,4.657-31.524,8.266,6.28-3.224,14.681-13.611,25.355-13.089,1.9,0.087,8.462,1.722,10.278,2.75,3.774,2.139,5.469,7.309,5.479,11.716-2.141-2.211-2.01-6.71-4.8-8.271,0.112,5.7,3.521,11.3,2.75,17.912-0.811,6.947-6.483,11.326-6.858,16.539,7.548-2.2,10.734-4.858,19.865-4.822-6.29-2.416-11.15,1.315-16.436.685,1.2-1.555,3.359-2.134,5.479-2.754,7.833-14.384.507-34.382-14.388-36.517-11.962-1.706-22.849,7.473-32.883,11.712,3.977-4.948,10.257-7.593,15.757-11.023a350.5,350.5,0,0,1-39.752,6.9c-5.661.569-10.41,1.829-13.017-1.382,7.934-.872,29.809-1.377,42.491-6.892-0.09-1.517-2.911-.295-4.119-0.688,5.225-3.226,15.1-2.311,20.566-6.891-8.493.625-19.663,4.279-27.415,6.2-0.741-3.352-7.549-.312-10.968,0a166.531,166.531,0,0,1-36.313-.69c10.207-1.94,17.928.794,29.464-3.442,10.805,2.083,22.91-.5,31.524-3.443-16.842-2.852-32.264,2.624-48.649,2.065,2.952-2.93,9.517-.392,10.277-4.134-2.313-1.392-7.721,1.209-11.658-.691,10.268-1.918,22.048-.828,33.584-1.377-2.892-2.14-7.762-1.054-13.707-1.377,10.359-3.451,17.664-.163,28.095-1.383-10.318-4.218-24.512-4.121-34.953-4.82,8.7-2.377,19.531.977,27.414-.683,0.274-1.653-3.115.38-2.059-2.071,2.831,2.137,5.3.436,9.6,0.694-5.925-4.617-16.214-4.831-24.665-6.894,6.635-.86,19.369.8,26.724,3.441,0.995-2.617-3.064-.138-2.059-2.75,3.287,0.834,6.24,1.991,9.6,2.75A88.124,88.124,0,0,0-43.741,493.6c10.014-.357,23.894,6.519,32.883,11.709,0.5-4.627-6.159-2.073-5.489-6.889,4.2,4.084,11.7,7.317,19.186,4.134-0.213-.935-1.715-0.569-2.74-0.691A73.971,73.971,0,0,0,11.068,493.6c0.73-11.467-6.494-24.785-15.077-31.006-6.138-4.453-14.772-4.776-19.876-10.334,2.506-.451,2.638,1.487,4.8,1.378-4.86-6.18-12.125-8.141-17.127-13.78-3.328-3.749-4.251-10.253-10.277-11.717,2.171-3.15-11.892-22.607-1.37-26.175,0.8-.275,4.018,2.339,6.168,1.373,4.323,11.846,23.833.522,15.067-8.957-1.887-1.546-5.093-1.773-6.838-3.434,7.031-2.466,15.36-1.769,16.436-8.969,0.67-4.5-3.074-10.143-6.858-11.709-6.311-2.612-11.5,1.7-15.067,6.894-6.605-3.147-9.963,3.221-15.077,5.509V386.8c-6.919,5.652-14.671,19.707-8.908,29.628,1.279-20.76,9.791-34.249,29.474-36.514-16.081,3.438-36.424,25.591-23.306,42.023,3.541,4.438,9.781,4.438,11.648,11.714,1.541,2.964,7.416,4.734,6.168,8.271-14.874-11.043-40.422-17.2-54.819-1.379,2.719,16.386,25.223,22.841,39.052,15.154,9.466,4.027,20.2-4.555,27.415,1.385-12.622-.388-28.653.171-32.214,11.017,4.535-1.191,8.259-9.161,17.826-7.579-2.9,2.139-7.761,2.313-10.288,4.83,2.2,1.916,2.11,3.237,0,5.509,4.647,0.949,6.25-.958,9.6-2.76,8.188-.925,12.875,4.076,19.876,6.2,9.862-5.773,20.648,1.6,21.246,10.34,0.163,2.55-2.993,3.091-.7,5.509-3.663,4.106-12.257,2.785-17.127.693-6.128-7.477-10.694-21.415-22.606-17.918-4.941,1.453-6.422,6.164-12.337,6.891,2.6,7.161,3.815,11.463,6.849,17.919-7.326-.566-12.946,2.479-17.806-0.694,5.266,0.166,9.79-.579,15.757-0.689-2.029-4.912-8.3-.331-14.4-2.066,1.633-2.5,7.285-.953,10.968-1.381-0.243-2.289-2.049-2.99-3.429-4.127-1.471,1.556-6.666,2.084-8.9.681,1.075-1.431,4.788-.227,6.169-1.373-2.527-5.041-15.31-6.22-19.2-1.381a13.617,13.617,0,0,0,10.968,8.954c-12.53,5.774-23.377,13.246-29.464,25.5,0,4.126,2.222,6.029,3.419,8.962,7.285,2.555,8.391,11.314,17.817,11.7,3.328,6.141,9.77,3.986,13.707,6.2-4.17,3.841-11.83,7.069-14.387,14.471-3.947-1.439.974-10.857,0.68-11.712-0.965-2.933-4.465-2.071-8.218-4.825-4.14-3.05-14.022-15.4-14.4-22.74-0.619-12.257,15.239-25.973,22.615-28.248-1.887-3.456-4.606-4.384-4.109-8.265,0.994-7.769,14.63-5.586,16.446-10.33-5.672.714-4.758-12.454-1.38-15.853-8.046,1.145-19.3-2.663-25.335-8.95-3.327-3.466-7.792-3.127-7.548-8.957,0.314-7.339,10.531-10.063,15.077-15.159-12.348-3.255-21.51-19.963-14.387-32.383,1.826,4.106,1.765,13.173,2.06,17.917,6.8,5.554,10.764,13.971,23.3,13.772-4.749-4.353-11.82-5.223-15.757-10.332-1.573-2.023-.923-4.733-3.439-6.2,0.416-6.381-2.739-9.189-2.049-15.848a36.534,36.534,0,0,1,9.588,0c0.985-3.374-2.668-4.44-3.419-6.886-2.547-8.289,2.151-14.726,5.479-20.666,7.894-5.706,18.82-4.917,22.606,3.44,1.146-10.344,6.341-16.6,13.717-20.666,10.024,0.293,12.886,8.937,12.327,17.912,9.639-3.762,27.313,5.389,19.186,19.288-5.915-2.425-6.2,4.711-12.328,4.144,0.427,3.008,3.369,3.487,4.789,5.51,2.993,15.542-10.907,10.163-15.067,17.911-2.374.319-.4-3.741-2.07-4.139C-38.658,426-20.161,444.456-6.069,452.257c-1.359-4.837-6.889-11.441-8.9-17.916-6.808-22.841,29.352-34.066,26.714-9.641C9.678,423.8,6.1,424.41,4.9,422.629ZM15.177,758.163c2.8-.183,3.389-2.571,6.849-2.068C20.9,752.815,16.04,756.679,15.177,758.163Zm-54.819-.691c-7.609,1.071-13.727,3.648-17.126,8.955,2.77,0.428,3.937,2.476,7.539,2.071,0.264-1.186-1.015-1.765,0-2.071,4.524,2.887,10.9-2.915,17.806-2.061,5.874-4.364,14.093-2.37,19.2-6.894-12.753-.015-29.332,8.924-39.752,6.894C-47.931,762-43.781,759.742-39.642,757.472Zm82.234-34.445c7.092-1.826,13.636-4.2,18.5-8.272C54.686,717.267,48.193,719.7,42.592,723.027ZM-65.677,671.35c2.06,1.4,4.089-2,4.8-4.132-3.835-7.549-6.443-12.2-6.858-22.736C-73.489,650.217-67.848,662.408-65.677,671.35Zm-7.538-35.823c7.924-.071,4.089-11.974,10.957-13.094-1.593-4.009,2.648-6.587,4.11-9.645C-66.65,616.435-71.622,627.223-73.214,635.527ZM9.7,503.243c6.97-5.389,9.5-19.417,2.739-24.806,0.933,4.984,3.987,12.85-1.369,15.16C12.509,498.282,7.9,500.493,9.7,503.243Zm-79.484-81.305c-10.5-2.986-14.073-12.953-15.077-25.483a7.737,7.737,0,0,0-6.169,0C-87.3,407.442-81.21,423.262-69.785,421.938Zm-13.028,418.9c8.31,8.1,16.163-2.155,19.186-4.139,0.913-6.895,4.606-10.987,6.858-16.527-7.183,3.343-7.924,16.828-13.707,19.281,3.216-5.042,4-12.507,8.218-16.527-7.1.707-10.521,10.967-13.7,17.912-2.15-7.677,5.347-12.229,2.74-15.848C-76.36,830.33-80.764,834.4-82.813,840.84Zm13.707-20.666c-4.332-.138-11.231,6.541-10.278,11.712C-77.7,826.221-71.916,824.686-69.106,820.174Zm0-399.613c-2.851-4.479-4.738-9.926-7.539-14.466,0.061,1.834,1.989,5.292.69,6.2-2.2-4-2.547-9.842-4.119-14.472-1.552-.193-2.577.167-2.74,1.383C-78.947,407.036-76.634,416.429-69.106,420.561Zm-11.647-35.132c0.7-7.115,2.953-16.333,6.859-17.916a25.442,25.442,0,0,1-2.06,4.823c2.121,0.486,4.373-4.137,5.479-6.887C-80.875,366.347-83.2,378.716-80.753,385.429Zm6.859,499.5c-1.177,5.947-8.553,11.425-6.179,16.534C-78.227,896.192-73.418,890.244-73.895,884.932Zm-2.06-4.824c2.74-3.728,5.124-11.119,4.109-14.463-3.561,7.213-7.356,17.848-7.538,26.175C-78.4,887.76-75.264,885.862-75.954,880.108Zm5.479-29.622c-4.576,2.519-6.4,11.459-6.169,16.531C-73.621,862.472-70.424,858.109-70.475,850.486Zm-5.479-445.077c-0.416-1.423,1.106-4.787-1.369-4.139C-77.314,403.1-77.7,405.328-75.954,405.409Zm5.479-33.073c0.121,1.032-.244,2.539.69,2.754,1.471-2.65,4.84-3.39,4.109-8.263-4.89.362-6.057,4.488-7.538,8.263C-70.729,375.755-72.647,372-70.475,372.336Zm2.739,498.818c-3.7,1.327-3.348,6.738-4.8,10.332C-68.537,880.45-70.435,873.49-67.736,871.154Zm6.858-29.628c3.176-7.223,6.017-14.517,8.218-20.671-8.624,10.393-14.732,26.988-17.816,40.651C-66.945,855.512-63.921,848.43-60.877,841.526ZM-69.106,382.67c0.609-2.612,2.475-3.935,4.12-5.509,0.4,2.195-1.289,2.129,0,3.438,3.9-.908,4.778-5.695,2.729-8.95C-66.062,373.113-70.82,380.152-69.106,382.67Zm2.739,432.676c0.345,1.737-3.389-1.923-2.739,1.379C-67.087,817.369-64.652,817.185-66.366,815.346Zm0-411.32c-0.892-2.134,2.04-3.815,0-4.817C-66.752,400.755-68.669,403.746-66.366,404.026Zm2.05,230.81c-0.376,2.155-2.293,7.679,0,8.263C-65.677,641.179-61.781,637.639-64.317,634.836Zm1.38-208.075c0.213-1.814-1.43-1.773-2.74-2.061C-65.626,426.551-64.1,428.008-62.937,426.761Zm2.06,438.191c-2.922.527-4.8,5.712-3.439,8.263C-62.927,870.71-62.582,867.147-60.877,864.952Zm19.866-47.54c2.648-.319,4.16-1.783,4.109-4.823,5.134-6.322,12.551-14.014,14.4-21.357-6.808,6.019-9.6,16.08-17.136,21.357-2.5-2.29,3.44-4.448.69-6.888-10.268,15.4-21.358,33.644-25.365,53.05,8.158-15.455,12.256-35,24.675-46.162C-38.85,815.445-41.083,815.272-41.012,817.412Zm-21.246.688c-2.029-.816-2.942,2.908-1.369,3.446C-63.322,819.949-60.593,819.705-62.257,818.1Zm-0.68-427.848c2.384-1.686,6.067-5.152,4.12-8.96-3.45.676-3.115,5.147-5.5,6.887C-62.917,388.992-61.517,387.816-62.937,390.252Zm3.419,274.9c-0.274-2.815,2.262-2.788,1.37-6.2-3.795-2.145-2.151-9.769-5.479-12.4C-63.911,654.415-63.7,661.783-59.518,665.15Zm13.707,161.9c-6.159,11.258-12.135,22.716-15.757,36.519C-55.115,853.059-49.981,837.565-45.81,827.055ZM-56.088,470.86c-2.831.383-5.144,4.907-3.429,7.577A41.376,41.376,0,0,0-56.088,470.86ZM-55.4,654.816c-1.715-4.022-2.689-8.783-4.12-13.089C-58.7,648.141-61.5,654.458-55.4,654.816Zm2.049-226.678c-2.07-2.4-3.967-.923-6.169-3.438C-59.812,427.784-54.627,428.937-53.349,428.138Zm-2.74,206.007c0.284,1.66-1.248,1.5-.68,3.446C-54,638-54.6,634.754-56.088,634.145Zm1.37-9.643c-0.457,2.094-2.435,6.23-.679,8.268C-54.627,630.148-52.6,626.364-54.719,624.5Zm16.457-270.769c-8.37-3.578-12.784,7.487-17.136,12.4C-49.849,361.846-44.918,356.921-38.262,353.733Zm-4.12,20.668c3.217-4.876,9.74-10.334,6.169-17.909-7.062,2.543-12.906,6.32-16.447,12.4,5-1.867,9.416-7.975,15.757-6.195-0.771,3.578-6.463,2.226-7.528,5.508,0.8,0.105,1.938-.122,2.049.687-4.129,3.654-10.775,4.787-12.337,11.025C-49.7,378.979-49.5,373.215-42.381,374.4ZM-48.55,815.346c-2.4-.115-2.151,2.428-3.429,3.443A3.278,3.278,0,0,0-48.55,815.346ZM-47.18,624.5c3.094-8.845,10.419-17.093,12.337-24.811-8.2,10.054-16.122,23.545-16.447,39.282C-47.475,636.6-47.566,630.312-47.18,624.5Zm1.37-202.564c5.407,5.826,7.995,18.147,16.446,18.606-8.1-5.634-10.582-16.918-17.126-24.115C-46.642,418.651-45.283,419.347-45.81,421.938ZM-41.691,818.1a4.521,4.521,0,0,0-.69,3.446C-39.865,822.209-39.652,818.162-41.691,818.1Zm18.5-375.486a163.1,163.1,0,0,1-16.447-23.425C-37.978,428.113-31.1,437.674-23.195,442.614ZM57.658,723.027c1.309-1.3,1.725-.077,3.43,0,1.958-5.078,11.952-8.9,10.278-13.094-17.847,15.348-53.226,28.246-87.712,18.6-9.314-6.235-18.709-12.42-23.3-23.425-0.771,4.9,2.324,5.937,1.38,11.023,7.5,8.312,14.772,15.08,26.034,17.916,12.835,3.234,26.7.322,41.791,0.684-0.639.742-2.526,0.219-2.06,2.071,0.538-.151,1.35-0.018,1.381-0.689C39.5,732.769,49.471,728.8,57.658,723.027Zm-96.61-20.671c2.191-.806,2.882-6.721,2.049-8.267C-37.937,696.286-40.413,699.846-38.952,702.356Zm7.528,13.777c13.626,10.375,40.33,19.123,61.677,11.025-26.166-.3-49.107-4.371-63.037-19.98,0.193-3.9-1.491-6.4.679-8.962,0.731,0.645.213,2.548,2.06,2.071-0.355-10.579,15.493-7.447,15.077-.686-5.276-8.368-15.767-3.53-15.077,6.886,3.9,6.573,13.047,10.985,17.816,2.76-0.588-1.52-4.21-3.517-2.06-5.514,1.41,0.65,1.41,2.708,3.429,2.754,1.025-11.37-7-13.637-12.337-18.6-0.944,1.565,1.765,2.586,0,2.754C-34.954,688.515-39.327,708.1-31.423,716.133Zm18.506-126.082c-8.867,8.233-27.922,22.693-19.866,43.408,1.055-.778,1.674-1.98,2.739-2.757-3.084-22.719,12.388-32.482,23.975-42.714C-8.7,588.623-11.771,589.885-12.917,590.051Zm-11.647-76.479c0.568-2.163-6.5-2.482-4.8-1.375C-26.625,511.519-27.294,514.263-24.565,513.572Zm9.6-33.069c-2.628-.224-5.225-3.415-6.859-0.688C-19.309,479.679-15.93,483.319-14.966,480.5Zm-3.43,305.9c-0.609,1.456-2.09,2.04-2.06,4.134C-18.862,790.48-16.691,787.514-18.4,786.407ZM-8.128,530.8c-2.162.807-4.678,1.263-6.159,2.755C-11.466,533.4-9.792,532.1-8.128,530.8Zm-1.36-20.662c-1.745-.551-3.328-1.253-4.109-2.768C-15.991,509.4-11.212,512.371-9.488,510.137Zm2.06,268c-0.852-2.6-4.982,2.57-6.169,4.136C-10.421,782.03-9.762,779.243-7.428,778.139ZM0.79,579.717c-3.927.183-5.763,2.471-8.218,4.131A26.427,26.427,0,0,0,.79,579.717Zm10.278,191.54c-1.492-2.435-4.718,4.736-8.229,4.818-1.42,2.464-2.718,5.063-5.479,6.2-3.876,11.02-5.672,26.649-.69,37.9,5.194-.946,7.823,2.084,10.288-2.762-9.121-18.261,4.251-42.648,15.067-53.046C5.417,772.943-2.964,795.988.1,818.1-6.231,799.919,1.277,781.193,11.068,771.257ZM1.48,420.561C-2.609,419.8-7.144,424.2-6.069,430.9-3.339,427.661-2.193,422.844,1.48,420.561ZM2.16,530.116c-1.562-1.38-4.83-.28-6.169.683A6.247,6.247,0,0,0,2.16,530.116Zm3.429,52.355a13.224,13.224,0,0,0-7.548,3.448A11.95,11.95,0,0,0,5.589,582.471Zm0-139.173c-1.694-6.167-2.334-10.985.68-16.537C-2.781,421.923-.64,442.178,5.589,443.3ZM23.395,676.864c9.923,0.345,17.837,6.43,27.415,7.58,2.831,0.334,5.793-1.464,8.908-1.383,8.461,0.223,14.144,1.2,20.556-4.819,6.909,0.54,9.426-5.545,14.388-4.824,12.885-13.718,28.6-30.257,24.664-56.493,0.8-.118.752-1.09,0.691-2.071a14.88,14.88,0,0,0,4.8-4.132c-1.329-.967-1.025-3.568-2.05-4.828,1.461-34.915-30.539-56.551-58.248-59.937,1.837,5.4,5.875,4.8,10.278,5.512,18.019,2.912,38.657,22.412,43.851,39.959-0.9,7.44,4.251,15.167.679,22.049,0.011-31.447-17.187-53.153-45.91-59.255-1.328,1.689,1.766,3.342,2.06,5.51,25.324,4.8,38.291,25.113,40.431,50.99-1.278,2.533-2.9,7.406-2.059,11.711-1.816.01-3.906-.257-4.789,0.691-0.68,5.3-.933,11.01-5.489,12.4a99.491,99.491,0,0,0,4.109-9.648c-6.625,5.978-12.712,17.684-23.985,15.156-5.073-1.139-7.8-5.855-11.637-9.644,1.2,11.405,13.463,12.5,23.3,10.336-0.477,2.958-6.179.676-6.858,3.448,5.1,2.823,11.353-5.718,13.707-3.448-6.534,6.21-14.63,5.917-23.975,5.509-3.46-5.94-9.73-9.057-11.658-16.534-0.751,14.665,11.931,23.469,27.414,22.043-16.782,4.139-24.32-5.448-29.464-16.532-1.968,12.91,15.6,25.423,30.144,21.357,2.557-3.479,7.4-5.514,10.278-9.64,1.988-2.846,2.009-9.7,6.859-8.271,0.761,6.746-2.771,9.153-2.74,15.157-10.5,14.591-26.775,24.938-43.861,26.874-16.487,1.864-24.442-5.389-36.312-6.9S9.14,674.724,3.53,681C9.637,678.843,15.644,676.594,23.395,676.864ZM12.438,475.683c1.735-3.369,7.863,1.992,9.588-1.383-2.222-.6-6-2.252-8.218-0.686-1.431-2.606-8.736-6.189-9.588-4.825C6.746,471.3,8.3,474.8,12.438,475.683ZM31.624,670.664c5.966,3.349,25.821,11.875,34.943,6.2,1.065,2.6,5.367.23,5.489-.691-8.645-.594-18.111.717-29.464-2.755-11.4-3.488-26.653-10.349-34.263-2.068C14.375,670.323,26.48,671.491,31.624,670.664Zm-6.848,64.76c-4.414,2.186-14.042.584-15.767,3.446C13.747,739.834,22.239,738.941,24.775,735.424Zm-5.489,26.185c-1.106,1.17-3.845.722-4.109,2.757C16.861,763.756,19.124,763.744,19.286,761.609Zm0-221.166c-0.071-2.913-1.837-4.117-4.109-4.823A7.8,7.8,0,0,0,19.286,540.443Zm-0.68-49.6c2.2,0.6,1.421-1.787,2.74-2.065,1.116,4.8-3.216,7.756-1.37,11.018,4.992-5.632,4.088-14.079,1.37-21.358a17.739,17.739,0,0,0-5.479-2.063C16.07,482.464,20.088,484.855,18.606,490.842Zm0,0.684c0.4,1.839-2.029,4.305,0,5.514C18.749,495.75,20.372,492.477,18.606,491.526Zm2.74,47.54c-0.376,2.665,1.228,3.366.68,6.2-0.8-.1-1.553-1.225-2.05,0a48.408,48.408,0,0,1-.69,22.742c10.948,1.4,18.76-.266,31.524,2.754,4.434-12.78-4.617-21.51-6.849-27.56,8.1,3.874,11.029,16.367,8.909,28.246,1.653,1.316,4.139,1.811,6.158,2.76,3.47-10.441-3.795-19.57-4.8-25.5,4.485,6.346,9.842,16.6,6.169,26.869-2.922-.413-6.94-2.592-8.908,0-0.5-6.318-15.107-5.251-18.5-4.132,10.258-1.122,18.953,8.238,27.4,8.962,7.64,0.651,10.948-4.868,17.126-9.648,0.761-7.417-.76-6.233-4.109-11.712-6.7-10.987-21.3-17.559-33.573-18.607,3.45,4.555,6.615,18.929,2.06,24.805,2.455-14.07-4.231-22.737-10.278-30.309,1.218-.163,3.43.691,2.74-1.385-3.9-2.28-8.259-7.766-13.7-6.2,8.624,5.33,15.909,15.685,17.126,26.18-2.952-1.168-.73-7.527-4.12-8.271,1.208,8.327,1.989,17.679-2.739,22.742,2.465-8.855,4.2-21.227-2.049-27.565,0.578,3.341,2.739,8.707.679,12.4-1.836-1.615.964-11.5-2.729-8.952,2.05,8.651-.65,14.344-3.44,19.975C25.394,556.745,26.916,543.965,21.346,539.066Zm19.866-60.629c-3.044-.538-4.109.916-6.848,0.687-0.7,4.244.467,8.128,0,11.718-1.39,10.824-8,16.436-13.7,23.421C33.735,508.32,40.238,494.56,41.212,478.437ZM24.085,505.306c-1.623.428-3.185,0.926-3.419,2.754C22.706,508.057,23.538,506.821,24.085,505.306ZM37.1,796.055c3.977,0.484,10.613-1.31,12.337-6.891-3.561,1.479-8.411,1.644-10.277,4.822-15.219-2.175-16.549-20.951-8.909-32.377C16.577,767.988,23.862,794.438,37.1,796.055ZM26.835,477.746c-2.171,4.31-.254,12.92-0.69,17.223,2.608-2.879,2-9,3.419-13.084,3,6.343-2.668,13.3-1.369,17.91,3.9-6.216,4.687-10.251,4.109-19.292-1.269-2.491-4.241.309-4.8-2.066-0.263-1.65,3.125.388,2.06-2.063-0.609-1.444-2.019-2.1-4.109-2.074a4.485,4.485,0,0,0-.68,3.446h2.06ZM41.212,723.027H30.254c0.852,2.231-2.222.522-1.369,2.754C31.959,723.819,38.686,725.534,41.212,723.027ZM48.06,447.435c-6.138.476-9.527,3.739-15.756,4.136v2.064C38.2,454.859,44.347,450.646,48.06,447.435ZM46.01,576.962c-2.587-.862-7.893-2.6-10.957-0.691C38.919,575.843,43.281,578.533,46.01,576.962Zm13.708,75.783c-5.5-7.338-10.988-14.677-17.816-20.666C46.832,639.985,50.942,648.71,59.718,652.745Zm6.169,5.512c-6.433-1.577-15.635-8.58-21.246-15.158C45.534,650.735,57.577,660.371,65.887,658.257Zm43.851-109.546c0.06,1.882-1.147,1.391,0,2.758,9.232,6.1,14.224,16.478,21.246,24.8C121.6,549.713,98.537,531.706,65.2,533.554c0.345,2.178-3.4.26-2.739,2.762C75.221,534.085,98.385,538.2,109.738,548.711Zm-28.774-18.6c-7.184-1.043-16.823-2.2-17.817,2.061C65.887,530.466,74.562,531.5,80.964,530.116ZM70,724.4c-1.735-.383-8.31,3.425-6.169,6.891C65.065,728.175,68.515,727.276,70,724.4Zm-3.43-51.672c-2.009,1.015-2.547-.782-3.419,1.373C64.122,675.16,66.708,674.775,66.567,672.732Zm10.957,1.373c-2.415-.365-3.52.589-4.109,2.068C74.389,677.063,77.1,675.824,77.524,674.105Zm8.229-35.823c11.374,0.385,19.977-12.62,20.566-25.494,0.75-16.6-9.04-29.893-17.827-36.517,6.158,9.674,15.614,23.163,15.077,36.517-0.365,9.258-5.276,22.058-20.546,22.048-2.5-3.476-7.681-6.315-5.5-12.4C69.407,628.488,78.5,638.031,85.753,638.282Zm3.43-70.274c-3.348.191-6.636-6.394-8.909-2.76C83.084,565.894,86.1,569.933,89.182,568.008Zm41.8,0.686c2.891-6.838-6.383-12.071-8.219-18.6a14.77,14.77,0,0,1-6.859-6.892c-8.958-3.6-19.987-15.34-33.583-12.4C105.487,536.452,119.458,551.346,130.984,568.694Zm-2.74,13.089v-4.821c-8.522-16.011-20.5-28.554-38.383-35.142-0.527.158-1.349,0.02-1.369,0.691C106.45,550.879,120.056,563.605,128.244,581.783ZM97.4,696.844c-1.39-.2-1.339-1.864-2.739-2.071-0.8,2.875-3.866,3.464-4.109,6.891C93.981,703.677,95.118,698.2,97.4,696.844Zm16.447-130.219c-1.38-1.369-2.232-3.259-4.109-4.131C110.651,563.909,112.223,568.212,113.847,566.625Zm-3.419,43.406c0.416,1.872-.873,5.468.679,6.2C111.27,614.963,113.329,610,110.428,610.031Zm1.37-.691c-0.112-1.946.588-4.726-1.37-4.818C110.925,606.085,109.19,609.893,111.8,609.34Zm6.158-75.786c-2.364.937-3.226-3.088-4.8-.689C114.242,533.225,116.83,535.518,117.956,533.554Zm29.474,63.382c-4.87,3.377-10.359,6.5-17.137,2.755-3.784,6.874.711,14.67,10.279,12.4,17.512-7.187,13.017-43.742-.68-50.289A44.743,44.743,0,0,1,147.43,596.936Zm-24-47.531c8.563,10.485,21.408,19.46,18.506,39.268-1.644,2.023-4.88,2.449-5.479,5.509,5.043,0.485,5.956-3.19,9.6-4.131C148.069,572.369,137.295,553.287,123.435,549.405Zm16.457,80.609c2.516-.031,8.441-2.273,10.957-4.827,1.238-1.249.852-3.256,2.06-4.825,2.8-3.621,7.092-6.955,8.218-11.709,2.273-9.589-1.359-20.551-4.109-28.243,0.477,12.87.193,28.494-6.848,35.821-0.1-.807.121-1.951-0.691-2.066-4.048,6.22-16.852,8.521-23.3,2.76C124.328,624.7,134.2,630.077,139.892,630.014Zm14.387-35.832c-1.877,8.583-7.438,21.552-18.507,22.049-3.845.173-6.037-3.321-10.277-2.066C139.923,625.971,157.688,608.459,154.279,594.182Zm-21.246,46.853c-2.861-.589-1.5,3.082-2.74,4.14C132.769,645.367,131.866,642.156,133.033,641.035Zm-0.68-5.508v4.132C134.332,639.542,135.255,634.816,132.353,635.527Zm3.419,9.648c0.021,1.62-1.166,2.023-.679,4.127C137.285,650.278,136.828,645.183,135.772,645.175Zm7.539-88.2c-2.161-3.1-4.322-6.213-8.218-7.572C137.031,552.29,140.1,557.678,143.311,556.977Zm1.38,34.451c-1.055,4.236-5.621,4.925-8.919,6.891C139.638,602.438,147.917,594.33,144.691,591.428Zm4.1,57.185c2.323-3.734,1.359-13.168,2.749-19.289C147.238,632.8,146.162,643.861,148.79,648.613Zm4.119,3.443c-0.111-9.526,6.575-15.889,4.109-25.486-1.876,8.907-5.9,15.659-6.848,25.486C152.037,652,151.539,653.212,152.909,652.056Zm0.68-79.916c1.481,0.168,4.261,2.53,4.8,1.377-3.369-2.816-4.607-7.771-8.218-10.34C150.434,567.041,153.68,567.916,153.589,572.14Zm1.38,13.779c-1.248-2.481,1-8.25-2.75-9.648C153.031,579.155,153.112,586.371,154.969,585.919Zm2.739,70.274c1.593-4.685,4.962-13.04,2.049-17.911C159.129,643.77,149.479,652.539,157.708,656.193Zm4.8,6.891c4.2-15.106,10.288-32.173,5.479-48.23-0.02,10.76.649,21.383-2.75,31.694-1.288-.515-0.466-2.056-2.049-0.694C162.639,651.182,156.247,659.284,162.507,663.084Zm6.169-2.759c7.245-15.18,10.278-40.093,2.049-53.74,6.331,19.087,0,46.9-9.6,62.011C164.029,667.377,167.113,663.571,168.676,660.325Zm-5.489-28.934c-1.014,2.731-.639,6.23-1.37,7.582C164.516,638.432,164.211,634.17,163.187,631.391ZM-82.123,244.182c5.7,11.816,14.154,16.6,27.4,20.677C-63.789,257.9-75.092,253.2-82.123,244.182ZM41.212,276.57c-0.954,1.985,1.867,3.5,0,4.135-3.155-4.928-6.422-12.844-4.109-19.295-8.188,12.656,5.489,24.556,10.958,32.383-0.629.737-2.516,0.212-2.05,2.063,3.927,1.342,7.022,3.512,10.278,5.514,0.741-2.476,1.725-4.7,2.06-7.577C50.6,290.108,47.462,281.765,41.212,276.57Zm39.062,38.58c-0.578,4.514,3.856,6.8,7.539,8.955-0.659-3.7-4.545-4.158-4.789-8.264A3.839,3.839,0,0,1,80.274,315.15Zm39.742,33.76a29.928,29.928,0,0,0,4.109-6.891c-12.693,8.751-3.105,34.325,4.809,42.724-0.05,7.167,6.1,14.063,8.219,21.352C135.6,381,119.448,375.258,120.016,348.91Zm6.858,37.2c-1.734.559-2.729,1.849-4.109,2.755,1.491,1.247,1.471,4.019,2.73,5.509,2.11-.477,1.319-0.477,3.439,0C130.253,392,127.321,388.893,126.874,386.115Zm-0.69,60.626c-1.593-.461-1.836-2.285-3.419-2.755-7.558,31.75-32.173,49.782-58.248,60.634,11.445-1.745,26.228-11.015,37-17.916,3.551-4.464,6.5-9.536,12.327-11.712C117.53,465.142,124.115,458.208,126.184,446.741ZM-72.535,190.448c-4.444-3.343-4.068-11.522-8.218-15.162C-87.044,181.955-79.323,192.7-72.535,190.448ZM-53.349,218.7c-5.033-7.111-12.044-12.237-15.067-21.367h-4.12C-68.66,207-61.669,213.509-53.349,218.7Zm-23.3-19.985c-0.03,8.8,6.088,20.173,16.447,18.6-0.152-1.3.771-1.52,0.68-2.756C-69.1,214.794-68.355,201.723-76.644,198.714Zm5.49-8.266c4.17-.222,6.189-1.193,8.9-1.38-2.262-3.693-3.075-8.839-7.528-10.329-0.731,4.588,4.495,6.231,3.419,8.955-5.692-1.625-3.186-11.5-10.278-11.714C-77.659,183.659-72.149,184.776-71.155,190.448Zm28.773,33.76c-7.345-8.36-13.128-20.753-22.6-24.8,0.375,1.229.345,2.856,1.359,3.44,3.419-1.57,3.683,5.928,7.538,6.2,0.852,2.231-2.211.527-1.369,2.759,3.52,2.89,8.817,3.991,9.6,9.646C-45.3,221.627-43.964,223.05-42.381,224.208Zm3.43-.691c-2.577-9.516-14.083-17.545-19.2-27.557-1.441-2.846-1.806-5.723-6.169-4.831A263.047,263.047,0,0,0-38.952,223.517Zm-17.137-31.694c-2.415-4-4.5-11.987-8.228-12.4C-61.161,183.149-60.786,189.665-56.088,191.823Zm11.658,9.65c-4.931-4.233-6.645-11.7-11.658-15.853C-52.892,191.142-49.351,199.974-44.431,201.473Zm4.789,14.467c-1.4-6.4-5.326-10.258-9.588-13.781C-46.8,207.521-43.02,211.522-39.642,215.94Zm2.05,126.767c-7.427-26.682,13.961-40.026,32.9-46.851C-27.456,297.407-49.412,321.146-37.592,342.707Zm15.767,6.894c-0.436,1.392-3.206.459-3.419,2.063,7.438,1.444,10.969-6.822,13.7-12.4,0.547,3.538-.741,5.231-1.37,7.58h3.429c2.192-6.568.873-22.355-7.538-22.048-5.854.211-6.463,8.755-6.168,15.154-4.647-3.252-4-12.27-2.05-15.154-5.336,2.325-3.043,9.757-4.119,15.154-4.068-3.538-2.993-13.816-1.359-19.289C-37,330.022-34.061,351.34-21.826,349.6Zm-6.859-32.388c7.031-9.921,18.324-15.57,34.953-15.843-15.99-3.9-30.966,5.137-37.692,15.163C-30.115,316.374-29.9,317.3-28.684,317.213ZM83.693,337.89c-0.173,2.014,1.552,2.114,1.38,4.129,11.3,8.161,18.009,20.938,26.725,31.693-15.554-29.28-38.779-56.741-74.006-66.825-22.5-6.448-58.817-6.6-67.836,17.912,3.683-5.209,15.31-6.376,19.866-1.386,13.575-8.839,32.68-6.319,47.97-5.508-4.434-1.516-10.369-1.516-13.707-4.132C50.394,316.074,65.9,328.7,83.693,337.89Zm-97.29,9.643c-1.907,1.3-3.246,3.175-4.8,4.822C-16.3,351.685-10.979,350.67-13.6,347.533Zm58.239-24.806c-17.208-5.488-36.089-6.378-52.769,1.378-0.02.884-.873,0.956-0.67,2.068C5,319.511,29.017,320.1,44.641,322.727ZM-7.428,347.533c4.424,4.67,9.274,9.737,15.757,12.4,1.106,0.449,2.293-.813,2.74-0.688,2.79,0.793,4.941,3.547,8.908,4.129,18.262,2.708,34.466-6.7,50.709-2.064-5.133-4.187-19.906-3.376-30.153-2.065-4.282.54-8.655,2.759-12.338,2.065-1-.191-1.837-1.953-2.74-2.065-0.334-.038-8.309,1.525-8.228-1.382,13.007,1.5,23.914.606,32.9-4.132,3.166,0.637,13.007.727,18.5,1.377-7.447-4.815-19.247-2.474-28.094-4.126,8.339-1.926,27.231-3.082,26.724,1.371,2.09-4.309,6.28,2.766,8.908,0-6.666-1.912-13.879-7.564-19.2-4.138v-2.748c-11.982-2.14-19.845-1.242-31.514,2.748,2.588,2.736,8.411,2.527,11.648,2.767a6.217,6.217,0,0,1-2.739,2.749c-19.085,1.408-29.15-1.225-41.112-8.264C-6.789,346.347-7.621,346.421-7.428,347.533Zm26.714,4.822c-0.548-2.43-3.6-2.338-3.419-5.508,3.267-18.718,30.123-14.584,45.9-11.717-15.35-10.365-50.76-17.779-69.2-4.823C-7.621,346.8,4.625,350.8,19.286,352.355ZM4.9,379.229c-2.222-2.415-3.916,1.535-5.479,2.063-2.668,14.938,22.038,14.211,25.355,8.96,1.786,0.265,3.754.352,4.789,1.372-4.647,4.28-17.7,10.074-9.588,18.6,3,0.51-.547-1.365,1.37-1.383,1.643,0.881,2.962,2.079,4.8,2.765,11.983,0.844,16.934-6.585,25.344-11.027,3.166-7.139,11.455-13.638,19.2-16.53,7.234-2.717,15.585-.569,20.557-1.382-18.375-7.294-31.757,4.636-41.8,12.4,2.952-7.6,11.972-9.089,17.126-14.473-1.278.161-4.535,1.783-5.479,0,4.038-.684,10.227-5.249,14.387-1.37,0.365-1.938,3.307-1.275,4.8-2.068,10.562,1.777,17.462,7.255,25.344,11.709,0.751,3.152,3.846,3.953,5.489,6.2,1.624,3.6,5.327,6.912,7.539,11.023,1.481,2.76,1.694,8.2,4.789,8.271-1.938-2.892-1.725-7.544-3.419-11.03-2.273-4.667-8.147-9.256-10.278-13.084-1.289-2.336-5.114-8.1-6.859-9.653-1.583-1.413-5.824-2.571-8.9-4.821-10.917-7.949-27.709-14.833-43.851-9.645-7.366-3.634-15.594,1.584-21.245,1.38-4.17-.154-8.026-3.03-13.018-0.686a89.135,89.135,0,0,0-16.447-6.2c22.352,17.09,59.943,2.66,79.484,8.952,2.049,3.915,9.253,2.637,10.957,6.891-2.607.105-3.3-1.727-5.478-2.066-0.6,1.01-.538,2.668-2.74,2.066-23.133-10.243-45,11.936-71.945,6.894,18.537,1.28,34.355-7.748,48.65-10.334,9.578-1.732,17.279.991,24.675,0.685-22.189-10.359-49.918,2.576-67.156-2.063,3.186,5.2,11.4,2.155,15.067,4.129-9.283.6-14.661,0.873-25.345,1.383C4.3,377.556,6.4,380.869,4.9,379.229Zm15.767-37.9c-0.162,2.221,1.208,2.912.68,5.517,6.849-.286,15.229-3.9,23.985-4.14,5.64-.153,11.059,3.013,15.757.694-8.736-3.6-16.761-4.473-26.725-4.134,15.614-5.891,30.712,4.805,43.161,10.334C68.251,337.367,36.037,326.4,20.666,341.33Zm19.867-68.9c-0.843-5.208.791-9.6,2.739-13.771C38.148,259.584,37.539,269.039,40.533,272.433Zm6.858,47.54c-2.334.9-4.789-1.533-5.489,0C43.545,320.35,46.863,322.542,47.391,319.973ZM50.13,324.8c-1.258-.185-3.845-2.485-4.8-0.694C47.026,324.421,49.4,327.565,50.13,324.8Zm35.623,68.208c-11.019,1.764-21.5,13.716-9.588,21.359-3.825-.518-5.175-3.534-8.228-4.828,0.487,7.759,7,5.284,12.338,8.274-12.327,2.4-15.361-4.749-18.506-13.094,2.831-12.864,17.827-17.8,28.785-16.539-19.511-8.366-40.128,11.005-28.094,27.559,0.943-1.566-1.766-2.589,0-2.749,3.764,4.325,10.054,9.834,17.126,7.572,4.809-1.53,3.886-6.389,7.539-9.64,5.286-.939,8.959,3.371,11.657,2.754-1.278-3.081-5.316-3.387-7.538-5.512,16.193,3.255,17.207,21.176,18.5,34.451,1.177-1.535.6-7.827,3.419-9.65-0.254,13.065-5.682,20.921-8.9,31.01-5.672,2.647-6.1,7.531-9.6,11.709-7.691,9.179-22.829,13.622-29.464,22.051,27.617-12.788,50.507-35.673,52.08-70.279,2.85,34.667-25.061,57.672-50.02,73.033,27.83-9.908,46.255-29.276,54.818-58.565-5.905-5.338-.517-12.26-0.69-18.6-0.141-5.54-4.778-9.294-4.108-15.16-1.655-.347-3.542-1.961-2.06-3.445-2.192-.61-1.421,1.79-2.73,2.066-6.168-5.583-13.321-17.305-23.995-13.777,9.354,1.616,14.844,7.125,19.186,13.777C99.937,402.634,96.172,394.465,85.753,393.007ZM63.827,328.242c-1.44-1.312-3.5-1.982-5.479-2.755C58.338,327.828,62.894,329.137,63.827,328.242ZM78.9,358.558c-1.461-1.923-7.9-5.6-9.6-2.757C73.456,355.771,75,358.349,78.9,358.558Zm43.861,128.836c0.994-1.163.954-3.343,2.05-4.82,2.211-2.986,5.783-5.244,7.538-8.274,3.44-5.955,6.341-14.917,4.109-22.043-2.9,3.75-3.409,9.9-4.8,15.155q-17.9,33.329-58.927,43.408c-0.1.816-1.218,1.561,0,2.064C89.923,508.489,110.509,501.707,122.765,487.394ZM87.123,368.2c-2.729-3.465-8.574-7.452-13.708-6.2C77.676,364.381,83.267,365.424,87.123,368.2Zm17.816,84.741c-4.941,13.175-18.374,21.484-24.665,31C90.024,475.614,102.565,466.412,104.939,452.944ZM87.123,346.156c-0.822-4.217-4.647-5.423-7.539-7.575C80.649,342.554,84.961,343.283,87.123,346.156Zm-0.68,118.5c-2.7,1.2-3.906,3.892-6.169,5.516A10.123,10.123,0,0,0,86.442,464.658Zm15.078-12.4c-5.388,6.073-9.883,13.038-15.078,19.3A60.443,60.443,0,0,0,101.52,452.257Zm-9.6-93.7c-1.522-1.459-2.831-3.124-4.8-4.139C87.853,356.245,90.663,359.553,91.921,358.558Zm0.68,57.871a12.6,12.6,0,0,0-2.049-4.131c-0.011,1.367-1.867.874-1.37,2.749C91.292,414.537,90.5,416.947,92.6,416.429Zm0-81.99c0.193-2.943-1.979-3.512-3.419-4.823A6.277,6.277,0,0,0,92.6,334.439Zm17.826,51.676c-2.689-9.013-11.019-12.351-18.507-16.539a1.059,1.059,0,0,0-.679,1.382C99.034,374.608,103.853,381.239,110.428,386.115Zm-14.4-53.048c1.8-2.314-.446-5.16-2.049-6.2C92.175,329.178,94.834,331.608,96.03,333.067Zm18.506,181.2c-7.02.036-14.326-.449-16.446,2.754C104.4,516.946,111.117,517.262,114.536,514.263ZM107,452.257c-0.548-2.384.761-2.912,1.37-4.131C105.467,447.22,104.675,451.956,107,452.257Zm9.6-57.878c-0.426-3.487-2.729-5.06-3.439-8.264H111.8c0,0.692-.558.824-0.691,1.378C113.634,389.094,113.776,393.078,116.6,394.379Zm-1.379-28.93c-6.108.671,0.426,6.236,0.689,8.952a4.831,4.831,0,0,0,4.11-2.752c-3.389-1.65-.67-9.439-4.8-10.337v4.137Zm6.168,19.98c4.3-1.4,3.064-7.314-.68-8.268,0.508,2.117-1.886,1.321-1.38,3.438C121.588,382.106,120.888,383,121.385,385.429Zm3.43-58.565v-2.759c-2.334-.051-2.557,2.032-3.43,3.448A4.448,4.448,0,0,0,124.815,326.864Zm2.059,80.608c-1.075-1,.711-4.177-2.059-4.818C123.1,404,125.738,409.13,126.874,407.472Zm5.479,116.442c-0.385-2.655-4.291-2.171-5.479-.7A12.64,12.64,0,0,0,132.353,523.914ZM129.6,407.472c1.7,0.9,3.329-1.535,3.43,0,1.725,1.939-1.979,2.589-2.049,4.826,1.257,1.946.8,5.616,4.109,5.514a1.049,1.049,0,0,1,1.369-.691c-0.75-7.412-2.414-12.931-4.8-19.977h-4.109c0.152,1.3-.771,1.517-0.68,2.748C128.985,401.221,129.705,403.919,129.6,407.472Zm11.659,69.589c-2.344,1.1-5.195,5.312-4.109,7.579C139.314,482.911,140.024,479.72,141.262,477.061Zm-3.43-59.94c1.289,0.762,3.237.879,4.8,1.377-0.325-3.523-4.18-8.812-6.169-9.654C137.041,410.41,137.345,413.726,137.832,417.121ZM144,415.738a1.061,1.061,0,0,1,1.37-.691c-1.5,1.711.486,4.1,2.059,4.828-2.272-8.338-4.616-20.666,0-28.251C139.861,393.2,140.937,409.75,144,415.738ZM165.926,530.8c-5.793-2.794-17.329-9.3-21.925-4.82C153.345,525.541,157.657,530.149,165.926,530.8ZM150.17,402.654c0.537-5.8,2.292-10.385,2.049-15.161-2.059,5.057-6.351,10.14-6.159,17.225C148.627,403.759,146.821,399.492,150.17,402.654Zm0,9.644c-0.569-1.735,1.329-5.933-1.38-5.514C149.358,408.51,147.46,412.718,150.17,412.3Zm5.479,13.78c2.82-2.694-1.736-6.58-4.11-8.266C151.61,421.862,153.843,423.759,155.649,426.078Zm1.369-22.052c-0.893-6.187.558-12.493-2.049-15.847C151.793,393.881,154.381,399.082,157.018,404.026Zm11.658,117.128c0.5-2.119-1.887-1.321-1.38-3.443-4.434,1.278-10.714.714-13.707,3.443C159.677,521.419,162.162,521.175,168.676,521.154ZM155.649,413.675c0.557-.773.456-5.042-1.37-5.512C154.157,410.574,154.461,412.571,155.649,413.675Zm3.419,9.648c1.289-1.314-.406-1.247,0-3.448h-1.36c0,0.691-.558.823-0.69,1.377C158.317,421.328,157.5,423.532,159.068,423.323Zm10.967,106.094c0.883-3.18-2.688-1.889-3.419-3.438,8.939-1.043,20.79,4.759,26.715,0-7.5-1.088-19.46-2.157-28.784,0,1.582-1.739-6.109-2.305-6.839,0C162.1,526.827,165.662,528.532,170.035,529.417Zm-5.488-92.312c1.278-17.256-2.446-37.7-6.159-50.99C158.753,404.983,162.842,419.954,164.547,437.105Zm-2.73-4.83c-0.01-1.821.376-4.053-1.369-4.137C160.458,429.969,160.062,432.2,161.817,432.275Zm28.775,120.573c-5.906-8.3-13.688-18.383-25.356-18.6C176.072,537.6,183.113,548.418,190.592,552.848ZM169.345,451.571c-2.12-.476-2.84,3.944-1.359,4.818C168.514,454.859,169.427,453.706,169.345,451.571ZM196.07,558.36c5.164-8.417-4.636-20.84-11.638-21.358,1.36,1.138,3.177,1.852,3.42,4.137-5.053-3.427-10.948-9.656-17.817-8.962C182.241,537.362,189.8,547.217,196.07,558.36ZM181,493.6c-1.065,1.26-6.087,2.1-4.108,4.137C177.909,496.42,182.191,494.834,181,493.6Zm8.219,29.62c0.324-2.836-1.837.671-2.049-2.063H194.7c-0.365-1,.812-3.557-0.68-3.443-4.565,2.522-11.972,2.2-15.756,5.506C182.282,522.623,186.015,525.2,189.222,523.217Zm17.136,0.7c0.223-3.533-8.178-2.538-8.229,0A12.128,12.128,0,0,1,206.358,523.914Zm3.419,56.5c2.4,2.885,5.043,9.156,8.909,8.263-7.062-5.067-3.968-20.352-6.849-29.623C210.721,568.424,208.2,571.91,209.777,580.41ZM226.9,455.7c-2.394,1.4-5.428,1.1-7.529,2.762-8.411,6.632-7.609,18.58-6.168,33.066,3.663-9.326,1.258-20.64,6.859-27.552-2.466,9.413-3.826,27.243-6.859,35.821,8.411-9.254,8.624-27.969,11.658-40.646-0.163,10.385-2.375,24.188-4.8,34.448,5.5-7.554,7.579-18.554,8.9-30.317,4.038-7.195,8.958-13.5,10.957-22.736-2.161.344-.243-3.418-2.729-2.758C235.721,446.417,233.57,451.832,226.9,455.7ZM-45.12,548.711c1.744,2.158,4.6-.382,6.168-0.688-3.247,6.123-12.51,20.023-.69,23.425-0.964,4.377,8.168,7.68,13.017,6.2-3.358-2.586-10.359-1.518-10.968-6.886,5.591-.127,8.411-3.03,13.707-3.448-0.011-.668-0.832-0.533-1.36-0.689,6.544-4.007,6.331-18.248,16.448-16.531,4.311,0.731,3.115,5.121,8.218,6.2-0.842,4.514,1.2,6.142,2.739,8.264-4.119,13.127-12.692,18.456-28.784,18.605,1.695-1.3,4.7-1.252,6.859-2.071-11.779.14-24.219-6.083-32.893-14.469,3.643,8.049,10.653,12.711,19.2,15.846-8.351.115-16.051-6.376-20.566-12.4-1.086.293-.588,2.163-2.739,1.377-1.075-2.134-1.289-5.139-3.429-6.2-0.558.131-.68,0.7-1.369,0.684,3.713,7.985,8.685,14.7,17.136,17.916-8.107.11-13.656-8.306-17.827-14.468-2.76,3.721,2.131,5.651,2.06,8.96-4.515-1.643-6.311-7.841-3.429-11.715-5.134-.78-8.421-0.619-10.968-4.82,3.907-1.112,5.337,2.275,8.228,3.443,5.327-2.254,9.274-1.665,13.018-5.516,0.69,0.921.649,2.573,2.06,2.762,2.6-.6.589-5.841,2.06-7.58-2.892.082-4.921,1.025-5.489,3.446a12.767,12.767,0,0,0-5.479-.691c2.374-4.046,8.817-4,12.338-6.887-3.1-1.038-9.01,1.025-12.338,2.066,1.39-3.282,12.845-6.1,21.246-6.2C-40.118,548.224-42.818,548.275-45.12,548.711ZM-18.4,576.962c-2.08.663-6.95-1.474-6.849,1.378C-22.881,577.969-18.751,579.36-18.4,576.962Zm6.849-8.268c-3.9.665-7.8,1.336-9.588,4.131C-17.838,571.55-13.84,570.974-11.547,568.694Zm6.169,6.886A25.652,25.652,0,0,0,.1,563.177c-1.866-.061-1.369,1.15-2.739,0-0.588,8.332-8.837,10.679-10.958,13.785C-12.187,576.942-9.336,575.042-5.379,575.58Zm39.742,16.539c11.181,0.472,17.877,11.421,19.866,23.423-3.257.75-2.79-2.239-2.74-4.82-2.11-.518-0.832,2.374-3.429,1.372C45.341,602.163,42.531,595.672,34.363,592.119ZM-75.274,521.845c0.963-2.974,3.348.706,3.429,2.757-0.547.587-1.876,0.411-2.049,1.377-1.633-.2.751-1.866,1.359-2.065C-73.134,522.9-73.559,521.725-75.274,521.845Zm16.457,281.79c-1.228-5.287,10.836-8.73,13.7-14.471,1.7,0.107,2.84-.352,3.429-1.381C-43.852,793.688-56.058,798.256-58.817,803.635Zm0-259.739c6.747,0.51,15.543-3.69,17.806-1.385C-45.9,544.829-55.337,546.834-58.817,543.9Zm7.528,242.511a61.055,61.055,0,0,1,22.605-11.023C-35.847,779.429-43.548,782.938-51.289,786.407Zm0.69-544.285c17.542,3.487,31.2,10.887,43.171,19.98C-18.862,255.218-35.451,247.559-50.6,242.122Zm1.37,627.65c-1.045-21.2,9.893-38.723,18.507-55.8C-35.837,830.883-47.86,846.813-49.23,869.772Zm4.11-71.646a22.629,22.629,0,0,1,8.217-6.894C-39.824,793.349-40.8,797.412-45.12,798.126Zm2.738-313.486c11.161-1.12,17.929,8.151,26.035,12.4-5.661.967-12.6-8.355-19.176-11.023C-38.688,486.441-39.469,484.466-42.381,484.64ZM-36.9,667.905c6.483,1.33,10.775,4.371,18.506,2.759A18.1,18.1,0,0,1-30.723,674.8c-0.589,1.47.294,4.352-.7,6.9-2.273.918-3.46,2.94-6.169,3.445C-29.069,681.8-35.35,671.674-36.9,667.905Zm6.859,104.033c0.508-2.471,4.393-1.546,6.159-2.757C-22.708,770.637-27.964,771.479-30.044,771.938Zm2.06,3.446c0-2.277,3.865-.7,4.789-2.066C-22.14,773.981-25.447,776.054-27.984,775.384Zm50.01-462.3c-9.6,2.087-20.911.6-28.095,6.2-2.079-.5-2.485.7-4.109,0.686-1.359,1.627-1.359-.061,0-0.686C-1.341,313.778,13.848,311.947,22.026,313.084ZM3.53,629.324h8.218c2.953-.538,4.221-8,0.69-8.962-0.4,3.051-5.377,1.488-6.848,3.449-0.862-2.1-.528-2.681.68-4.132-2.922.814-2.821,4.026-2.05,6.891-7.751-2.586-2.455-12.1,3.419-11.716,12.8,0.834,8.665,24.667-6.158,17.916,0.1-.814,1.247-0.584,2.049-0.691-21.692-22.15,4.332-51.467,34.263-45.469,9.254,1.849,20.942,14.933,21.236,25.484-6.017-13.553-15.929-28.687-37-22.729,2.932,3.257,3.095,9.291,6.859,11.711,1.714-1.8.689-2.369,2.049-4.82,2.9,2.046-.01,6.356-1.37,8.266a23.912,23.912,0,0,1-11.647-8.957c-9.476,1.951-15.6,7.269-14.387,19.977-8.371-9.862,7.386-17.3,10.968-24.114C-0.519,592.739-10.218,617.239,3.53,629.324ZM14.5,698.907c2.872-1,.406-7.391,3.419-8.263-10.2-3.66-14.407,4.738-19.176,10.334-0.325-6.233,5.438-11.112,13.7-12.4,5.144-.8,17.045-6.563,19.866,2.068,0.081,3.061-4.556,1.382-4.109,4.817-1.553-1.188-3.835-1.657-6.849-1.372-13.17,12.26,21.479,17.856,32.883,13.775C40.928,713.516,22.614,709.277,14.5,698.907Zm36.313-2.063c19.774-5.672,40-10.571,53.449-26.871,0.122,3.262-3.906,6.266-6.169,8.269-8.806,7.8-23.183,12.519-31.523,16.531C61.92,693.993,58.155,698.237,50.81,696.844ZM36.423,405.409c1.228-.469,8.828-6.2,12.328-8.954A18.445,18.445,0,0,1,36.423,405.409Zm21.926-24.117c-5.469,3.686-12.165,6.139-17.816,9.653C45.2,386.9,52.027,381.369,58.348,381.292ZM96.03,712c-5.235,1.628-8.583,11.112-15.066,13.78,9.568-12.65,21.114-23.316,28.774-37.891,1.41,2.307,1.42.481,3.419,0-3.4,7.2-3.733,14.845-2.05,24.8-4.413-4.9-1.166-11.59-2.049-17.229-5.844,8.7-5.174,24.337,4.1,29.634-5.854.224-9.974-9.638-9.588-15.848-7.1,8.84.862,21.219,10.967,21.357,4.8-1.689,7.986-8.9,4.789-14.471-3.591-1.326-5.894-7.213-4.108-11.714,3.449,0.676,3.52,4.736,5.488,6.893,4.049,0.436,4.891-1.293,6.849-1.379,3.237-12.441-17.4-17.958-5.479-28.937a14.4,14.4,0,0,0-1.37,11.711c9.487,3.709,12.683,19.682.68,23.426,9.812,20.112-27.82,21.578-25.355.694-2.678.979-6.554,6.722-8.218,11.022-12.824,10.99-24.279,23.352-36.323,35.132C51.409,767.5,48.9,769.559,49.44,774.7c-4.15-1.262.274-6.916-2.739-8.952a1.031,1.031,0,0,1,1.359.684C60.956,747.906,83.784,733.453,96.03,712ZM48.75,457.083c-0.071-2.839,6.565-4.876,7.539-8.957C59.12,451.342,51,454.473,48.75,457.083Zm9.6,292.809c0.071-3.147,5.875-6.48,8.218-9.64C66.82,743.723,61.017,747.064,58.348,749.892ZM79.584,303.438c1.8-.091,7.295,7.746,8.909,12.4A124.652,124.652,0,0,1,79.584,303.438Zm28.094,104.725c2.577-.966,5.6,3.541,6.169,6.884C110.945,413.6,110.864,409.334,107.678,408.163Zm8.228-69.582a9.241,9.241,0,0,1,6.169-6.205c0.011,0.665.832,0.533,1.36,0.691C121.852,335.832,117.408,335.724,115.906,338.581Zm61.668,261.8c3.592,0.3,4.484,9.261,4.8,15.157C180.466,610.793,180.405,604.205,177.574,600.385Zm2.74-25.491c6.777,4.213,8.623,13.375,13.706,19.288-1.582,2.663-3.368-3.21-4.109-4.817C187.547,584.251,182.272,579.29,180.314,574.894Zm2.739-108.17c3.653-7.58,13.626-14.775,15.767-26.18C199.358,449.669,189.425,459.982,183.053,466.724Zm10.278,130.212c0.781-1.389,3.307,1.222,2.739,3.449C194.183,600.222,194.508,597.822,193.331,596.936ZM217.316,512.2c1.674,2.084,4.464-.523,6.849,0-2.212,2.137-7.458,2.9-13.018,3.448,7.4-6.894,17.086-8.174,23.985-15.85,2.192-2.439,2.77-5.326,6.169-6.891-0.954-2.785,1.481-2.176,1.37-4.127,0.882,2.149-2.364,7.432-4.11,9.64C233.59,504.681,225.2,509.82,217.316,512.2ZM213.9,535.62c4.871-.066,10.644,4.909,14.388,8.276C223.951,543.417,218.614,538,213.9,535.62Zm31.514-49.6c3.216-5.042,18.872-17.993,8.908-27.557-2.394,1.265-3.307,4.022-6.169,4.82-1.582-.191-1.572-1.839-0.679-2.759-2.192,1.012-1.9,4.524-4.8,4.83,3.236-5.626,5.641-10.757,5.478-16.537,1.594,0.7,1.421,3.165,1.37,5.511,4.617-2.236,6.037,3.172,9.6,4.135,0.954,8.126.244,13.219-4.119,18.6,1.908,1.3,4.536,1.878,6.169,3.442,1.288,16.315-20.383,27.869-34.943,31.694,13.616-7.674,29.88-12.673,33.583-30.312-2.891-.6-8.827,1.684-10.967,4.132C247.135,486.915,246,484,245.41,486.017Zm-16.446,54.426c3.977-1.681,6.422,4.1,10.277,4.823-3.125,2.563-4.373-4.42-7.538-2.064C232.18,540.89,230.556,540.683,228.964,540.443Zm32.893,14.471c2.4-2.176-4.14-1.6-4.8-.692,1.227,2.409-.112,6.323.69,7.583-0.5,2.257-4.718.763-4.8,3.443a20.242,20.242,0,0,1,4.109,7.577c-3.48-2.465-2.75-9.174-9.588-8.265-1.867-2.951-3.186-6.448-6.169-8.264-2.2,2.471.781,5.6,3.419,5.509-3.237,3.731,3.419,6.929,2.75,12.4-5.571-6.812-5.459-19.324-16.447-20.671-1.065-2.908,3.805.148,2.74-2.755,3.368,1.322,9.486,6.845,12.337,4.132,2.9,2.1,5.012,6.414,10.268,4.136-4.586-11.81-14.945-18.7-25.345-22.734,6.493-1.01,11.141,5.79,18.5,6.195,6.849,9.593,29.119,9.71,35.633.691-1.34-2.091-1.319-5.56-5.479-4.822-1.745-3.2,2.242-3.788-1.37-6.2,7.143,0.056,12.713,5.44,20.556,4.825,8.807-.691,16.254-8.133,24.665-8.962-8.391-11.232-29.139-19.334-43.171-8.263h-4.8c0.436-3.015,2.749-4.132,3.439-6.893,1.41,0.177.183,3.024,1.36,3.45,3.389,0.643,4.647-.842,6.169-2.071-1.522-.752-0.477-4.109-3.419-3.443,1.034-1.987-.02-2.16.679-4.823-6.158-7.32-20.667-6.853-31.513-4.137,9.233-6,30.285-4.685,37,4.824,0.294,2.6-1.36,3.238-2.059,4.83,1.572,1.364,4.829.272,6.169-.694,0.638,0.737,2.526.214,2.049,2.064,11.455-2.914,21.286,8.6,30.154,10.333,0.69,0.911.67,2.549,1.37,3.446,0.974,0.061,1.937.112,2.049-.684-0.618,4.563-4.383,4.163-10.278,6.2-11.84,4.093-16.426,14.772-29.454,8.266C282.261,547.492,274.833,555.934,261.857,554.914Zm-20.556-6.2c2.293,0.01,6.666,3.854,8.218,6.894C245.867,554.233,244.284,550.764,241.3,548.711Z" transform="translate(0 -125)"/>
</svg>
