<svg xmlns="http://www.w3.org/2000/svg" xmlns:xlink="http://www.w3.org/1999/xlink" width="152" height="115" viewBox="0 0 152 115">
  <defs>
    <style>
      .cls-1 {
        fill: #f5f5f5;
        filter: url(#filter);
      }

      .cls-2 {
        fill: #bd9658;
      }

      .cls-2, .cls-3, .cls-4 {
        fill-rule: evenodd;
      }

      .cls-3, .cls-4 {
        fill: #fff;
        stroke: #221308;
      }

      .cls-3 {
        stroke-width: 1px;
      }

      .cls-4 {
        fill-opacity: 0;
        stroke-width: 2px;
      }
    </style>
    <filter id="filter" x="0" y="23" width="152" height="76" filterUnits="userSpaceOnUse">
      <feGaussianBlur result="blur" stdDeviation="4.899" in="SourceAlpha"/>
      <feFlood result="flood" flood-color="#221f1e" flood-opacity="0.07"/>
      <feComposite result="composite" operator="out" in2="blur"/>
      <feOffset result="offset" dy="-7"/>
      <feComposite result="composite-2" operator="in" in2="SourceAlpha"/>
      <feBlend result="blend" in2="SourceGraphic"/>
    </filter>
  </defs>
  <rect id="canvas_copy_2" data-name="canvas copy 2" class="cls-1" y="23" width="152" height="76"/>
  <path class="cls-2" d="M121.741,18.938a2.242,2.242,0,0,1-.455-1.862c0.059-1.852-.13-2.858-1.344-3.242a1.267,1.267,0,0,1-.819-1.576,1.241,1.241,0,0,1,1.554-.834c3.03,0.958,3.129,3.911,3.094,5.439,2.355,0.53,3.494,3.239,3.69,4.688a1.255,1.255,0,0,1-1.059,1.422,1.421,1.421,0,0,1-.2.01,1.253,1.253,0,0,1-1.2-1.087c0-.029-0.534-2.747-2.224-2.591A1.346,1.346,0,0,1,121.741,18.938ZM116.86,51.366c-0.568-.435-1.085-0.857-1.424-1.138a1.083,1.083,0,0,1-.139-0.135c-0.312-.01-0.641-0.026-0.995-0.059-2.371-.209-3.305,1.044-4.3,2.368-0.752,1-1.6,2.143-3.068,2.094a1.26,1.26,0,0,1,.08-2.518,3.7,3.7,0,0,0,1.017-1.1c1.1-1.466,2.749-3.681,6.48-3.355,2.605,0.23,3.139-.281,3.941-1.052a6.772,6.772,0,0,1,2.625-1.7,4.358,4.358,0,0,0,1.895-1.876,10.854,10.854,0,0,1,7.6-5.057,1.245,1.245,0,0,1,1.45,1.008,1.26,1.26,0,0,1-.986,1.474,8.378,8.378,0,0,0-6.06,4.055,6.565,6.565,0,0,1-3.1,2.784,4.379,4.379,0,0,0-1.727,1.148,6.913,6.913,0,0,1-1.31,1.042,1.277,1.277,0,0,1,.37.647,7.777,7.777,0,0,0,1.255.812,4.827,4.827,0,0,1,1.214.692,4.538,4.538,0,0,0,2.864,1.053c1.08-.027,2.644-1.19,3.9-2.121a10.614,10.614,0,0,1,2.893-1.749,1.233,1.233,0,0,1,1.533.858,1.265,1.265,0,0,1-.845,1.563,10.562,10.562,0,0,0-2.121,1.366c-1.618,1.2-3.448,2.556-5.3,2.6-0.131,0-.256,0-0.381,0a6.923,6.923,0,0,1-3.938-1.489,4.21,4.21,0,0,0-.6-0.377,3.037,3.037,0,0,1-.344-0.154,9.026,9.026,0,0,1-.634,3.189c0.1,0.115.205,0.242,0.3,0.356a5.587,5.587,0,0,1,1.611,3.049,1.242,1.242,0,0,1-1.148,1.34,0.568,0.568,0,0,1-.13,0,1.247,1.247,0,0,1-1.193-1.173,4.548,4.548,0,0,0-1.027-1.586c-0.64-.759-1.6-1.909-0.69-2.978A8.534,8.534,0,0,0,116.86,51.366ZM67.73,42.246c0.157-.362.336-0.776,0.52-1.277a7.182,7.182,0,0,0,.028-3.185,12.325,12.325,0,0,1,.346-5.972,40.872,40.872,0,0,1,4.59-8.213A3.558,3.558,0,0,1,73,23.1a6.67,6.67,0,0,1,1.131-5.978c0.055-.085.124-0.188,0.168-0.262a3.161,3.161,0,0,1,.842-1.363,20.244,20.244,0,0,0,2.35-3.323,7.957,7.957,0,0,1,3.894-3.608c0.157-.075.365-0.173,0.447-0.227a7.712,7.712,0,0,1,2.1-1.6,14.121,14.121,0,0,0,2.744-2.017c1.824-1.987,6.653-2.8,10.368-2.717,3.522,0.082,5.68,4.19,6.446,6.621,0.057-.02.114-0.037,0.17-0.053a1.31,1.31,0,0,1-.019-0.25c0.028-1.258,1.731-6.128,6.239-6.024,3.714,0.084,8.5,1.117,10.238,3.185a14,14,0,0,0,2.65,2.137A7.769,7.769,0,0,1,124.8,9.318a3.934,3.934,0,0,0,.437.246,8,8,0,0,1,3.731,3.784,20.23,20.23,0,0,0,2.2,3.424,3.156,3.156,0,0,1,.777,1.4c0.042,0.073.106,0.181,0.153,0.267a6.675,6.675,0,0,1,.873,6.026,3.242,3.242,0,0,1-.238.486,40.861,40.861,0,0,1,4.225,8.412,12.3,12.3,0,0,1,.081,5.984,7.154,7.154,0,0,0-.11,3.18c0.165,0.516.324,0.935,0.467,1.3,0.629,1.638.92,2.628,0.105,5.614-0.907,3.322-2.284,7.17-3.38,10.157-0.925,2.5-3.665,3.319-5.869,3.976-0.623.184-1.214,0.358-1.708,0.556a4.092,4.092,0,0,0-1.8,1.79,18.641,18.641,0,0,1-4.3,4.543A8.878,8.878,0,0,1,114.809,72a18.3,18.3,0,0,1-4.186-.625c-2.022-.548-7.862-4.46-9.2-6.441A9.741,9.741,0,0,1,98.3,69.061a17.638,17.638,0,0,1-5.036,1.911,17.888,17.888,0,0,1-4.206.44,8.914,8.914,0,0,1-5.564-1.787,18.615,18.615,0,0,1-4.1-4.732,4.138,4.138,0,0,0-1.721-1.874c-0.485-.216-1.068-0.417-1.684-0.636-2.172-.75-4.874-1.693-5.682-4.235-0.97-3.031-2.175-6.941-2.935-10.3C66.691,44.828,67.026,43.852,67.73,42.246ZM96.988,4.527c-3.582-.082-7.477.8-8.505,1.919A15.976,15.976,0,0,1,85.229,8.89a10.4,10.4,0,0,0-1.416.965,3.205,3.205,0,0,1-1.394,1,5.543,5.543,0,0,0-2.794,2.6,22.542,22.542,0,0,1-2.615,3.695c-0.107.125-.231,0.269-0.306,0.368a3.33,3.33,0,0,1-.5.985c-0.71,1.108-1.365,2.309-.868,3.767a1.133,1.133,0,0,0,.79.691,8.84,8.84,0,0,0,5.139-.349,1.227,1.227,0,0,1,1.724.334,1.272,1.272,0,0,1-.327,1.751,10.506,10.506,0,0,1-5.021,1.037,7.512,7.512,0,0,1-2.191-.342c-0.122-.043-0.239-0.088-0.355-0.135a38.357,38.357,0,0,0-4.147,7.415,9.936,9.936,0,0,0-.211,4.8,9.2,9.2,0,0,1-.166,4.379c-0.213.576-.41,1.026-0.582,1.421-0.541,1.233-.728,1.665-0.222,3.924a1.249,1.249,0,0,1,.37.22c4.912,4.248,6.756,3.116,8.54,2.019,1.029-.633,2.2-1.355,3.681-0.848a4.03,4.03,0,0,0,2.022.145,7.208,7.208,0,0,1,1.587-.036,1.267,1.267,0,0,1,.073-0.724,9.249,9.249,0,0,0-.573-1.476,5.393,5.393,0,0,1-.586-1.292,4.982,4.982,0,0,0-1.746-2.663c-0.886-.653-2.8-0.687-4.333-0.712a10.3,10.3,0,0,1-3.315-.382,1.265,1.265,0,0,1-.7-1.631,1.227,1.227,0,0,1,1.6-.722,9.941,9.941,0,0,0,2.465.212c1.975,0.035,4.218.077,5.736,1.189a7.382,7.382,0,0,1,2.627,3.855,4.486,4.486,0,0,0,.284.7c0.06,0.092.122,0.2,0.187,0.329a8.53,8.53,0,0,1,2.249-2.132c-0.005-.157-0.023-0.329-0.04-0.475a10.059,10.059,0,0,1-.021-2.145,10.521,10.521,0,0,0-1.2-.423,9.963,9.963,0,0,1-4.857-4.033c-5.341-.457-6.038-0.955-6.269-1.12A31.879,31.879,0,0,1,73.873,30.4a1.276,1.276,0,0,1,.293-1.757,1.229,1.229,0,0,1,1.728.295,44.954,44.954,0,0,0,3.049,4.017,29.443,29.443,0,0,0,4.229.625,1.236,1.236,0,0,1,.755-0.61,17.076,17.076,0,0,1,1.989-2.905c1.163-1.349,1.918-4.781.826-9.12-0.914-3.652.138-5.173,1.206-6.076,0.042-.178.106-0.4,0.19-0.7,0.922-3.3.891-4.417,0.71-4.771a1.273,1.273,0,0,1,.512-1.706,1.237,1.237,0,0,1,1.679.525c0.8,1.543.185,4.125-.52,6.639-0.069.258-.158,0.577-0.183,0.7a1.77,1.77,0,0,1-.752,1.214,1.846,1.846,0,0,0-.716,1.7,5.6,5.6,0,0,0,5.849-.329,1.227,1.227,0,0,1,1.622.007,1.284,1.284,0,0,1,.222,1.638c-1.495,2.345-3.124,5.479-3.145,6.453a50.43,50.43,0,0,0,.986,7.8,1.266,1.266,0,0,1-.838,1.564,1.116,1.116,0,0,1-.38.05,1.241,1.241,0,0,1-1.161-.905,50.949,50.949,0,0,1-1.084-8.564,13.012,13.012,0,0,1,1.7-4.607,8.335,8.335,0,0,1-3.272-.251c0.852,4.257.258,8.263-1.587,10.405a15.711,15.711,0,0,0-1.957,2.973,7.619,7.619,0,0,0,3.524,3.081,12.244,12.244,0,0,1,3.572,1.664c0.761,0.124,2.008.13,2.24-.392a1.6,1.6,0,0,1,1.422-1.062c1.135-.028,1.684,1.045,2.508,2.67a14.477,14.477,0,0,0,1.746,2.877,1.278,1.278,0,0,1,.179-0.914,48.7,48.7,0,0,0-.034-6.489c-0.055-.594-1.2-13.957,1.595-24.434-1.922.636-4.952,1-8.177-2.139a1.277,1.277,0,0,1-.036-1.786,1.223,1.223,0,0,1,1.748-.037c1.956,1.905,3.695,2.045,5.059,1.741C100.677,7.871,99.117,4.575,96.988,4.527Zm14.272,64.4c3.262,0.883,6.14.7,7.7-.483a16.1,16.1,0,0,0,3.775-4,6.407,6.407,0,0,1,2.918-2.672c0.6-.231,1.23-0.423,1.908-0.623,1.847-.55,3.752-1.12,4.24-2.444,1.081-2.935,2.438-6.719,3.32-9.946,0.629-2.311.464-2.742-.032-4.017-0.15-.4-0.328-0.86-0.516-1.442a9.189,9.189,0,0,1,.031-4.386,10.016,10.016,0,0,0,0-4.8,38.526,38.526,0,0,0-3.819-7.6,3.665,3.665,0,0,1-.359.119,7.555,7.555,0,0,1-2.2.241,10.511,10.511,0,0,1-4.975-1.263,1.284,1.284,0,0,1-.256-1.772,1.22,1.22,0,0,1,1.728-.259,8.827,8.827,0,0,0,5.137.594,1.147,1.147,0,0,0,.817-0.65c0.564-1.438-.035-2.669-0.7-3.808a3.233,3.233,0,0,1-.455-1.005c-0.07-.1-0.192-0.252-0.289-0.381a22.467,22.467,0,0,1-2.447-3.809,5.534,5.534,0,0,0-2.68-2.724,3.194,3.194,0,0,1-1.351-1.065,10.654,10.654,0,0,0-1.369-1.027,15.984,15.984,0,0,1-3.146-2.59c-0.98-1.167-4.831-2.224-8.41-2.305-2.9-.065-3.687,3.466-3.706,3.577a1.238,1.238,0,0,1-.623,1.046,2.235,2.235,0,0,1-.071,1.344q-0.477,1.487-.828,3.079c1.052-1.115,2.964-1.786,6.03-2.855l0.235-.082a1.238,1.238,0,0,1,1.575.783,1.264,1.264,0,0,1-.773,1.6l-0.23.079c-5.226,1.823-5.377,2.024-5.411,3.586-0.056,2.521.424,7.691,0.426,7.742A1.257,1.257,0,0,1,105.33,26.1c-0.048,0-.094,0-0.144.005a1.247,1.247,0,0,1-1.2-1.144c-0.014-.146-0.236-2.563-0.362-4.941a94.846,94.846,0,0,0-.24,15.006,14.558,14.558,0,0,1,1.531-1.344,21.27,21.27,0,0,1,3.879-2.433,1.716,1.716,0,0,1,1.962.162c1.005,0.868.6,2.378-.006,4.671a12.562,12.562,0,0,0-.614,3.305,2.314,2.314,0,0,0,1.9.928A11.25,11.25,0,0,1,116,38.378a4.95,4.95,0,0,0,3.274-2.972,1.378,1.378,0,0,1,.17-0.394,15.4,15.4,0,0,0-1.613-2.609c-1.749-2.223-2.164-6.252-1.124-10.467a8.285,8.285,0,0,1-3.285.1,13.032,13.032,0,0,1,1.5,4.683,28.37,28.37,0,0,0,.334,3.417c0.317,2.346.468,3.609,0.207,4.382a1.236,1.236,0,0,1-1.2.85,1.2,1.2,0,0,1-.38-0.071,1.255,1.255,0,0,1-.777-1.561,21.441,21.441,0,0,0-.3-3.258,28.439,28.439,0,0,1-.36-3.814c0.021-.972-1.469-4.18-2.859-6.591a1.281,1.281,0,0,1,.29-1.627,1.219,1.219,0,0,1,1.617.06,5.6,5.6,0,0,0,5.836.605,1.852,1.852,0,0,0-.639-1.734,1.736,1.736,0,0,1-.7-1.244c-0.019-.12-0.095-0.442-0.155-0.7-0.59-2.546-1.092-5.154-.22-6.654a1.221,1.221,0,0,1,1.693-.449,1.271,1.271,0,0,1,.437,1.728c-0.2.346-.272,1.455,0.5,4.794,0.069,0.3.122,0.528,0.159,0.7,1.028,0.951,2.011,2.524.935,6.13-1.28,4.287-.675,7.749.426,9.147a18.278,18.278,0,0,1,2.179,3.658,32.362,32.362,0,0,0,4.661-.451,46.032,46.032,0,0,0,3.224-3.869,1.221,1.221,0,0,1,1.737-.219,1.272,1.272,0,0,1,.215,1.767,31.859,31.859,0,0,1-3.879,4.478c-0.242.162-.982,0.64-6.618,0.846a7.574,7.574,0,0,1-4.724,3.794,9.128,9.128,0,0,0-3.315,1.718,1.225,1.225,0,0,1-.77.3c-0.082,0-.173,0-0.265,0-1.375-.029-3.6-0.581-4.371-2.524-0.438-1.1-.077-2.656.519-4.9,0.1-.381.225-0.85,0.328-1.282a16.6,16.6,0,0,0-3.75,2.891,1.233,1.233,0,0,1-1.2.92c0.006,0.587,0,1.287-.022,2.036a22.4,22.4,0,0,1-.355,3.582,36.123,36.123,0,0,1,.33,7.92c-0.083,1.2,1.02,4.062,1.144,4.747,0.212,1.212.76,4.058,4.1,3.653a15.466,15.466,0,0,0,4.712-2.3,1.222,1.222,0,0,1,1.753.054,1.276,1.276,0,0,1-.053,1.78c-1.718,1.646-5.451,2.809-5.87,2.934a1.416,1.416,0,0,1-.337.051c-0.336,0-.649.006-0.947,0-3.988-.091-4.5-1.071-4.7-1.461a15.108,15.108,0,0,1-.877-3.1c-0.236.821-.511,1.638-0.836,2.46C102.607,62.424,108.167,68.093,111.26,68.932Zm-38.6-11.563c0.428,1.344,2.31,2,4.128,2.633,0.668,0.234,1.3.449,1.875,0.71a6.426,6.426,0,0,1,2.8,2.8,16.194,16.194,0,0,0,3.593,4.162c1.506,1.254,4.371,1.567,7.668.834a8.789,8.789,0,0,0,6.329-5.421c-0.037.01-.077,0.022-0.113,0.033a3.959,3.959,0,0,1-1.017.112,6.206,6.206,0,0,1-3.326-1.281c-0.88-.328-4.044-1.569-5.535-3.128a1.275,1.275,0,0,1,.026-1.782,1.226,1.226,0,0,1,1.754.025c1.043,1.1,3.794,2.227,4.766,2.572a1.214,1.214,0,0,1,.378.217,3.372,3.372,0,0,0,2.345.821,20.728,20.728,0,0,0,2.24-4.956,32.677,32.677,0,0,0,.6-9.333,1.316,1.316,0,0,1-.147,0,1.89,1.89,0,0,1-.837-0.219c-1.479-.763-2.5-2.759-3.311-4.367-0.1-.187-0.207-0.406-0.316-0.614a5.4,5.4,0,0,1-4.252.7c0.012,0.239.033,0.467,0.048,0.657,0.088,1.013.222,2.545-1.146,2.856a8.013,8.013,0,0,0-2.485,2.842c0.216,0.714.4,1.383,0.518,1.824a1.7,1.7,0,0,1,.041.223c0.249,0.2.511,0.425,0.785,0.675,1.8,1.641,3.241,1.216,4.773.759,1.174-.347,2.505-0.744,3.665.208A1.272,1.272,0,0,1,98.7,53.7a1.222,1.222,0,0,1-1.743.192,3.231,3.231,0,0,0-1.416.254,9.516,9.516,0,0,1-2.952.512,6.249,6.249,0,0,1-4.17-1.817c-1.975-1.808-2.686-1.73-3.764-1.605a6.348,6.348,0,0,1-3.079-.261c-0.365-.122-0.753.082-1.616,0.612-2.252,1.388-4.823,2.432-9.207-.535C71.369,53.257,72.063,55.483,72.665,57.369ZM84.583,12.882a15.6,15.6,0,0,0,.2,2.354c0.2,1.467.3,2.206-.267,2.787a1.306,1.306,0,0,1-1.113.386c-1.678-.227-2.332,2.461-2.334,2.485a1.253,1.253,0,0,1-1.248,1.035,1.38,1.38,0,0,1-.2-0.021,1.259,1.259,0,0,1-1-1.467c0.254-1.413,1.466-3.989,3.751-4.484-0.02-.133-0.033-0.26-0.05-0.375-0.293-2.13-.423-3.594.353-4.483a1.694,1.694,0,0,1,1.335-.583A1.262,1.262,0,0,1,84.583,12.882Z"/>
  <path class="cls-3" d="M29.52,44.009a1.667,1.667,0,0,0-1.3,1.917C28.352,46.842,29.346,48.143,30.2,48h1.99V75L18.4,96.34h0.1a7.911,7.911,0,0,0-2.245,5.635,8.558,8.558,0,0,0,2.245,5.53l-0.1.1c0.044,0.06.15,0.046,0.2,0.1C19.9,109.422,21.854,111,24,111l35.1,0a7.638,7.638,0,0,0,5.252-2.425l0.1,0.1c0.06-.05.041-0.158,0.1-0.212h0.1a7.913,7.913,0,0,0,2.378-5.9,8.624,8.624,0,0,0-2.28-5.586l0.1-.1-0.2-.212L51.094,75V48h1.99c0.876,0,1.253-1.376,1.253-2.307a1.638,1.638,0,0,0-1.586-1.687L38.564,44c0.714-.012,2.146-0.02-2.183,0-4.767.006-5.218,0-5.283,0Z"/>
  <path class="cls-2" d="M26,82a2,2,0,0,0,.194.188C26.894,82.8,29.653,84.712,37,85c8.765,0.343,19-4,19-4h0L67,98l1,3v6l-5,5H23l-7-6V98"/>
  <path id="Shape_9_copy" data-name="Shape 9 copy" class="cls-4" d="M29.52,44.009a1.667,1.667,0,0,0-1.3,1.917C28.352,46.842,29.346,48.143,30.2,48h1.99V75L18.4,96.34h0.1a7.911,7.911,0,0,0-2.245,5.635,8.558,8.558,0,0,0,2.245,5.53l-0.1.1c0.044,0.06.15,0.046,0.2,0.1C19.9,109.422,21.854,111,24,111l35.1,0a7.638,7.638,0,0,0,5.252-2.425l0.1,0.1c0.06-.05.041-0.158,0.1-0.212h0.1a7.913,7.913,0,0,0,2.378-5.9,8.624,8.624,0,0,0-2.28-5.586l0.1-.1-0.2-.212L51.094,75V48h1.99c0.876,0,1.253-1.376,1.253-2.307a1.638,1.638,0,0,0-1.586-1.687L38.564,44c0.714-.012,2.146-0.02-2.183,0-4.767.006-5.218,0-5.283,0Z"/>
</svg>
