<svg id="ico_art" data-name="ico art" xmlns="http://www.w3.org/2000/svg" xmlns:xlink="http://www.w3.org/1999/xlink" width="89.999" height="155.273" viewBox="0 0 91 157">
  <defs>
    <style>
      .cls-1 {
        fill: #221f1e;
      }

      .cls-1, .cls-5 {
        fill-rule: evenodd;
      }

      .cls-2 {
        fill: none;
        stroke: #221308;
        stroke-width: 5px;
      }

      .cls-3 {
        fill: #221308;
        stroke: #0e2707;
        stroke-width: 1px;
      }

      .cls-4 {
        fill: #f5f5f5;
        filter: url(#filter);
      }

      .cls-5 {
        fill: #bd9658;
      }
    </style>
    <filter id="filter" x="0" y="12" width="91" height="91" filterUnits="userSpaceOnUse">
      <feGaussianBlur result="blur" stdDeviation="4.899" in="SourceAlpha"/>
      <feFlood result="flood" flood-color="#221f1e" flood-opacity="0.07"/>
      <feComposite result="composite" operator="out" in2="blur"/>
      <feOffset result="offset" dy="-7"/>
      <feComposite result="composite-2" operator="in" in2="SourceAlpha"/>
      <feBlend result="blend" in2="SourceGraphic"/>
    </filter>
  </defs>
  <path class="cls-1" d="M50.887,24.358l6.907,1.851L23.113,155.642l-6.907-1.851Z"/>
  <path id="Rectangle_9_copy_4" data-name="Rectangle 9 copy 4" class="cls-1" d="M39.966,25.014l-6.98,1.847L68.034,155.986l6.98-1.846Z"/>
  <rect id="top" class="cls-2" x="33" y="1" width="26" height="16"/>
  <rect id="leg" class="cls-3" x="27" y="126" width="34" height="5"/>
  <rect id="canvas" class="cls-4" y="12" width="91" height="91"/>
  <path class="cls-5" d="M37.994,51a0.993,0.993,0,0,0-1.008.9V81.1A1.014,1.014,0,0,0,39,81.1V51.9A1.07,1.07,0,0,0,37.994,51Zm8-2.989a0.994,0.994,0,0,0-1.009.9V84.084a1.014,1.014,0,0,0,2.016,0V48.913A0.925,0.925,0,0,0,46,48.008Zm-15.99,8.98a0.989,0.989,0,0,0-.992.917V78.081a1,1,0,0,0,1.985,0V57.8A0.987,0.987,0,0,0,30.007,56.988ZM54,51a0.993,0.993,0,0,0-1.008.9V81.1a1.014,1.014,0,0,0,2.016,0V51.9A0.993,0.993,0,0,0,54,51Zm8.065,5.866a0.991,0.991,0,0,0-1.009.9V77.506a1.015,1.015,0,0,0,2.017,0V57.661A0.993,0.993,0,0,0,62.064,56.863ZM52.013,44a1,1,0,0,0,0-1.995H39.979a1,1,0,0,0,0,1.995H52.013Zm22.754-5.631c-3.327-4.986-12-4.338-16.735-4.338H56.62C53.193,34.026,47.806,34,47,34s-8.324.026-11.652,0.026H33.937c-4.637,0-13.408-.648-16.735,4.338-2.924,4.388-2.924,8.8-.1,12.192a11.767,11.767,0,0,0,8.67,3.952A9.373,9.373,0,0,0,29.1,53.89,8.723,8.723,0,0,0,34.643,46.4a7.226,7.226,0,0,0-2.924-6.686,7.274,7.274,0,0,0-7.763,0A4.894,4.894,0,0,0,21.739,44.8a3.828,3.828,0,0,0,3.226,3.49,3.7,3.7,0,0,0,3.73-1.7,2.461,2.461,0,0,0-.806-2.892,0.927,0.927,0,0,0-1.21,0,0.9,0.9,0,0,0,0,1.2,1.213,1.213,0,0,1,.4.9,1.863,1.863,0,0,1-1.916.8c-0.907-.1-1.512-0.8-1.714-2.094a3.174,3.174,0,0,1,1.411-3.291,5.4,5.4,0,0,1,5.848.1,5.231,5.231,0,0,1,2.117,5.086,7.1,7.1,0,0,1-4.436,5.984c-3.024,1.3-7.46,0-9.88-2.892-2.319-2.792-2.218-6.183.2-9.972,2.823-4.189,10.888-4.488,15.122-3.491h24.4c4.335-1,12.4-.7,15.123,3.491,2.52,3.789,2.52,7.28.2,10.072-2.42,2.892-6.855,4.139-9.88,2.842a7.135,7.135,0,0,1-4.436-6.008,5.342,5.342,0,0,1,2.117-5.1,5.612,5.612,0,0,1,5.847-.106A3.019,3.019,0,0,1,68.617,44.5,2.279,2.279,0,0,1,66.9,46.593a2.052,2.052,0,0,1-1.915-.8,1.382,1.382,0,0,1,.4-0.9,0.743,0.743,0,0,0,0-1.2,0.761,0.761,0,0,0-1.21,0,2.508,2.508,0,0,0-.806,2.892,3.7,3.7,0,0,0,3.73,1.7,3.83,3.83,0,0,0,3.226-3.49,4.8,4.8,0,0,0-2.218-5.086,6.878,6.878,0,0,0-10.686,6.682,8.71,8.71,0,0,0,5.545,7.48,8.969,8.969,0,0,0,3.327.6,11.73,11.73,0,0,0,8.67-3.914C77.691,47.165,77.691,42.752,74.767,38.364Z"/>
</svg>
