<svg xmlns="http://www.w3.org/2000/svg" xmlns:xlink="http://www.w3.org/1999/xlink" width="176" height="159" viewBox="0 0 176 159">
  <defs>
    <style>
      .cls-1 {
        fill: #f5f5f5;
        filter: url(#filter);
      }

      .cls-2 {
        fill: #bd9658;
      }

      .cls-2, .cls-3 {
        fill-rule: evenodd;
      }

      .cls-3 {
        fill: #221308;
      }
    </style>
    <filter id="filter" x="34" y="33" width="142" height="91" filterUnits="userSpaceOnUse">
      <feGaussianBlur result="blur" stdDeviation="4.899" in="SourceAlpha"/>
      <feFlood result="flood" flood-color="#221f1e" flood-opacity="0.07"/>
      <feComposite result="composite" operator="out" in2="blur"/>
      <feOffset result="offset" dy="-7"/>
      <feComposite result="composite-2" operator="in" in2="SourceAlpha"/>
      <feBlend result="blend" in2="SourceGraphic"/>
    </filter>
  </defs>
  <rect id="canvas_copy" data-name="canvas copy" class="cls-1" x="34" y="33" width="142" height="91"/>
  <path class="cls-2" d="M100.693,4.361L88.818,1.415,144.637,93.49,147.582,81.7l-5.938-1.473,0.736-2.947,5.938,1.473,1.84-7.366-5.938-1.473,0.736-2.946,5.938,1.473,1.84-7.366L146.8,59.605l0.737-2.946,5.937,1.473,1.84-7.366-5.937-1.473,0.735-2.947,5.938,1.473,1.841-7.367-5.938-1.473,0.736-2.947,5.938,1.473,1.84-7.366-5.938-1.473,0.736-2.946,5.938,1.473,1.84-7.366-7.422-1.841-1.472,5.893-2.969-.737,1.472-5.893-7.422-1.841L143.754,21.3l-2.969-.736,1.472-5.893-7.422-1.842-1.472,5.893-2.969-.736,1.472-5.893-7.422-1.841-1.472,5.893L120,15.41l1.472-5.893-7.422-1.841-1.472,5.893-2.969-.737,1.472-5.893L103.662,5.1l-1.472,5.893-2.969-.736Zm49.379,23.2-9.6,38.428L111.353,17.957Z"/>
  <path class="cls-3" d="M99.807,50.574l-6.191,7.8-3.449-2.732,6.191-7.8ZM82.053,78.237c-2.587-2.049-4.951-3.929-7.39-5.85-0.683-.538-0.084-0.856.24-1.266,1.915-2.423,3.937-4.761,5.857-7.179L87.066,56l7.761,6.148ZM72.292,97.927L66.1,93.021l-3.44,4.331L60.072,95.3,64.2,90.1l-6.254-4.954c0.313,0.247,1.387-.717,2.107-0.992a1.717,1.717,0,0,1,1.121.474c1.452,1.094,2.728,2.31,4.452,3.676l3.389-4.267L71.6,86.09l-3.389,4.267c1.725,1.366,2.612,2.185,3.907,3.058a2,2,0,0,1,.716,2.8A11.885,11.885,0,0,1,72.292,97.927ZM1.151,110.038c2.254-1.808,4.507-3.618,6.907-5.545l1.7,3.118c-2.9.9-5.687,1.765-8.475,2.628C1.239,110.172,1.195,110.106,1.151,110.038Zm60.735,38.979,3.423,0.887-3.771,7.87-0.248-.04C61.484,154.9,61.679,152.057,61.886,149.017Zm23.574-45-1.75,2.2c-0.862-.683-1.67-1.278-2.519-2.033a0.917,0.917,0,0,1-.043-0.79,12.979,12.979,0,0,1,.689-2.146L83.8,102.81C84.413,103.3,85.461,104.02,85.461,104.02ZM46.7,76.757l1.626-2.048,3.387,2.683C49.115,79.566,48.957,79.225,46.7,76.757Zm24.855-3.7c-1-.789-0.353-1.26.048-1.77q1.083-1.371,2.172-2.736L9.748,102.677l2.509,4.744L73.642,74.7Q72.6,73.878,71.557,73.056Zm14.157,4.109L82.105,81.71,79.556,79.69,61.608,147.122l5.161,1.257Z"/>
</svg>
